<svg width="20" height="20" viewBox="0 0 20 20" fill="none" xmlns="http://www.w3.org/2000/svg">
<g clip-path="url(#clip0_470_7418)">
<path d="M9.99979 5.05005C10.1898 5.05005 10.3798 5.14005 10.4998 5.31005L16.8298 13.96C17.1298 14.37 16.8298 14.95 16.3298 14.95H3.66979C3.15979 14.95 2.86979 14.37 3.16979 13.96L9.49979 5.31005C9.61979 5.14005 9.80979 5.05005 9.99979 5.05005ZM9.99979 4.05005C9.47979 4.05005 8.98979 4.30005 8.68979 4.71005L2.35979 13.37C1.99979 13.87 1.93979 14.51 2.21979 15.06C2.49979 15.61 3.04979 15.95 3.66979 15.95H16.3398C16.9498 15.95 17.5098 15.61 17.7898 15.06C18.0698 14.51 18.0198 13.86 17.6498 13.37L11.3198 4.72005C11.0198 4.30005 10.5298 4.06005 10.0098 4.06005L9.99979 4.05005Z" fill="#7C7C7C"/>
<path d="M9.98926 11.3501V7.82007" stroke="#7C7C7C" stroke-width="1.2" stroke-linecap="round" stroke-linejoin="round"/>
<path d="M9.98961 13.6601C10.3431 13.6601 10.6296 13.3736 10.6296 13.0201C10.6296 12.6667 10.3431 12.3801 9.98961 12.3801C9.63615 12.3801 9.34961 12.6667 9.34961 13.0201C9.34961 13.3736 9.63615 13.6601 9.98961 13.6601Z" fill="#7C7C7C"/>
</g>
<defs>
<clipPath id="clip0_470_7418">
<rect width="20" height="20" fill="white"/>
</clipPath>
</defs>
</svg>
