<svg width="20" height="20" viewBox="0 0 20 20" fill="none" xmlns="http://www.w3.org/2000/svg">
<path d="M10.0083 8.16667C10.425 8.16667 10.7333 7.88333 10.7333 7.5C10.7333 7.1 10.425 6.83333 10.0083 6.83333C9.58333 6.83333 9.275 7.1 9.275 7.5C9.275 7.88333 9.58333 8.16667 10.0083 8.16667Z" fill="#FFC045"/>
<path d="M10.6075 13.5833V8.91667H9.39159V13.5833H10.6075Z" fill="#FFC045"/>
<path fill-rule="evenodd" clip-rule="evenodd" d="M10 2.5C14.1421 2.5 17.5 5.85786 17.5 10C17.5 14.1421 14.1421 17.5 10 17.5C5.85786 17.5 2.5 14.1421 2.5 10C2.5 5.85786 5.85786 2.5 10 2.5ZM9.99937 3.5C6.40952 3.5 3.49937 6.41015 3.49937 10C3.49937 13.5899 6.40952 16.5 9.99937 16.5C13.5892 16.5 16.4994 13.5899 16.4994 10C16.4994 6.41015 13.5892 3.5 9.99937 3.5Z" fill="#FFC045"/>
</svg>
