<svg width="171" height="267" viewBox="0 0 171 267" fill="none" xmlns="http://www.w3.org/2000/svg">
<g filter="url(#filter0_d_470_8049)">
<path d="M0 8.80025C0 3.94015 3.92432 0.000244141 8.76522 0.000244141H159.235C164.076 0.000244141 168 3.94014 168 8.80025V255.2C168 260.06 164.076 264 159.235 264H8.76522C3.92432 264 0 260.06 0 255.2V8.80025Z" fill="url(#paint0_linear_470_8049)"/>
<path d="M34.6292 45.4425C34.7273 46.0466 34.0885 46.4984 33.5549 46.2022L26.648 42.3685C26.4281 42.2464 26.1611 42.2464 25.9412 42.3685L19.0345 46.2021C18.5008 46.4983 17.862 46.0465 17.9601 45.4423L19.2967 37.216C19.334 36.9863 19.2605 36.7524 19.0986 36.5858L13.41 30.732C12.9949 30.3048 13.2348 29.5851 13.8225 29.495L21.621 28.2987C21.8618 28.2618 22.0684 28.1068 22.1719 27.8854L25.6344 20.4804C25.8973 19.9181 26.6939 19.9182 26.9568 20.4805L30.4184 27.8853C30.5219 28.1067 30.7285 28.2618 30.9693 28.2987L38.7686 29.495C39.3563 29.5851 39.5963 30.3048 39.1811 30.7321L33.4917 36.5859C33.3298 36.7524 33.2563 36.9863 33.2936 37.216L34.6292 45.4425Z" fill="white"/>
<path d="M29.8096 39.0034C29.8489 39.245 29.5933 39.4257 29.3799 39.3073L26.4366 37.6736C26.3486 37.6247 26.2418 37.6247 26.1538 37.6736L23.2106 39.3072C22.9971 39.4257 22.7416 39.245 22.7809 39.0033L23.35 35.5005C23.3649 35.4086 23.3355 35.3151 23.2707 35.2485L20.8492 32.7566C20.6832 32.5857 20.7792 32.2979 21.0142 32.2618L24.3355 31.7523C24.4318 31.7375 24.5145 31.6755 24.5559 31.587L26.0311 28.4319C26.1363 28.207 26.455 28.207 26.5601 28.4319L28.035 31.587C28.0764 31.6755 28.1591 31.7375 28.2554 31.7523L31.577 32.2618C31.8121 32.2979 31.9081 32.5857 31.742 32.7566L29.3201 35.2485C29.2554 35.3151 29.226 35.4086 29.2409 35.5005L29.8096 39.0034Z" fill="#FFC045"/>
<path d="M58.74 29.2783H61.2052C62.8597 29.2783 63.6924 28.4203 63.6924 27.1993C63.6924 26.0773 63.035 25.5603 62.1365 25.4173V25.3623C63.0021 25.1093 63.3637 24.5263 63.3637 23.7563C63.3637 22.5793 62.6844 21.8973 60.9861 21.8973H58.74V29.2783ZM59.6056 28.5523V25.8133H61.0628C62.1584 25.8133 62.772 26.1873 62.772 27.1443C62.772 28.0903 62.2132 28.5523 61.1504 28.5523H59.6056ZM59.6056 25.1203V22.6343H60.9204C61.9503 22.6343 62.4762 22.9313 62.4762 23.8553C62.4762 24.8123 61.7859 25.1203 60.8656 25.1203H59.6056Z" fill="#C8C8C8"/>
<path d="M64.7873 26.0663H68.403V25.3403H64.7873V26.0663Z" fill="#C8C8C8"/>
<path d="M69.8891 29.2783H74.0855V28.5413H70.7656V21.8973H69.8891V29.2783Z" fill="#C8C8C8"/>
<path d="M75.3113 29.2783H76.144V23.8333H75.3113V29.2783ZM75.3004 22.7333H76.155V21.8533H75.3004V22.7333Z" fill="#C8C8C8"/>
<path d="M78.0785 29.2783H78.9222V24.5263H80.1712V23.8333H78.9222V23.0963C78.9222 22.3373 79.2837 22.0293 79.9302 22.0293C80.3027 22.0293 80.5328 22.0733 80.6971 22.1063V21.5123C80.4999 21.4133 80.2041 21.3253 79.7768 21.3253C78.7907 21.3253 78.0785 21.8423 78.0785 23.0413V23.8333H77.2787V24.5263H78.0785V29.2783Z" fill="#C8C8C8"/>
<path d="M83.5375 29.3773C84.414 29.3773 85.0386 29.1023 85.3673 28.8713V28.2443C84.8742 28.4753 84.3921 28.6513 83.669 28.6513C82.5076 28.6513 81.8612 28.1234 81.8174 26.7593H85.5207V26.2864C85.5207 24.5924 84.8194 23.7233 83.3294 23.7233C82.0803 23.7233 80.9627 24.5703 80.9627 26.4733V26.6273C80.9627 28.3323 81.8283 29.3773 83.5375 29.3773ZM83.3074 24.4053C84.1949 24.4053 84.6441 24.9003 84.6441 26.0883H81.8174C81.905 24.8013 82.6281 24.4053 83.3074 24.4053Z" fill="#C8C8C8"/>
<path d="M88.9501 29.3773C89.706 29.3773 90.1881 29.1573 90.5387 28.9483V28.2663C90.2648 28.4204 89.7827 28.6513 89.0487 28.6513C87.8873 28.6513 87.3066 28.0243 87.3066 26.6273V26.3633C87.3066 25.1093 87.953 24.4383 88.9391 24.4383C89.6513 24.4383 90.0019 24.5703 90.484 24.7903V24.0863C90.1224 23.8553 89.6951 23.7233 88.9829 23.7233C87.5805 23.7233 86.441 24.5593 86.441 26.4953V26.6603C86.441 28.4533 87.3942 29.3773 88.9501 29.3773Z" fill="#C8C8C8"/>
<path d="M93.039 29.3773C93.7731 29.3773 94.2332 29.1133 94.4852 28.8053H94.54L94.6277 29.2783H95.307V25.3293C95.307 24.2183 94.6386 23.7233 93.4444 23.7233C92.8198 23.7233 92.2939 23.8223 91.8228 24.0203V24.6253C92.1625 24.5263 92.5898 24.4493 93.1157 24.4493C94.0908 24.4493 94.4633 24.6693 94.4633 25.5163V26.0883L92.9951 26.2643C91.9543 26.3853 91.3407 26.8913 91.3407 27.8483C91.3407 28.8713 92.0529 29.3773 93.039 29.3773ZM93.2471 28.7173C92.6226 28.7173 92.2172 28.4203 92.2172 27.8263C92.2172 27.1993 92.5459 26.9243 93.2143 26.8583L94.4633 26.7153V28.3213C94.2332 28.5523 93.7511 28.7173 93.2471 28.7173Z" fill="#C8C8C8"/>
<path d="M96.8812 29.2783H97.7249V24.9883C98.1083 24.7133 98.6342 24.5153 99.1821 24.5153C99.2697 24.5153 99.4341 24.5263 99.5765 24.5483V23.7893C99.5217 23.7783 99.3683 23.7673 99.2478 23.7673C98.6342 23.7673 98.0426 24.0863 97.7358 24.4383H97.681V23.8223H96.8812V29.2783Z" fill="#C8C8C8"/>
<path d="M102.904 29.3773C103.781 29.3773 104.405 29.1023 104.734 28.8713V28.2443C104.241 28.4753 103.759 28.6513 103.036 28.6513C101.874 28.6513 101.228 28.1234 101.184 26.7593H104.887V26.2864C104.887 24.5924 104.186 23.7233 102.696 23.7233C101.447 23.7233 100.329 24.5703 100.329 26.4733V26.6273C100.329 28.3323 101.195 29.3773 102.904 29.3773ZM102.674 24.4053C103.561 24.4053 104.011 24.9003 104.011 26.0883H101.184C101.272 24.8013 101.995 24.4053 102.674 24.4053Z" fill="#C8C8C8"/>
<path d="M111.962 29.3993C112.827 29.3993 113.496 29.2013 113.989 28.9153V28.1783C113.529 28.4093 112.981 28.6623 112.071 28.6623C110.384 28.6623 109.683 27.5623 109.683 25.6703V25.3073C109.683 23.3493 110.669 22.5133 112.06 22.5133C112.783 22.5133 113.331 22.6783 113.912 22.9093V22.1833C113.463 21.9413 112.893 21.7763 112.104 21.7763C110.231 21.7763 108.762 22.8104 108.762 25.4503V25.6703C108.762 28.1673 109.979 29.3993 111.962 29.3993Z" fill="#C8C8C8"/>
<path d="M117.509 29.3773C118.386 29.3773 119.01 29.1023 119.339 28.8713V28.2443C118.846 28.4753 118.364 28.6513 117.641 28.6513C116.479 28.6513 115.833 28.1234 115.789 26.7593H119.492V26.2864C119.492 24.5924 118.791 23.7233 117.301 23.7233C116.052 23.7233 114.934 24.5703 114.934 26.4733V26.6273C114.934 28.3323 115.8 29.3773 117.509 29.3773ZM117.279 24.4053C118.167 24.4053 118.616 24.9003 118.616 26.0883H115.789C115.877 24.8013 116.6 24.4053 117.279 24.4053Z" fill="#C8C8C8"/>
<path d="M120.752 29.2783H121.596V24.9883C121.979 24.7133 122.505 24.5153 123.053 24.5153C123.141 24.5153 123.305 24.5263 123.448 24.5483V23.7893C123.393 23.7783 123.239 23.7673 123.119 23.7673C122.505 23.7673 121.914 24.0863 121.607 24.4383H121.552V23.8223H120.752V29.2783Z" fill="#C8C8C8"/>
<path d="M126.356 29.3443C126.828 29.3443 127.058 29.2233 127.277 29.1243V28.5523C127.058 28.6183 126.806 28.6513 126.576 28.6513C125.951 28.6513 125.776 28.4423 125.776 27.9143V24.5263H127.167V23.8333H125.776V22.5353H124.943V23.8333H124.165V24.5263H124.943V28.0463C124.943 28.9703 125.502 29.3443 126.356 29.3443Z" fill="#C8C8C8"/>
<path d="M128.5 29.2783H129.332V23.8333H128.5V29.2783ZM128.489 22.7333H129.343V21.8533H128.489V22.7333Z" fill="#C8C8C8"/>
<path d="M131.267 29.2783H132.111V24.5263H133.36V23.8333H132.111V23.0963C132.111 22.3373 132.472 22.0293 133.119 22.0293C133.491 22.0293 133.721 22.0733 133.885 22.1063V21.5123C133.688 21.4133 133.392 21.3253 132.965 21.3253C131.979 21.3253 131.267 21.8423 131.267 23.0413V23.8333H130.467V24.5263H131.267V29.2783Z" fill="#C8C8C8"/>
<path d="M134.524 29.2783H135.356V23.8333H134.524V29.2783ZM134.513 22.7333H135.367V21.8533H134.513V22.7333Z" fill="#C8C8C8"/>
<path d="M139.142 29.3773C139.898 29.3773 140.381 29.1573 140.731 28.9483V28.2663C140.457 28.4204 139.975 28.6513 139.241 28.6513C138.08 28.6513 137.499 28.0243 137.499 26.6273V26.3633C137.499 25.1093 138.145 24.4383 139.132 24.4383C139.844 24.4383 140.194 24.5703 140.676 24.7903V24.0863C140.315 23.8553 139.888 23.7233 139.175 23.7233C137.773 23.7233 136.633 24.5593 136.633 26.4953V26.6603C136.633 28.4533 137.587 29.3773 139.142 29.3773Z" fill="#C8C8C8"/>
<path d="M143.231 29.3773C143.965 29.3773 144.426 29.1133 144.678 28.8053H144.732L144.82 29.2783H145.499V25.3293C145.499 24.2183 144.831 23.7233 143.637 23.7233C143.012 23.7233 142.486 23.8223 142.015 24.0203V24.6253C142.355 24.5263 142.782 24.4493 143.308 24.4493C144.283 24.4493 144.656 24.6693 144.656 25.5163V26.0883L143.188 26.2643C142.147 26.3853 141.533 26.8913 141.533 27.8483C141.533 28.8713 142.245 29.3773 143.231 29.3773ZM143.44 28.7173C142.815 28.7173 142.41 28.4203 142.41 27.8263C142.41 27.1993 142.738 26.9243 143.407 26.8583L144.656 26.7153V28.3213C144.426 28.5523 143.944 28.7173 143.44 28.7173Z" fill="#C8C8C8"/>
<path d="M148.794 29.3443C149.265 29.3443 149.495 29.2233 149.714 29.1243V28.5523C149.495 28.6183 149.243 28.6513 149.013 28.6513C148.388 28.6513 148.213 28.4423 148.213 27.9143V24.5263H149.605V23.8333H148.213V22.5353H147.38V23.8333H146.602V24.5263H147.38V28.0463C147.38 28.9703 147.939 29.3443 148.794 29.3443Z" fill="#C8C8C8"/>
<path d="M153.139 29.3773C154.016 29.3773 154.64 29.1023 154.969 28.8713V28.2443C154.476 28.4753 153.994 28.6513 153.271 28.6513C152.109 28.6513 151.463 28.1234 151.419 26.7593H155.122V26.2864C155.122 24.5924 154.421 23.7233 152.931 23.7233C151.682 23.7233 150.564 24.5703 150.564 26.4733V26.6273C150.564 28.3323 151.43 29.3773 153.139 29.3773ZM152.909 24.4053C153.797 24.4053 154.246 24.9003 154.246 26.0883H151.419C151.507 24.8013 152.23 24.4053 152.909 24.4053Z" fill="#C8C8C8"/>
<path d="M72.8491 48.9295C76.4866 48.9295 78.2178 47.1475 78.2178 44.2875C78.2178 41.6035 76.7934 40.6135 74.4268 39.9315L73.0244 39.4915C71.5343 39.0735 71.096 38.5675 71.096 37.3795C71.096 36.1695 71.9726 35.5095 73.5503 35.5095C75.2157 35.5095 76.4428 35.8615 77.3851 36.2575V34.1455C76.5524 33.7055 75.4786 33.3315 73.5065 33.3315C70.11 33.3315 68.4665 35.0695 68.4665 37.6215C68.4665 40.1735 69.7593 41.3175 71.8849 41.9115L73.3093 42.3075C74.9527 42.8135 75.5006 43.2975 75.5006 44.5515C75.5006 45.9155 74.646 46.7515 72.63 46.7515C70.9865 46.7515 69.5621 46.3555 68.3569 45.8275V47.9615C69.3868 48.5115 70.8769 48.9295 72.8491 48.9295Z" fill="#EFEFEF"/>
<path d="M84.5118 48.7975C85.5636 48.7975 86.1772 48.5555 86.6154 48.3355V46.6415C86.221 46.7515 85.7608 46.8175 85.3226 46.8175C84.1393 46.8175 83.7887 46.4655 83.7887 45.5195V39.3155H86.484V37.3355H83.7887V34.6735H81.3125V37.3355H79.7347V39.3155H81.3125V45.8715C81.3125 48.0055 82.5615 48.7975 84.5118 48.7975Z" fill="#EFEFEF"/>
<path d="M91.7421 48.8635C93.2102 48.8635 94.1087 48.3795 94.6565 47.7415H94.788L94.9852 48.6655H97.0669V40.5255C97.0669 38.1715 95.5549 37.1595 92.9473 37.1595C91.4791 37.1595 90.2739 37.3575 89.2221 37.7755V39.5135C89.9014 39.3595 90.8655 39.2055 91.9612 39.2055C93.8676 39.2055 94.5469 39.5575 94.5469 41.0975V41.9555L91.8955 42.2635C89.6603 42.5935 88.2798 43.5615 88.2798 45.6515C88.2798 47.8295 89.7042 48.8635 91.7421 48.8635ZM92.509 47.0815C91.4791 47.0815 90.756 46.5975 90.756 45.5195C90.756 44.3755 91.3476 43.9135 92.4652 43.8255L94.5469 43.6055V46.3995C94.1306 46.7955 93.3198 47.0815 92.509 47.0815Z" fill="#EFEFEF"/>
<path d="M100 48.6655H102.52V39.8655C103.2 39.5355 104.186 39.2495 105.062 39.2495C106.596 39.2495 106.969 39.7115 106.969 40.8555V48.6655H109.51V40.2615C109.51 38.0175 108.393 37.1375 106.224 37.1375C104.865 37.1375 103.484 37.6435 102.52 38.3475H102.433V37.3355H100V48.6655Z" fill="#EFEFEF"/>
<path d="M116.443 48.8635C117.89 48.8635 118.941 48.4235 119.643 47.7635H119.73L119.949 48.6655H122.097V32.5835H119.599V37.7755C119.073 37.4895 118.218 37.1375 116.904 37.1375C113.967 37.1375 111.864 38.8975 111.864 43.0555V43.3415C111.864 47.4335 114.208 48.8635 116.443 48.8635ZM117.32 46.9055C115.611 46.9055 114.449 46.0475 114.449 43.2315V42.8135C114.449 40.0195 115.545 39.0955 117.298 39.0955C118.306 39.0955 119.183 39.3595 119.599 39.6895V46.1355C119.161 46.4655 118.372 46.9055 117.32 46.9055Z" fill="#EFEFEF"/>
<path d="M127.907 48.8635C129.375 48.8635 130.274 48.3795 130.822 47.7415H130.953L131.15 48.6655H133.232V40.5255C133.232 38.1715 131.72 37.1595 129.112 37.1595C127.644 37.1595 126.439 37.3575 125.387 37.7755V39.5135C126.066 39.3595 127.031 39.2055 128.126 39.2055C130.033 39.2055 130.712 39.5575 130.712 41.0975V41.9555L128.061 42.2635C125.825 42.5935 124.445 43.5615 124.445 45.6515C124.445 47.8295 125.869 48.8635 127.907 48.8635ZM128.674 47.0815C127.644 47.0815 126.921 46.5975 126.921 45.5195C126.921 44.3755 127.513 43.9135 128.63 43.8255L130.712 43.6055V46.3995C130.296 46.7955 129.485 47.0815 128.674 47.0815Z" fill="#EFEFEF"/>
<path d="M136.165 48.6655H138.685V40.2395C139.408 39.7775 140.416 39.4915 141.424 39.4915C141.687 39.4915 142.06 39.5135 142.345 39.5575V37.3135C142.235 37.2695 141.95 37.2475 141.644 37.2475C140.46 37.2475 139.299 37.8415 138.685 38.6555H138.598V37.3355H136.165V48.6655Z" fill="#EFEFEF"/>
<path d="M148.436 48.8635C149.882 48.8635 150.934 48.4235 151.635 47.7635H151.723L151.942 48.6655H154.089V32.5835H151.591V37.7755C151.065 37.4895 150.211 37.1375 148.896 37.1375C145.959 37.1375 143.856 38.8975 143.856 43.0555V43.3415C143.856 47.4335 146.2 48.8635 148.436 48.8635ZM149.312 46.9055C147.603 46.9055 146.441 46.0475 146.441 43.2315V42.8135C146.441 40.0195 147.537 39.0955 149.29 39.0955C150.298 39.0955 151.175 39.3595 151.591 39.6895V46.1355C151.153 46.4655 150.364 46.9055 149.312 46.9055Z" fill="#EFEFEF"/>
<path d="M19.8123 174.38C18.7583 173.903 17.7707 172.797 17.7707 171.195V170.995H19.6034V170.309H15.055V170.995H16.9066V171.205C16.9066 172.807 15.9096 174.017 14.7606 174.608L15.3019 175.219C16.223 174.732 17.1155 173.684 17.3434 172.807C17.5998 173.665 18.4924 174.599 19.3185 175.018L19.8123 174.38ZM22.68 172.435V171.729H21.3791V168.335H20.5435V176.668H21.3791V172.435H22.68ZM18.5494 169.556V168.86H16.0995V169.556H18.5494Z" fill="#EFEFEF"/>
<path d="M29.69 175.104C29.69 174.151 28.712 173.55 26.9173 173.55C25.1131 173.55 24.1446 174.141 24.1446 175.104C24.1446 176.057 25.1131 176.649 26.9173 176.649C28.712 176.649 29.69 176.057 29.69 175.104ZM28.0663 172.721L27.9523 172.044C27.0787 172.235 25.4929 172.311 24.5054 172.311H24.344V171.195H27.2022V168.86H23.4799V169.537H26.357V170.528H23.4989V172.997H24.4864C25.6354 172.997 27.2591 172.883 28.0663 172.721ZM30.8295 171.377H29.5951V170.271H30.8295V169.584H29.5951V168.335H28.7499V173.388H29.5951V172.073H30.8295V171.377ZM26.9173 174.237C28.1137 174.237 28.8354 174.561 28.8354 175.104C28.8354 175.638 28.1137 175.962 26.9173 175.962C25.7113 175.962 24.9992 175.628 24.9992 175.104C24.9992 174.57 25.7113 174.237 26.9173 174.237Z" fill="#EFEFEF"/>
<path d="M38.2478 176.668V168.335H37.4027V176.668H38.2478ZM31.6958 171.901C31.6958 173.56 32.3605 174.856 33.8323 174.856C35.3042 174.856 35.9594 173.56 35.9594 171.91C35.9594 170.252 35.3042 168.965 33.8323 168.965C32.3605 168.965 31.6958 170.252 31.6958 171.901ZM35.1238 171.91C35.1238 173.197 34.687 174.122 33.8323 174.122C32.9872 174.122 32.5504 173.197 32.5504 171.91C32.5504 170.623 32.9872 169.689 33.8323 169.689C34.687 169.689 35.1238 170.623 35.1238 171.91Z" fill="#EFEFEF"/>
<path d="M46.3498 172.034V171.377H41.4026V170.671H46.1694V168.688H40.5575V169.336H45.3243V170.042H40.5575V172.034H46.3498ZM47.1095 173.321V172.645H39.6174V173.321H47.1095ZM46.2074 176.544V174.036H40.51V176.544H46.2074ZM45.3718 175.895H41.3456V174.694H45.3718V175.895Z" fill="#EFEFEF"/>
<path d="M19.8123 191.246C18.7583 190.77 17.7707 189.664 17.7707 188.062V187.862H19.6034V187.176H15.055V187.862H16.9066V188.072C16.9066 189.673 15.9096 190.884 14.7606 191.475L15.3019 192.085C16.223 191.599 17.1155 190.55 17.3434 189.673C17.5998 190.531 18.4924 191.466 19.3185 191.885L19.8123 191.246ZM22.68 189.301V188.596H21.3791V185.202H20.5435V193.534H21.3791V189.301H22.68ZM18.5494 186.422V185.726H16.0995V186.422H18.5494Z" fill="#EFEFEF"/>
<path d="M29.69 191.971C29.69 191.017 28.712 190.417 26.9173 190.417C25.1131 190.417 24.1446 191.008 24.1446 191.971C24.1446 192.924 25.1131 193.515 26.9173 193.515C28.712 193.515 29.69 192.924 29.69 191.971ZM28.0663 189.587L27.9523 188.911C27.0787 189.101 25.4929 189.178 24.5054 189.178H24.344V188.062H27.2022V185.726H23.4799V186.403H26.357V187.395H23.4989V189.864H24.4864C25.6354 189.864 27.2591 189.749 28.0663 189.587ZM30.8295 188.243H29.5951V187.137H30.8295V186.451H29.5951V185.202H28.7499V190.255H29.5951V188.939H30.8295V188.243ZM26.9173 191.103C28.1137 191.103 28.8354 191.427 28.8354 191.971C28.8354 192.505 28.1137 192.829 26.9173 192.829C25.7113 192.829 24.9992 192.495 24.9992 191.971C24.9992 191.437 25.7113 191.103 26.9173 191.103Z" fill="#EFEFEF"/>
<path d="M35.5985 189.997V185.746H34.7629V187.252H32.5789V185.755H31.7338V189.997H35.5985ZM34.7629 189.311H32.5789V187.938H34.7629V189.311ZM37.3647 188.224V191.275H38.2098V185.202H37.3647V187.528H36.0733V188.224H37.3647ZM38.3998 193.277V192.6H33.6614V190.712H32.8258V193.277H38.3998Z" fill="#EFEFEF"/>
<path d="M46.0555 189.406C46.0555 188.482 45.0015 187.938 43.3777 187.938C41.7444 187.938 40.6809 188.482 40.6809 189.406C40.6809 190.236 41.5545 190.751 42.9314 190.836V191.875H39.6174V192.552H47.1095V191.875H43.7765V190.846C45.1724 190.77 46.0555 190.245 46.0555 189.406ZM45.1629 189.406C45.1629 189.95 44.3178 190.198 43.3777 190.198C42.4376 190.198 41.5735 189.95 41.5735 189.406C41.5735 188.853 42.4376 188.596 43.3777 188.596C44.3083 188.596 45.1629 188.853 45.1629 189.406ZM46.7392 187.566V186.89H39.9783V187.566H46.7392ZM44.84 186.27V185.583H41.8679V186.27H44.84Z" fill="#EFEFEF"/>
<path d="M22.6135 204.576V203.88H21.3791V202.069H20.534V206.378H21.3791V204.576H22.6135ZM21.6735 210.344V209.657H16.9351V208.857H21.3791V206.826H16.033V207.512H20.534V208.218H16.0995V210.344H21.6735ZM19.1571 206.101V202.383H18.3215V203.556H16.071V202.393H15.2354V206.101H19.1571ZM18.3215 205.425H16.071V204.233H18.3215V205.425Z" fill="#EFEFEF"/>
<path d="M29.709 210.287V206.855H28.8639V207.894H24.9707V206.874H24.1256V210.287H29.709ZM29.6805 202.45H24.1541V203.127H28.8259C28.8259 203.756 28.731 204.862 28.598 205.482H23.176V206.178H30.6681V205.482H29.4146C29.5856 204.652 29.6805 203.527 29.6805 202.45ZM28.8639 209.61H24.9707V208.561H28.8639V209.61Z" fill="#EFEFEF"/>
<path d="M38.2098 206.311V202.069H37.3647V206.311H38.2098ZM38.5042 210.344V209.648H33.6519V208.828H38.2098V206.74H32.7878V207.427H37.3647V208.199H32.8163V210.344H38.5042ZM33.7564 202.345C32.5599 202.345 31.6294 203.137 31.6294 204.252C31.6294 205.386 32.5884 206.092 33.7564 206.092C34.9433 206.092 35.8739 205.358 35.8739 204.242C35.8739 203.117 34.9433 202.345 33.7564 202.345ZM33.7564 203.07C34.5445 203.07 35.0478 203.556 35.0478 204.242C35.0478 204.891 34.535 205.386 33.7564 205.386C33.0157 205.386 32.4555 204.919 32.4555 204.242C32.4555 203.556 33.0347 203.07 33.7564 203.07Z" fill="#EFEFEF"/>
<path d="M44.5077 207.836C43.3302 207.179 42.4281 205.92 42.4281 204.309V203.632H44.2608V202.936H39.6934V203.632H41.564V204.319C41.564 205.901 40.6619 207.312 39.38 208.046L39.9213 208.666C40.9183 208.046 41.7444 206.978 42.0008 206.035C42.2667 206.959 43.2068 207.999 44.0139 208.456L44.5077 207.836ZM47.3279 206.101V205.396H46.027V202.069H45.1914V210.401H46.027V206.101H47.3279Z" fill="#EFEFEF"/>
<path d="M21.6545 221.138C21.6545 220.07 20.5245 219.326 18.7108 219.326C16.8971 219.326 15.7767 220.07 15.7767 221.138C15.7767 222.215 16.8971 222.968 18.7108 222.968C20.5245 222.968 21.6545 222.215 21.6545 221.138ZM17.6853 227.268V224.369H19.7174V227.268H20.553V224.369H22.4616V223.674H14.9695V224.369H16.8497V227.268H17.6853ZM18.7108 220.041C19.9832 220.041 20.7809 220.499 20.7809 221.138C20.7809 221.795 19.9832 222.244 18.7108 222.244C17.4384 222.244 16.6408 221.795 16.6408 221.138C16.6408 220.499 17.4384 220.041 18.7108 220.041Z" fill="#EFEFEF"/>
<path d="M29.5286 222.978C29.5286 222.072 28.5031 221.557 26.9363 221.557C25.379 221.557 24.3535 222.072 24.3535 222.978C24.3535 223.874 25.379 224.398 26.9363 224.398C28.5031 224.398 29.5286 223.874 29.5286 222.978ZM30.6776 226.257V225.58H28.7594V224.57H27.9428V225.58H25.9013V224.57H25.0846V225.58H23.1855V226.257H30.6776ZM30.2123 221.281V220.604H23.6413V221.281H30.2123ZM28.6835 222.978C28.6835 223.511 27.8384 223.75 26.9363 223.75C26.0342 223.75 25.1891 223.511 25.1891 222.978C25.1891 222.444 26.0342 222.196 26.9363 222.196C27.8384 222.196 28.6835 222.444 28.6835 222.978ZM28.3701 219.984V219.298H25.4834V219.984H28.3701Z" fill="#EFEFEF"/>
<path d="M38.2098 227.268V218.935H37.3647V227.268H38.2098ZM35.779 219.822H31.7813V220.537H34.8674C34.7154 222.329 33.3671 224.074 31.411 225.018L31.9237 225.656C34.1932 224.417 35.7315 222.472 35.779 219.822Z" fill="#EFEFEF"/>
<path d="M47.2709 222.177V221.471H46.027V218.935H45.1819V225.075H46.027V222.177H47.2709ZM46.2739 227.048V226.362H41.621V224.436H40.7854V227.048H46.2739ZM39.9403 219.612V220.308H42.7795C42.5516 221.767 41.2317 223.054 39.513 223.473L39.9403 224.16C42.1148 223.521 43.6341 221.881 43.7006 219.612H39.9403Z" fill="#EFEFEF"/>
<path d="M22.6135 238.309V237.613H21.3791V235.802H20.534V240.111H21.3791V238.309H22.6135ZM21.6735 244.077V243.391H16.9351V242.59H21.3791V240.559H16.033V241.246H20.534V241.951H16.0995V244.077H21.6735ZM19.1571 239.835V236.117H18.3215V237.289H16.071V236.126H15.2354V239.835H19.1571ZM18.3215 239.158H16.071V237.966H18.3215V239.158Z" fill="#EFEFEF"/>
<path d="M29.709 244.02V240.588H28.8639V241.627H24.9707V240.607H24.1256V244.02H29.709ZM29.6805 236.183H24.1541V236.86H28.8259C28.8259 237.49 28.731 238.595 28.598 239.215H23.176V239.911H30.6681V239.215H29.4146C29.5856 238.386 29.6805 237.261 29.6805 236.183ZM28.8639 243.343H24.9707V242.294H28.8639V243.343Z" fill="#EFEFEF"/>
<path d="M35.5985 240.597V236.346H34.7629V237.852H32.5789V236.355H31.7338V240.597H35.5985ZM34.7629 239.911H32.5789V238.538H34.7629V239.911ZM37.3647 238.824V241.875H38.2098V235.802H37.3647V238.128H36.0733V238.824H37.3647ZM38.3998 243.877V243.2H33.6614V241.312H32.8258V243.877H38.3998Z" fill="#EFEFEF"/>
<path d="M46.0555 240.006C46.0555 239.082 45.0015 238.538 43.3777 238.538C41.7444 238.538 40.6809 239.082 40.6809 240.006C40.6809 240.836 41.5545 241.351 42.9314 241.436V242.475H39.6174V243.152H47.1095V242.475H43.7765V241.446C45.1724 241.37 46.0555 240.845 46.0555 240.006ZM45.1629 240.006C45.1629 240.55 44.3178 240.798 43.3777 240.798C42.4376 240.798 41.5735 240.55 41.5735 240.006C41.5735 239.453 42.4376 239.196 43.3777 239.196C44.3083 239.196 45.1629 239.453 45.1629 240.006ZM46.7392 238.166V237.49H39.9783V238.166H46.7392ZM44.84 236.87V236.183H41.8679V236.87H44.84Z" fill="#EFEFEF"/>
<path d="M56.9951 175.6H57.7358V169.842H59.6824V169.203H55.0485V169.842H56.9951V175.6Z" fill="#C8C8C8"/>
<path d="M61.0666 175.686C61.7028 175.686 62.1016 175.457 62.32 175.19H62.3675L62.4434 175.6H63.0322V172.177C63.0322 171.215 62.4529 170.786 61.4179 170.786C60.8767 170.786 60.4209 170.871 60.0126 171.043V171.567C60.3069 171.481 60.6773 171.415 61.133 171.415C61.9782 171.415 62.301 171.605 62.301 172.339V172.835L61.0286 172.988C60.1265 173.093 59.5948 173.531 59.5948 174.361C59.5948 175.247 60.212 175.686 61.0666 175.686ZM61.247 175.114C60.7057 175.114 60.3544 174.856 60.3544 174.341C60.3544 173.798 60.6393 173.56 61.2185 173.503L62.301 173.379V174.77C62.1016 174.971 61.6838 175.114 61.247 175.114Z" fill="#C8C8C8"/>
<path d="M64.7573 177.02C65.536 177.02 65.9253 176.734 66.2387 175.895L68.0903 170.871H67.3592L66.0867 174.465H66.0677L64.6814 170.871H63.9027L65.7069 175.428L65.5645 175.819C65.3651 176.334 65.0802 176.41 64.6244 176.41C64.4535 176.41 64.2826 176.363 64.1686 176.343V176.887C64.3016 176.954 64.5389 177.02 64.7573 177.02Z" fill="#C8C8C8"/>
<path d="M70.8576 175.686C71.5128 175.686 71.9306 175.495 72.2344 175.314V174.723C71.997 174.856 71.5792 175.056 70.943 175.056C69.9365 175.056 69.4332 174.513 69.4332 173.302V173.074C69.4332 171.987 69.9935 171.405 70.8481 171.405C71.4653 171.405 71.7691 171.52 72.187 171.71V171.1C71.8736 170.9 71.5033 170.786 70.886 170.786C69.6706 170.786 68.6831 171.51 68.6831 173.188V173.331C68.6831 174.885 69.5092 175.686 70.8576 175.686Z" fill="#C8C8C8"/>
<path d="M74.4013 175.686C75.0375 175.686 75.4363 175.457 75.6547 175.19H75.7022L75.7782 175.6H76.3669V172.177C76.3669 171.215 75.7877 170.786 74.7526 170.786C74.2114 170.786 73.7556 170.871 73.3473 171.043V171.567C73.6416 171.481 74.012 171.415 74.4678 171.415C75.3129 171.415 75.6357 171.605 75.6357 172.339V172.835L74.3633 172.988C73.4612 173.093 72.9295 173.531 72.9295 174.361C72.9295 175.247 73.5467 175.686 74.4013 175.686ZM74.5817 175.114C74.0405 175.114 73.6891 174.856 73.6891 174.341C73.6891 173.798 73.974 173.56 74.5532 173.503L75.6357 173.379V174.77C75.4363 174.971 75.0185 175.114 74.5817 175.114Z" fill="#C8C8C8"/>
<path d="M77.7312 175.6H78.4529V171.758C78.8422 171.577 79.336 171.415 79.7823 171.415C80.5324 171.415 80.7318 171.653 80.7318 172.225V175.6H81.4535V172.073C81.4535 171.157 81.0072 170.786 80.0861 170.786C79.5069 170.786 78.8992 170.995 78.4624 171.281H78.4244V170.871H77.7312V175.6Z" fill="#C8C8C8"/>
<path d="M56.4823 192.505H57.204V185.965H56.8052L55.3049 186.67V187.109L56.4823 186.832V192.505Z" fill="#C8C8C8"/>
<path d="M58.7653 192.467H62.725V191.818H59.8193L60.8164 190.808C61.9178 189.683 62.5825 188.92 62.5825 187.814C62.5825 186.67 61.8894 185.955 60.6075 185.955C59.8858 185.955 59.2401 186.279 58.8413 186.537L59.0597 187.137C59.43 186.88 59.9427 186.613 60.484 186.613C61.3861 186.613 61.7944 187.033 61.7944 187.881C61.7944 188.796 61.1867 189.492 60.2846 190.436L58.7653 192.018V192.467Z" fill="#C8C8C8"/>
<path d="M69.9816 185.202H69.2599V193.534H69.9816V189.292H71.3395V188.672H69.9816V185.202ZM67.8261 186.098H63.9234V186.708H67.0474C66.8955 188.586 65.7085 190.341 63.6385 191.303L64.0848 191.875C66.2213 190.76 67.7786 188.806 67.8261 186.098Z" fill="#C8C8C8"/>
<path d="M73.1554 192.505H73.877V185.965H73.4782L71.9779 186.67V187.109L73.1554 186.832V192.505Z" fill="#C8C8C8"/>
<path d="M75.4383 192.467H79.398V191.818H76.4923L77.4894 190.808C78.5909 189.683 79.2556 188.92 79.2556 187.814C79.2556 186.67 78.5624 185.955 77.2805 185.955C76.5588 185.955 75.9131 186.279 75.5143 186.537L75.7327 187.137C76.103 186.88 76.6158 186.613 77.157 186.613C78.0591 186.613 78.4674 187.033 78.4674 187.881C78.4674 188.796 77.8597 189.492 76.9576 190.436L75.4383 192.018V192.467Z" fill="#C8C8C8"/>
<path d="M82.1252 192.562C83.54 192.562 84.4421 191.78 84.4421 190.665C84.4421 189.673 83.8154 189.206 82.9893 189.044C83.711 188.806 84.2047 188.339 84.2047 187.547C84.2047 186.546 83.4261 185.965 82.2866 185.965C81.7359 185.965 80.9857 186.203 80.6059 186.461L80.7198 187.071C81.1187 186.842 81.6124 186.613 82.1347 186.613C82.9133 186.613 83.4166 186.89 83.4166 187.671C83.4166 188.386 82.8564 188.806 82.0302 188.806H81.4605V189.454H82.0777C83.0463 189.454 83.673 189.845 83.673 190.665C83.673 191.456 83.0843 191.923 82.0302 191.923C81.5555 191.923 80.9192 191.742 80.5584 191.504L80.397 192.104C80.7483 192.352 81.3845 192.562 82.1252 192.562Z" fill="#C8C8C8"/>
<path d="M88.2891 192.619H88.9823V191.122H90.0458V190.503H88.9823V185.984H88.3936L85.279 190.55V191.122H88.2891V192.619ZM86.0861 190.503L88.2891 187.185V190.503H86.0861Z" fill="#C8C8C8"/>
<path d="M55.3713 209.333H59.331V208.685H56.4254L57.4224 207.674C58.5239 206.549 59.1886 205.787 59.1886 204.681C59.1886 203.537 58.4954 202.822 57.2135 202.822C56.4918 202.822 55.8461 203.146 55.4473 203.403L55.6657 204.004C56.036 203.747 56.5488 203.48 57.09 203.48C57.9921 203.48 58.4005 203.899 58.4005 204.748C58.4005 205.663 57.7927 206.359 56.8906 207.303L55.3713 208.885V209.333Z" fill="#C8C8C8"/>
<path d="M62.8 209.448C64.0914 209.448 65.0789 208.561 65.0789 206.397V205.815C65.0789 203.594 64.0534 202.831 62.8095 202.831C61.5561 202.831 60.4641 203.594 60.4641 205.854V206.387C60.4641 208.551 61.4896 209.448 62.8 209.448ZM62.8 208.818C61.8029 208.818 61.2712 208.056 61.2712 206.464V205.758C61.2712 204.157 61.8124 203.461 62.8095 203.461C63.7875 203.461 64.3098 204.195 64.3098 205.806V206.511C64.3098 208.151 63.778 208.818 62.8 208.818Z" fill="#C8C8C8"/>
<path d="M66.2209 209.333H70.1805V208.685H67.2749L68.2719 207.674C69.3734 206.549 70.0381 205.787 70.0381 204.681C70.0381 203.537 69.3449 202.822 68.063 202.822C67.3414 202.822 66.6956 203.146 66.2968 203.403L66.5152 204.004C66.8856 203.747 67.3983 203.48 67.9396 203.48C68.8417 203.48 69.25 203.899 69.25 204.748C69.25 205.663 68.6423 206.359 67.7402 207.303L66.2209 208.885V209.333Z" fill="#C8C8C8"/>
<path d="M72.395 209.371H73.1166V202.831H72.7178L71.2175 203.537V203.975L72.395 203.699V209.371Z" fill="#C8C8C8"/>
<path d="M74.488 209.572H75.3141V208.723H74.488V209.572Z" fill="#C8C8C8"/>
<path d="M77.931 209.371H78.6527V202.831H78.2539L76.7535 203.537V203.975L77.931 203.699V209.371Z" fill="#C8C8C8"/>
<path d="M81.325 209.371H82.0466V202.831H81.6478L80.1475 203.537V203.975L81.325 203.699V209.371Z" fill="#C8C8C8"/>
<path d="M83.418 209.572H84.2441V208.723H83.418V209.572Z" fill="#C8C8C8"/>
<path d="M87.3738 209.429C88.7886 209.429 89.6907 208.647 89.6907 207.531C89.6907 206.54 89.064 206.073 88.2379 205.911C88.9595 205.672 89.4533 205.205 89.4533 204.414C89.4533 203.413 88.6747 202.831 87.5352 202.831C86.9844 202.831 86.2343 203.07 85.8545 203.327L85.9684 203.937C86.3672 203.709 86.861 203.48 87.3833 203.48C88.1619 203.48 88.6652 203.756 88.6652 204.538C88.6652 205.253 88.1049 205.672 87.2788 205.672H86.7091V206.321H87.3263C88.2948 206.321 88.9216 206.712 88.9216 207.531C88.9216 208.323 88.3328 208.79 87.2788 208.79C86.804 208.79 86.1678 208.609 85.807 208.37L85.6456 208.971C85.9969 209.219 86.6331 209.429 87.3738 209.429Z" fill="#C8C8C8"/>
<path d="M93.2528 209.448C94.5442 209.448 95.5318 208.561 95.5318 206.397V205.815C95.5318 203.594 94.5063 202.831 93.2623 202.831C92.0089 202.831 90.9169 203.594 90.9169 205.854V206.387C90.9169 208.551 91.9424 209.448 93.2528 209.448ZM93.2528 208.818C92.2558 208.818 91.724 208.056 91.724 206.464V205.758C91.724 204.157 92.2653 203.461 93.2623 203.461C94.2404 203.461 94.7626 204.195 94.7626 205.806V206.511C94.7626 208.151 94.2309 208.818 93.2528 208.818Z" fill="#C8C8C8"/>
<path d="M55.3713 226.2H59.331V225.552H56.4254L57.4224 224.541C58.5239 223.416 59.1886 222.653 59.1886 221.548C59.1886 220.404 58.4954 219.689 57.2135 219.689C56.4918 219.689 55.8461 220.013 55.4473 220.27L55.6657 220.871C56.036 220.613 56.5488 220.346 57.09 220.346C57.9921 220.346 58.4005 220.766 58.4005 221.614C58.4005 222.53 57.7927 223.225 56.8906 224.169L55.3713 225.752V226.2Z" fill="#C8C8C8"/>
<path d="M62.8 226.314C64.0914 226.314 65.0789 225.428 65.0789 223.264V222.682C65.0789 220.461 64.0534 219.698 62.8095 219.698C61.5561 219.698 60.4641 220.461 60.4641 222.72V223.254C60.4641 225.418 61.4896 226.314 62.8 226.314ZM62.8 225.685C61.8029 225.685 61.2712 224.922 61.2712 223.33V222.625C61.2712 221.023 61.8124 220.327 62.8095 220.327C63.7875 220.327 64.3098 221.061 64.3098 222.673V223.378C64.3098 225.018 63.778 225.685 62.8 225.685Z" fill="#C8C8C8"/>
<path d="M66.2209 226.2H70.1805V225.552H67.2749L68.2719 224.541C69.3734 223.416 70.0381 222.653 70.0381 221.548C70.0381 220.404 69.3449 219.689 68.063 219.689C67.3414 219.689 66.6956 220.013 66.2968 220.27L66.5152 220.871C66.8856 220.613 67.3983 220.346 67.9396 220.346C68.8417 220.346 69.25 220.766 69.25 221.614C69.25 222.53 68.6423 223.225 67.7402 224.169L66.2209 225.752V226.2Z" fill="#C8C8C8"/>
<path d="M72.395 226.238H73.1166V219.698H72.7178L71.2175 220.404V220.842L72.395 220.566V226.238Z" fill="#C8C8C8"/>
<path d="M74.488 226.438H75.3141V225.59H74.488V226.438Z" fill="#C8C8C8"/>
<path d="M77.931 226.238H78.6527V219.698H78.2539L76.7535 220.404V220.842L77.931 220.566V226.238Z" fill="#C8C8C8"/>
<path d="M81.325 226.238H82.0466V219.698H81.6478L80.1475 220.404V220.842L81.325 220.566V226.238Z" fill="#C8C8C8"/>
<path d="M83.418 226.438H84.2441V225.59H83.418V226.438Z" fill="#C8C8C8"/>
<path d="M87.3738 226.295C88.7886 226.295 89.6907 225.513 89.6907 224.398C89.6907 223.407 89.064 222.939 88.2379 222.777C88.9595 222.539 89.4533 222.072 89.4533 221.281C89.4533 220.28 88.6747 219.698 87.5352 219.698C86.9844 219.698 86.2343 219.936 85.8545 220.194L85.9684 220.804C86.3672 220.575 86.861 220.346 87.3833 220.346C88.1619 220.346 88.6652 220.623 88.6652 221.405C88.6652 222.12 88.1049 222.539 87.2788 222.539H86.7091V223.187H87.3263C88.2948 223.187 88.9216 223.578 88.9216 224.398C88.9216 225.189 88.3328 225.656 87.2788 225.656C86.804 225.656 86.1678 225.475 85.807 225.237L85.6456 225.838C85.9969 226.085 86.6331 226.295 87.3738 226.295Z" fill="#C8C8C8"/>
<path d="M93.2528 226.314C94.5442 226.314 95.5318 225.428 95.5318 223.264V222.682C95.5318 220.461 94.5063 219.698 93.2623 219.698C92.0089 219.698 90.9169 220.461 90.9169 222.72V223.254C90.9169 225.418 91.9424 226.314 93.2528 226.314ZM93.2528 225.685C92.2558 225.685 91.724 224.922 91.724 223.33V222.625C91.724 221.023 92.2653 220.327 93.2623 220.327C94.2404 220.327 94.7626 221.061 94.7626 222.673V223.378C94.7626 225.018 94.2309 225.685 93.2528 225.685Z" fill="#C8C8C8"/>
<path d="M101.463 222.806C101.206 222.596 100.855 222.329 100.485 222.329C99.9148 222.329 99.4305 222.663 99.2121 223.645L99.7723 223.836C99.9148 223.321 100.086 222.997 100.409 222.997C100.674 222.997 100.855 223.14 101.149 223.397C101.178 223.426 101.197 223.464 101.235 223.492C101.577 223.759 101.899 223.931 102.27 223.931C102.735 223.931 103.343 223.511 103.485 222.596L102.925 222.434C102.849 222.93 102.631 223.264 102.308 223.264C101.994 223.264 101.776 223.073 101.463 222.806Z" fill="#C8C8C8"/>
<path d="M106.874 226.2H110.834V225.552H107.928L108.925 224.541C110.027 223.416 110.691 222.653 110.691 221.548C110.691 220.404 109.998 219.689 108.716 219.689C107.995 219.689 107.349 220.013 106.95 220.27L107.168 220.871C107.539 220.613 108.052 220.346 108.593 220.346C109.495 220.346 109.903 220.766 109.903 221.614C109.903 222.53 109.296 223.225 108.393 224.169L106.874 225.752V226.2Z" fill="#C8C8C8"/>
<path d="M114.303 226.314C115.594 226.314 116.582 225.428 116.582 223.264V222.682C116.582 220.461 115.556 219.698 114.312 219.698C113.059 219.698 111.967 220.461 111.967 222.72V223.254C111.967 225.418 112.992 226.314 114.303 226.314ZM114.303 225.685C113.306 225.685 112.774 224.922 112.774 223.33V222.625C112.774 221.023 113.315 220.327 114.312 220.327C115.29 220.327 115.813 221.061 115.813 222.673V223.378C115.813 225.018 115.281 225.685 114.303 225.685Z" fill="#C8C8C8"/>
<path d="M117.724 226.2H121.683V225.552H118.778L119.775 224.541C120.876 223.416 121.541 222.653 121.541 221.548C121.541 220.404 120.848 219.689 119.566 219.689C118.844 219.689 118.198 220.013 117.8 220.27L118.018 220.871C118.388 220.613 118.901 220.346 119.442 220.346C120.344 220.346 120.753 220.766 120.753 221.614C120.753 222.53 120.145 223.225 119.243 224.169L117.724 225.752V226.2Z" fill="#C8C8C8"/>
<path d="M122.787 226.2H126.746V225.552H123.841L124.838 224.541C125.939 223.416 126.604 222.653 126.604 221.548C126.604 220.404 125.911 219.689 124.629 219.689C123.907 219.689 123.262 220.013 122.863 220.27L123.081 220.871C123.451 220.613 123.964 220.346 124.505 220.346C125.408 220.346 125.816 220.766 125.816 221.614C125.816 222.53 125.208 223.225 124.306 224.169L122.787 225.752V226.2Z" fill="#C8C8C8"/>
<path d="M127.66 226.438H128.486V225.59H127.66V226.438Z" fill="#C8C8C8"/>
<path d="M131.103 226.238H131.825V219.698H131.426L129.925 220.404V220.842L131.103 220.566V226.238Z" fill="#C8C8C8"/>
<path d="M133.386 226.2H137.346V225.552H134.44L135.437 224.541C136.538 223.416 137.203 222.653 137.203 221.548C137.203 220.404 136.51 219.689 135.228 219.689C134.506 219.689 133.861 220.013 133.462 220.27L133.68 220.871C134.051 220.613 134.563 220.346 135.105 220.346C136.007 220.346 136.415 220.766 136.415 221.614C136.415 222.53 135.807 223.225 134.905 224.169L133.386 225.752V226.2Z" fill="#C8C8C8"/>
<path d="M138.259 226.438H139.085V225.59H138.259V226.438Z" fill="#C8C8C8"/>
<path d="M142.215 226.295C143.63 226.295 144.532 225.513 144.532 224.398C144.532 223.407 143.905 222.939 143.079 222.777C143.801 222.539 144.294 222.072 144.294 221.281C144.294 220.28 143.516 219.698 142.376 219.698C141.826 219.698 141.075 219.936 140.696 220.194L140.81 220.804C141.208 220.575 141.702 220.346 142.224 220.346C143.003 220.346 143.506 220.623 143.506 221.405C143.506 222.12 142.946 222.539 142.12 222.539H141.55V223.187H142.167C143.136 223.187 143.763 223.578 143.763 224.398C143.763 225.189 143.174 225.656 142.12 225.656C141.645 225.656 141.009 225.475 140.648 225.237L140.487 225.838C140.838 226.085 141.474 226.295 142.215 226.295Z" fill="#C8C8C8"/>
<path d="M148.094 226.314C149.385 226.314 150.373 225.428 150.373 223.264V222.682C150.373 220.461 149.347 219.698 148.103 219.698C146.85 219.698 145.758 220.461 145.758 222.72V223.254C145.758 225.418 146.784 226.314 148.094 226.314ZM148.094 225.685C147.097 225.685 146.565 224.922 146.565 223.33V222.625C146.565 221.023 147.106 220.327 148.103 220.327C149.081 220.327 149.604 221.061 149.604 222.673V223.378C149.604 225.018 149.072 225.685 148.094 225.685Z" fill="#C8C8C8"/>
<path d="M55.5992 243.067H56.3019V237.661H56.3304L58.1726 243.067H58.8752L60.7364 237.661H60.7649V243.067H61.5245V236.67H60.4135L58.5809 242.075H58.5619L56.7197 236.67H55.5992V243.067Z" fill="#C8C8C8"/>
<path d="M63.1663 243.067H66.9741V242.428H63.9165V240.092H66.2524V239.453H63.9165V237.308H66.9456V236.67H63.1663V243.067Z" fill="#C8C8C8"/>
<path d="M69.8304 243.067H70.5711V240.55L72.6601 236.67H71.9384L70.2482 239.844H70.2292L68.5295 236.67H67.7319L69.8304 240.55V243.067Z" fill="#C8C8C8"/>
<path d="M75.838 243.181C77.1294 243.181 78.1169 242.294 78.1169 240.13V239.549C78.1169 237.327 77.0914 236.565 75.8475 236.565C74.594 236.565 73.502 237.327 73.502 239.587V240.121C73.502 242.285 74.5276 243.181 75.838 243.181ZM75.838 242.552C74.8409 242.552 74.3092 241.789 74.3092 240.197V239.492C74.3092 237.89 74.8504 237.194 75.8475 237.194C76.8255 237.194 77.3478 237.928 77.3478 239.539V240.245C77.3478 241.884 76.816 242.552 75.838 242.552Z" fill="#C8C8C8"/>
<path d="M82.104 243.219H82.7972V241.722H83.8607V241.103H82.7972V236.584H82.2084L79.0938 241.15V241.722H82.104V243.219ZM79.901 241.103L82.104 237.785V241.103H79.901Z" fill="#C8C8C8"/>
<path d="M86.3979 236.565C85.1065 236.565 84.3374 237.585 84.3374 238.786C84.3374 240.006 85.211 240.788 86.284 240.788C86.9867 240.788 87.5089 240.473 87.8508 240.083C87.7843 241.875 87.1861 242.542 86.1416 242.542C85.6288 242.542 85.116 242.39 84.8407 242.228L84.6317 242.781C84.9261 242.981 85.5243 243.181 86.1795 243.181C87.7178 243.181 88.6104 242.008 88.6104 239.778V239.358C88.6104 237.547 87.8223 236.565 86.3979 236.565ZM86.4074 237.194C87.4235 237.194 87.8508 237.976 87.8508 239.167V239.349C87.5849 239.72 87.0436 240.149 86.4359 240.149C85.6668 240.149 85.0875 239.72 85.0875 238.719C85.0875 237.833 85.5813 237.194 86.4074 237.194Z" fill="#C8C8C8"/>
<path d="M94.0078 243.152C94.644 243.152 95.0998 242.952 95.3847 242.676H95.4227L95.5081 243.067H96.1158V236.241H95.3847V238.567C95.1283 238.414 94.7295 238.252 94.1503 238.252C92.9348 238.252 92.0517 238.996 92.0517 240.712V240.836C92.0517 242.58 93.0677 243.152 94.0078 243.152ZM94.2262 242.552C93.3811 242.552 92.8114 242.132 92.8114 240.807V240.616C92.8114 239.339 93.3526 238.872 94.2452 238.872C94.7295 238.872 95.1663 239.005 95.3847 239.177V242.151C95.1473 242.342 94.777 242.552 94.2262 242.552Z" fill="#C8C8C8"/>
<path d="M99.5335 243.181C100.825 243.181 101.604 242.237 101.604 241.017C101.604 239.797 100.749 239.062 99.6855 239.062C98.9733 239.062 98.451 239.396 98.1092 239.749C98.2042 237.756 98.8119 237.204 99.8944 237.204C100.303 237.204 100.863 237.366 101.091 237.499L101.309 236.946C101.043 236.784 100.455 236.565 99.8184 236.565C98.3466 236.565 97.3495 237.556 97.3495 239.816V240.311C97.3495 242.132 98.1092 243.181 99.5335 243.181ZM99.524 242.552C98.508 242.552 98.1092 241.77 98.1092 240.578V240.512C98.3751 240.13 98.9258 239.701 99.5335 239.701C100.303 239.701 100.844 240.092 100.844 241.093C100.844 242.008 100.35 242.552 99.524 242.552Z" fill="#C8C8C8"/>
<path d="M104.279 243.162C105.693 243.162 106.596 242.38 106.596 241.265C106.596 240.273 105.969 239.806 105.143 239.644C105.864 239.406 106.358 238.939 106.358 238.147C106.358 237.146 105.58 236.565 104.44 236.565C103.889 236.565 103.139 236.803 102.759 237.061L102.873 237.671C103.272 237.442 103.766 237.213 104.288 237.213C105.067 237.213 105.57 237.49 105.57 238.271C105.57 238.986 105.01 239.406 104.184 239.406H103.614V240.054H104.231C105.2 240.054 105.826 240.445 105.826 241.265C105.826 242.056 105.238 242.523 104.184 242.523C103.709 242.523 103.073 242.342 102.712 242.104L102.55 242.704C102.902 242.952 103.538 243.162 104.279 243.162Z" fill="#C8C8C8"/>
<path d="M109.882 243.19C111.259 243.19 112.114 242.39 112.114 241.37C112.114 240.407 111.354 239.949 110.566 239.692C111.221 239.349 111.857 238.9 111.857 238.128C111.857 237.137 111.05 236.555 109.854 236.555C108.629 236.555 107.841 237.242 107.841 238.166C107.841 238.986 108.401 239.472 109.085 239.739C108.382 240.016 107.66 240.597 107.66 241.436C107.66 242.485 108.524 243.19 109.882 243.19ZM109.873 242.561C109.028 242.561 108.42 242.113 108.42 241.408C108.42 240.702 109.056 240.245 109.683 240.025C110.784 240.378 111.307 240.664 111.307 241.446C111.307 242.104 110.689 242.561 109.873 242.561ZM110.006 239.415C109.161 239.196 108.648 238.805 108.648 238.147C108.648 237.537 109.132 237.184 109.863 237.184C110.651 237.184 111.069 237.594 111.069 238.157C111.069 238.767 110.604 239.148 110.006 239.415Z" fill="#C8C8C8"/>
<path d="M116.813 243.105H117.535V236.565H117.136L115.636 237.27V237.709L116.813 237.432V243.105Z" fill="#C8C8C8"/>
<path d="M121.233 243.181C122.524 243.181 123.303 242.237 123.303 241.017C123.303 239.797 122.448 239.062 121.385 239.062C120.672 239.062 120.15 239.396 119.808 239.749C119.903 237.756 120.511 237.204 121.593 237.204C122.002 237.204 122.562 237.366 122.79 237.499L123.008 236.946C122.742 236.784 122.154 236.565 121.517 236.565C120.046 236.565 119.049 237.556 119.049 239.816V240.311C119.049 242.132 119.808 243.181 121.233 243.181ZM121.223 242.552C120.207 242.552 119.808 241.77 119.808 240.578V240.512C120.074 240.13 120.625 239.701 121.233 239.701C122.002 239.701 122.543 240.092 122.543 241.093C122.543 242.008 122.049 242.552 121.223 242.552Z" fill="#C8C8C8"/>
<path d="M126.719 243.181C128.011 243.181 128.998 242.294 128.998 240.13V239.549C128.998 237.327 127.973 236.565 126.729 236.565C125.476 236.565 124.384 237.327 124.384 239.587V240.121C124.384 242.285 125.409 243.181 126.719 243.181ZM126.719 242.552C125.722 242.552 125.191 241.789 125.191 240.197V239.492C125.191 237.89 125.732 237.194 126.729 237.194C127.707 237.194 128.229 237.928 128.229 239.539V240.245C128.229 241.884 127.697 242.552 126.719 242.552Z" fill="#C8C8C8"/>
<path d="M131.77 243.181C133.175 243.181 134.011 242.218 134.011 241.074C134.011 239.73 133.223 239.12 131.941 239.12C131.675 239.12 131.286 239.186 131.029 239.253L131.162 237.308H133.783V236.66H130.555L130.327 240.016C130.621 239.882 131.219 239.701 131.656 239.701C132.653 239.701 133.223 240.092 133.223 241.065C133.223 241.97 132.634 242.542 131.628 242.542C131.105 242.542 130.479 242.323 130.127 242.085L129.985 242.695C130.365 242.971 131.029 243.181 131.77 243.181Z" fill="#C8C8C8"/>
<path d="M138.633 243.105H139.354V236.565H138.956L137.455 237.27V237.709L138.633 237.432V243.105Z" fill="#C8C8C8"/>
<path d="M141.381 243.105H142.217L144.714 237.184V236.698H140.65V237.337H143.888L141.381 243.105Z" fill="#C8C8C8"/>
<path d="M147.934 243.219H148.627V241.722H149.69V241.103H148.627V236.584H148.038L144.924 241.15V241.722H147.934V243.219ZM145.731 241.103L147.934 237.785V241.103H145.731Z" fill="#C8C8C8"/>
<path d="M150.821 243.105H151.657L154.154 237.184V236.698H150.09V237.337H153.328L150.821 243.105Z" fill="#C8C8C8"/>
</g>
<defs>
<filter id="filter0_d_470_8049" x="0" y="0.000244141" width="171" height="267" filterUnits="userSpaceOnUse" color-interpolation-filters="sRGB">
<feFlood flood-opacity="0" result="BackgroundImageFix"/>
<feColorMatrix in="SourceAlpha" type="matrix" values="0 0 0 0 0 0 0 0 0 0 0 0 0 0 0 0 0 0 127 0" result="hardAlpha"/>
<feOffset dx="3" dy="3"/>
<feComposite in2="hardAlpha" operator="out"/>
<feColorMatrix type="matrix" values="0 0 0 0 0.364706 0 0 0 0 0.364706 0 0 0 0 0.364706 0 0 0 0.5 0"/>
<feBlend mode="normal" in2="BackgroundImageFix" result="effect1_dropShadow_470_8049"/>
<feBlend mode="normal" in="SourceGraphic" in2="effect1_dropShadow_470_8049" result="shape"/>
</filter>
<linearGradient id="paint0_linear_470_8049" x1="0" y1="0.000244141" x2="168.947" y2="263.393" gradientUnits="userSpaceOnUse">
<stop stop-color="#7F8D8E"/>
<stop offset="1" stop-color="#3F5051"/>
</linearGradient>
</defs>
</svg>
