<svg width="70" height="70" viewBox="0 0 70 70" fill="none" xmlns="http://www.w3.org/2000/svg">
<circle cx="35" cy="35.0002" r="34.5" fill="#1E1E1E" stroke="#4D4D4D"/>
<path d="M23.7578 40.0844V31.1956H20.5998V40.0844H23.7578Z" fill="#2C2C2C" stroke="#7CE3F3" stroke-linecap="round" stroke-linejoin="round"/>
<path d="M33.9093 34.5287C33.9093 34.234 33.793 33.9513 33.586 33.7429C33.3791 33.5344 33.0984 33.4173 32.8057 33.4173C33.0984 33.4173 33.3791 33.3002 33.586 33.0918C33.793 32.8834 33.9093 32.6007 33.9093 32.3059C33.9093 32.0112 33.793 31.7285 33.586 31.5201C33.3791 31.3116 33.0984 31.1946 32.8057 31.1946H27.7415L28.3959 26.4528C28.4647 26.1584 28.4154 25.8486 28.2587 25.5907C28.102 25.3327 27.8506 25.1474 27.5591 25.075C27.4143 25.0388 27.2638 25.032 27.1163 25.0549C26.9689 25.0777 26.8274 25.1299 26.7001 25.2083C26.5728 25.2867 26.4623 25.3898 26.3749 25.5116C26.2875 25.6334 26.225 25.7714 26.191 25.9177L23.7422 31.1854V40.0834H32.7943C33.087 40.0834 33.3677 39.9663 33.5746 39.7579C33.7816 39.5494 33.8979 39.2668 33.8979 38.972C33.8979 38.6772 33.7816 38.3946 33.5746 38.1861C33.3677 37.9777 33.087 37.8606 32.7943 37.8606C32.9398 37.8621 33.0841 37.8346 33.219 37.7798C33.354 37.7249 33.4768 37.6437 33.5804 37.5408C33.684 37.4379 33.7664 37.3154 33.8229 37.1804C33.8793 37.0453 33.9087 36.9003 33.9093 36.7538C33.9093 36.4591 33.793 36.1764 33.586 35.9679C33.3791 35.7595 33.0984 35.6424 32.8057 35.6424C32.9508 35.6424 33.0945 35.6136 33.2285 35.5576C33.3626 35.5016 33.4843 35.4195 33.5868 35.3161C33.6893 35.2126 33.7706 35.0899 33.8259 34.9547C33.8812 34.8196 33.9096 34.6749 33.9093 34.5287V34.5287Z" fill="#2C2C2C" stroke="#7CE3F3" stroke-linecap="round" stroke-linejoin="round"/>
<path d="M46.2402 30.2175L46.2402 39.1063L49.3982 39.1063L49.3982 30.2175L46.2402 30.2175Z" fill="#2C2C2C" stroke="#C8C8C8" stroke-linecap="round" stroke-linejoin="round"/>
<path d="M36.0888 35.7731C36.0888 36.0679 36.2051 36.3506 36.412 36.559C36.619 36.7674 36.8997 36.8845 37.1924 36.8845C36.8997 36.8845 36.619 37.0016 36.412 37.2101C36.2051 37.4185 36.0888 37.7012 36.0888 37.9959C36.0888 38.2907 36.2051 38.5734 36.412 38.7818C36.619 38.9902 36.8997 39.1073 37.1924 39.1073L42.2565 39.1073L41.6021 43.8491C41.5333 44.1435 41.5826 44.4533 41.7393 44.7112C41.896 44.9692 42.1474 45.1545 42.4389 45.2269C42.5837 45.2631 42.7343 45.2699 42.8817 45.247C43.0292 45.2241 43.1707 45.172 43.2979 45.0936C43.4252 45.0152 43.5358 44.9121 43.6232 44.7903C43.7105 44.6685 43.773 44.5305 43.807 44.3841L46.2559 39.1165L46.2559 30.2185L37.2038 30.2185C36.9111 30.2185 36.6304 30.3356 36.4234 30.544C36.2165 30.7524 36.1002 31.0351 36.1002 31.3299C36.1002 31.6246 36.2165 31.9073 36.4234 32.1157C36.6304 32.3242 36.9111 32.4413 37.2038 32.4413C37.0583 32.4398 36.9139 32.4672 36.779 32.5221C36.6441 32.577 36.5213 32.6582 36.4177 32.7611C36.314 32.8639 36.2316 32.9864 36.1752 33.1215C36.1187 33.2566 36.0894 33.4015 36.0888 33.5481C36.0888 33.8428 36.2051 34.1255 36.412 34.3339C36.619 34.5424 36.8997 34.6595 37.1924 34.6595C37.0473 34.6595 36.9036 34.6883 36.7695 34.7443C36.6355 34.8003 36.5137 34.8823 36.4112 34.9858C36.3087 35.0892 36.2275 35.212 36.1721 35.3471C36.1168 35.4822 36.0885 35.627 36.0888 35.7731V35.7731Z" fill="#2C2C2C" stroke="#C8C8C8" stroke-linecap="round" stroke-linejoin="round"/>
</svg>
