<svg width="70" height="70" viewBox="0 0 70 70" fill="none" xmlns="http://www.w3.org/2000/svg">
<circle cx="35" cy="35.0002" r="34.5" fill="#1E1E1E" stroke="#4D4D4D"/>
<path d="M47 38.0794C47.0031 40.7628 46.0754 43.3641 44.375 45.4399C42.6745 47.5158 40.3067 48.9375 37.6752 49.4626C35.0437 49.9877 32.3115 49.5838 29.9445 48.3197C27.5776 47.0556 25.7224 45.0096 24.6953 42.5305C23.6683 40.0515 23.533 37.2929 24.3124 34.7252C25.0919 32.1576 26.7379 29.9398 28.9698 28.4501C31.2017 26.9603 33.8812 26.2909 36.5514 26.556C39.2217 26.821 41.7173 28.0042 43.6128 29.9036C45.7801 32.0727 46.9983 35.0131 47 38.0794Z" fill="#2C2C2C" stroke="#C8C8C8" stroke-linecap="round" stroke-linejoin="round"/>
<path d="M35.4199 49.6619V26.5095" stroke="#C8C8C8" stroke-linecap="round" stroke-linejoin="round"/>
<path d="M41.6321 38.0798C41.6321 44.472 38.8512 49.6516 35.4244 49.6516C31.9977 49.6516 29.2168 44.4808 29.2168 38.0798C29.2168 34.8772 29.9109 31.9996 31.0312 29.904C32.1515 27.8085 33.7067 26.4993 35.4244 26.4993C37.1422 26.4993 38.693 27.8172 39.8177 29.904C41.0663 32.4454 41.6884 35.2488 41.6321 38.0798V38.0798Z" stroke="#C8C8C8" stroke-linecap="round" stroke-linejoin="round"/>
<path d="M23.8457 38.0876H46.998" stroke="#C8C8C8" stroke-linecap="round" stroke-linejoin="round"/>
<path d="M45.1169 38.5458C45.1169 40.615 41.3739 45.8693 41.3739 45.8693C41.3739 45.8693 37.6309 40.5974 37.6309 38.5458C37.6958 37.5997 38.1175 36.7135 38.8106 36.0663C39.5038 35.419 40.4168 35.0591 41.3651 35.0591C42.3135 35.0591 43.2265 35.419 43.9196 36.0663C44.6128 36.7135 45.0344 37.5997 45.0994 38.5458H45.1169Z" fill="#2C2C2C" stroke="#C8C8C8" stroke-linecap="round" stroke-linejoin="round"/>
<path d="M41.3678 39.8237C41.9938 39.8237 42.5013 39.3162 42.5013 38.6902C42.5013 38.0642 41.9938 37.5568 41.3678 37.5568C40.7418 37.5568 40.2344 38.0642 40.2344 38.6902C40.2344 39.3162 40.7418 39.8237 41.3678 39.8237Z" fill="#2C2C2C" stroke="#C8C8C8" stroke-linecap="round" stroke-linejoin="round"/>
<path d="M35.4328 25.6167C35.4328 29.0522 29.2164 36.4943 29.2164 36.4943C29.2164 36.4943 23 29.0522 23 25.6167C23 23.968 23.6549 22.3868 24.8207 21.221C25.9865 20.0552 27.5677 19.4003 29.2164 19.4003C30.8651 19.4003 32.4463 20.0552 33.6121 21.221C34.7779 22.3868 35.4328 23.968 35.4328 25.6167Z" fill="#2C2C2C" stroke="#7CE3F3" stroke-linecap="round" stroke-linejoin="round"/>
<path d="M29.2143 22.4838L30.2511 24.5881L32.5752 24.9264L30.8969 26.5651L31.2923 28.8759L29.2143 27.7864L27.1363 28.8759L27.5317 26.5651L25.8535 24.9264L28.1775 24.5881L29.2143 22.4838Z" fill="#2C2C2C" stroke="#7CE3F3" stroke-linecap="round" stroke-linejoin="round"/>
</svg>
