<svg width="133" height="38" viewBox="0 0 133 38" fill="none" xmlns="http://www.w3.org/2000/svg">
<path d="M128.288 38.0005H4.71832C2.11277 38.0005 0 35.9636 0 33.4517V4.54932C0 2.03737 2.11277 0.000488281 4.71832 0.000488281H128.282C130.887 0.000488281 133 2.03737 133 4.54932V33.4517C133 35.9636 130.887 38.0005 128.282 38.0005H128.288Z" fill="black"/>
<path d="M31.3851 18.3118C31.3554 15.2486 33.8903 13.7644 34.009 13.6932C32.5724 11.5976 30.3521 11.3127 29.5685 11.2948C27.6985 11.0989 25.8879 12.4109 24.938 12.4109C23.9882 12.4109 22.5041 11.3127 20.925 11.3483C18.8947 11.378 16.9891 12.5534 15.9502 14.3818C13.8011 18.104 15.404 23.5834 17.464 26.5932C18.491 28.0714 19.6961 29.7158 21.2752 29.6565C22.8187 29.5912 23.3945 28.671 25.2586 28.671C27.1227 28.671 27.6451 29.6565 29.2539 29.6149C30.9102 29.5912 31.955 28.1367 32.9464 26.6467C34.1396 24.9548 34.6146 23.2925 34.6383 23.2094C34.6027 23.1975 31.4207 21.9865 31.391 18.3177L31.3851 18.3118Z" fill="white"/>
<path d="M28.3507 9.31314C29.1818 8.27425 29.7458 6.8673 29.5914 5.43066C28.3923 5.48409 26.8844 6.26178 26.0236 7.27692C25.2578 8.17333 24.5751 9.63965 24.7532 11.0169C26.1008 11.1178 27.484 10.3342 28.3566 9.31314H28.3507Z" fill="white"/>
<path d="M53.7187 29.4449H51.5637L50.3824 25.7346H46.2743L45.1523 29.4449H43.0508L47.1173 16.812H49.6284L53.7128 29.4449H53.7187ZM50.0262 24.1733L48.9576 20.8726C48.8448 20.5342 48.6311 19.7387 48.3165 18.492H48.2808C48.1562 19.0263 47.9543 19.8218 47.6813 20.8726L46.6305 24.1733H50.0262Z" fill="white"/>
<path d="M64.1785 24.7716C64.1785 26.321 63.757 27.5439 62.92 28.4463C62.172 29.2477 61.24 29.6455 60.1239 29.6455C58.9247 29.6455 58.058 29.2121 57.5356 28.3513H57.5V33.1539H55.4756V23.329C55.4756 22.3554 55.4519 21.3522 55.3984 20.3311H57.1794L57.2922 21.7737H57.3278C58.0046 20.6873 59.0256 20.1411 60.4029 20.1411C61.4774 20.1411 62.3738 20.5685 63.0922 21.4175C63.8105 22.2664 64.1726 23.3884 64.1726 24.7716H64.1785ZM62.1126 24.8488C62.1126 23.9642 61.9108 23.2281 61.513 22.6582C61.0737 22.0586 60.486 21.7558 59.7499 21.7558C59.2512 21.7558 58.7941 21.9221 58.3904 22.2545C57.9868 22.587 57.7196 23.0203 57.5949 23.5605C57.5356 23.8099 57.5 24.0177 57.5 24.1779V25.6977C57.5 26.3626 57.7018 26.9206 58.1114 27.3777C58.521 27.8348 59.0435 28.0604 59.6965 28.0604C60.4563 28.0604 61.0559 27.7636 61.4774 27.1818C61.9049 26.5941 62.1126 25.8164 62.1126 24.8547V24.8488Z" fill="white"/>
<path d="M74.6571 24.7716C74.6571 26.321 74.2415 27.5439 73.3985 28.4463C72.6505 29.2477 71.7185 29.6455 70.6024 29.6455C69.4032 29.6455 68.5424 29.2121 68.0141 28.3513H67.9785V33.1539H65.9541V23.329C65.9541 22.3554 65.9304 21.3522 65.877 20.3311H67.6579L67.7707 21.7737H67.8063C68.4831 20.6873 69.5042 20.1411 70.8814 20.1411C71.9559 20.1411 72.8524 20.5685 73.5707 21.4175C74.289 22.2664 74.6452 23.3884 74.6452 24.7716H74.6571ZM72.5971 24.8488C72.5971 23.9642 72.3952 23.2281 71.9975 22.6582C71.5582 22.0586 70.9705 21.7558 70.2344 21.7558C69.7357 21.7558 69.2786 21.9221 68.8749 22.2545C68.4712 22.587 68.2041 23.0203 68.0794 23.5605C68.02 23.8099 67.9844 24.0177 67.9844 24.1779V25.6977C67.9844 26.3626 68.1863 26.9206 68.5899 27.3777C68.9936 27.8348 69.522 28.0604 70.175 28.0604C70.9408 28.0604 71.5344 27.7636 71.9559 27.1818C72.3834 26.5941 72.5971 25.8164 72.5971 24.8547V24.8488Z" fill="white"/>
<path d="M86.3753 25.8995C86.3753 26.974 86.0013 27.8466 85.2533 28.5234C84.4282 29.2595 83.2824 29.6276 81.8102 29.6276C80.4507 29.6276 79.3584 29.3664 78.5332 28.838L79.0022 27.1521C79.8927 27.6923 80.8663 27.9594 81.9289 27.9594C82.6888 27.9594 83.2824 27.7873 83.7098 27.4429C84.1313 27.0986 84.3451 26.6356 84.3451 26.0597C84.3451 25.5492 84.1729 25.1158 83.8226 24.7656C83.4724 24.4153 82.8906 24.0888 82.0773 23.7861C79.863 22.9609 78.7588 21.7498 78.7588 20.1648C78.7588 19.1259 79.1447 18.271 79.9223 17.6121C80.6941 16.9472 81.727 16.6147 83.0153 16.6147C84.167 16.6147 85.1227 16.8166 85.8826 17.2143L85.378 18.8647C84.6656 18.4788 83.8583 18.2829 82.9618 18.2829C82.2495 18.2829 81.6914 18.461 81.2937 18.8053C80.9553 19.12 80.7891 19.4999 80.7891 19.9511C80.7891 20.4497 80.985 20.8594 81.3709 21.1859C81.7092 21.4886 82.3207 21.8092 83.2112 22.1594C84.2976 22.5988 85.099 23.1093 85.6095 23.697C86.1201 24.2847 86.3753 25.0149 86.3753 25.8935V25.8995Z" fill="white"/>
<path d="M93.0721 21.8501H90.84V26.2728C90.84 27.3948 91.2318 27.9587 92.0214 27.9587C92.3835 27.9587 92.6863 27.9291 92.9237 27.8638L92.9771 29.4013C92.5794 29.5497 92.051 29.6269 91.404 29.6269C90.6025 29.6269 89.9792 29.3835 89.528 28.8967C89.0769 28.4099 88.8513 27.5907 88.8513 26.439V21.8441H87.5215V20.3244H88.8513V18.6562L90.84 18.0566V20.3244H93.0721V21.8441V21.8501Z" fill="white"/>
<path d="M103.139 24.8136C103.139 26.2146 102.742 27.3603 101.94 28.2627C101.103 29.1888 99.9871 29.6518 98.6039 29.6518C97.2207 29.6518 96.1996 29.2066 95.41 28.322C94.6145 27.4375 94.2168 26.3155 94.2168 24.9679C94.2168 23.6203 94.6264 22.3974 95.4457 21.501C96.2649 20.5986 97.3691 20.1475 98.7523 20.1475C100.135 20.1475 101.163 20.5927 101.976 21.4832C102.754 22.344 103.139 23.4541 103.139 24.8195V24.8136ZM101.038 24.8789C101.038 24.0418 100.86 23.3176 100.498 22.718C100.07 21.9878 99.4647 21.6257 98.6811 21.6257C97.8974 21.6257 97.2504 21.9878 96.8289 22.718C96.4667 23.3176 96.2827 24.0537 96.2827 24.9204C96.2827 25.7871 96.4608 26.4817 96.8289 27.0813C97.2682 27.8115 97.8796 28.1736 98.6632 28.1736C99.4469 28.1736 100.046 27.8056 100.48 27.0635C100.854 26.452 101.038 25.7218 101.038 24.8848V24.8789Z" fill="white"/>
<path d="M109.718 22.112C109.516 22.0764 109.302 22.0527 109.077 22.0527C108.364 22.0527 107.812 22.3257 107.426 22.86C107.088 23.335 106.922 23.9345 106.922 24.6588V29.4377H104.897L104.915 23.1925C104.915 22.1417 104.891 21.1859 104.838 20.3251H106.601L106.678 22.0705H106.732C106.945 21.4709 107.284 20.99 107.747 20.6279C108.198 20.3014 108.685 20.1411 109.207 20.1411C109.397 20.1411 109.563 20.153 109.718 20.1767V22.1061V22.112Z" fill="white"/>
<path d="M118.771 24.4561C118.771 24.8183 118.747 25.127 118.7 25.3763H112.627C112.651 26.2786 112.947 26.9613 113.511 27.4422C114.022 27.8637 114.687 28.0774 115.5 28.0774C116.397 28.0774 117.216 27.9349 117.958 27.644L118.278 29.051C117.418 29.425 116.397 29.615 115.221 29.615C113.808 29.615 112.698 29.1994 111.891 28.3683C111.083 27.5372 110.68 26.4211 110.68 25.0201C110.68 23.6191 111.054 22.503 111.802 21.5888C112.591 20.6152 113.654 20.1284 114.99 20.1284C116.325 20.1284 117.299 20.6152 117.97 21.5888C118.504 22.3605 118.777 23.3223 118.777 24.4561H118.771ZM116.842 23.9278C116.854 23.3282 116.723 22.8117 116.45 22.3724C116.1 21.8085 115.56 21.5294 114.835 21.5294C114.17 21.5294 113.636 21.8025 113.221 22.3546C112.882 22.7939 112.686 23.3163 112.621 23.9278H116.842Z" fill="white"/>
<path d="M49.3553 9.03195C49.3553 10.148 49.0229 10.991 48.3521 11.555C47.7287 12.0774 46.8501 12.3386 45.7103 12.3386C45.1463 12.3386 44.6595 12.3148 44.2559 12.2674V6.15868C44.7842 6.07557 45.3541 6.02808 45.9715 6.02808C47.0579 6.02808 47.8771 6.26554 48.4292 6.73452C49.0466 7.26881 49.3613 8.03462 49.3613 9.02602L49.3553 9.03195ZM48.3046 9.06163C48.3046 8.33738 48.1146 7.77935 47.7287 7.39347C47.3428 7.0076 46.7848 6.8117 46.0487 6.8117C45.734 6.8117 45.4669 6.83544 45.2473 6.877V11.5193C45.3719 11.5372 45.5916 11.549 45.9181 11.549C46.678 11.549 47.2657 11.3353 47.6812 10.9138C48.0968 10.4923 48.3046 9.87494 48.3046 9.06163Z" fill="white"/>
<path d="M54.9183 10.0049C54.9183 10.6936 54.7223 11.2576 54.3305 11.6969C53.915 12.154 53.3748 12.3796 52.6921 12.3796C52.0094 12.3796 51.5107 12.1599 51.1189 11.7265C50.7271 11.2872 50.5371 10.7411 50.5371 10.0762C50.5371 9.4113 50.7389 8.81171 51.1367 8.37241C51.5404 7.93311 52.0806 7.70752 52.7633 7.70752C53.446 7.70752 53.9506 7.92717 54.3483 8.36054C54.7283 8.78203 54.9183 9.32819 54.9183 9.99901V10.0049ZM53.8853 10.0346C53.8853 9.61908 53.7963 9.26882 53.6182 8.972C53.4104 8.61581 53.1136 8.43771 52.7277 8.43771C52.3418 8.43771 52.0272 8.61581 51.8135 8.972C51.6354 9.26882 51.5463 9.62501 51.5463 10.0524C51.5463 10.4799 51.6354 10.8183 51.8135 11.1151C52.0272 11.4713 52.3299 11.6494 52.7158 11.6494C53.1017 11.6494 53.3926 11.4653 53.6063 11.1032C53.7903 10.8004 53.8794 10.4443 53.8794 10.0287L53.8853 10.0346Z" fill="white"/>
<path d="M62.3812 7.80452L60.9802 12.2807H60.0719L59.4901 10.3335C59.3417 9.84668 59.223 9.36582 59.128 8.88497H59.1102C59.0211 9.3777 58.9024 9.85855 58.748 10.3335L58.1306 12.2807H57.2105L55.8926 7.80452H56.9137L57.4183 9.92979C57.5429 10.4344 57.6439 10.9093 57.721 11.3664H57.7388C57.8101 10.9924 57.9347 10.5175 58.1069 9.93573L58.7421 7.79858H59.5495L60.1609 9.88824C60.3093 10.3988 60.4281 10.8915 60.5171 11.3605H60.5468C60.6121 10.8974 60.719 10.4106 60.8496 9.88824L61.3898 7.79858H62.3693L62.3812 7.80452Z" fill="white"/>
<path d="M67.5393 12.2786H66.542V9.71406C66.542 8.9245 66.2452 8.52676 65.6397 8.52676C65.3428 8.52676 65.1054 8.63361 64.9213 8.85327C64.7373 9.07292 64.6423 9.32819 64.6423 9.61908V12.2786H63.645V9.07885C63.645 8.68704 63.6331 8.25961 63.6094 7.79657H64.482L64.5295 8.49708H64.5592C64.6779 8.27742 64.8501 8.09933 65.0757 7.95685C65.3428 7.79063 65.6456 7.70752 65.978 7.70752C66.3936 7.70752 66.7439 7.84406 67.0169 8.1112C67.3612 8.44365 67.5334 8.93638 67.5334 9.59533V12.2786H67.5393Z" fill="white"/>
<path d="M70.2805 12.2782H69.2891V5.74805H70.2805V12.2782Z" fill="white"/>
<path d="M76.1409 10.0049C76.1409 10.6936 75.945 11.2576 75.5532 11.6969C75.1376 12.154 74.5974 12.3796 73.9147 12.3796C73.232 12.3796 72.7334 12.1599 72.3415 11.7265C71.9497 11.2872 71.7598 10.7411 71.7598 10.0762C71.7598 9.4113 71.9616 8.81171 72.3653 8.37241C72.769 7.93311 73.3092 7.70752 73.9919 7.70752C74.6746 7.70752 75.1792 7.92717 75.5769 8.36054C75.9569 8.78203 76.1468 9.32819 76.1468 9.99901L76.1409 10.0049ZM75.108 10.0346C75.108 9.61908 75.0189 9.26882 74.8408 8.972C74.633 8.61581 74.3362 8.43771 73.9503 8.43771C73.5645 8.43771 73.2439 8.61581 73.042 8.972C72.864 9.26882 72.7749 9.62501 72.7749 10.0524C72.7749 10.4799 72.864 10.8183 73.042 11.1151C73.2558 11.4713 73.5585 11.6494 73.9444 11.6494C74.3303 11.6494 74.6212 11.4653 74.8349 11.1032C75.0189 10.8004 75.108 10.4443 75.108 10.0287V10.0346Z" fill="white"/>
<path d="M80.956 12.2795H80.0596L79.9824 11.763H79.9528C79.65 12.1726 79.2107 12.3804 78.6467 12.3804C78.2252 12.3804 77.8809 12.2438 77.6256 11.9767C77.3941 11.7333 77.2754 11.4246 77.2754 11.0684C77.2754 10.5222 77.501 10.1067 77.964 9.8158C78.4271 9.52491 79.0682 9.38244 79.8934 9.39431V9.3112C79.8934 8.72349 79.5847 8.42666 78.9614 8.42666C78.5221 8.42666 78.1302 8.53945 77.7919 8.7591L77.59 8.10609C78.0056 7.84488 78.5221 7.72021 79.1276 7.72021C80.2971 7.72021 80.8848 8.33761 80.8848 9.57241V11.2228C80.8848 11.668 80.9085 12.0242 80.9501 12.2913L80.956 12.2795ZM79.9231 10.7419V10.0533C78.8248 10.0355 78.2787 10.3382 78.2787 10.9556C78.2787 11.1871 78.338 11.3652 78.4686 11.484C78.5992 11.6027 78.7595 11.6621 78.9554 11.6621C79.1751 11.6621 79.3769 11.5908 79.5609 11.4543C79.745 11.3177 79.8637 11.1396 79.9053 10.9259C79.9171 10.8784 79.9231 10.8191 79.9231 10.7478V10.7419Z" fill="white"/>
<path d="M86.6122 12.28H85.7276L85.6801 11.5617H85.6505C85.3714 12.1078 84.8906 12.3809 84.2138 12.3809C83.6736 12.3809 83.2284 12.1672 82.8722 11.7457C82.516 11.3242 82.3379 10.7721 82.3379 10.0954C82.3379 9.37111 82.5338 8.78339 82.9197 8.33815C83.2937 7.9226 83.7567 7.70888 84.3029 7.70888C84.9025 7.70888 85.324 7.91072 85.5614 8.31441H85.5792V5.7439H86.5766V11.0689C86.5766 11.5082 86.5884 11.906 86.6122 12.2741V12.28ZM85.5852 10.3922V9.64418C85.5852 9.51358 85.5733 9.41266 85.5555 9.32955C85.5021 9.09209 85.3774 8.89025 85.1934 8.72996C85.0093 8.56968 84.7837 8.48656 84.5285 8.48656C84.1604 8.48656 83.8636 8.63498 83.6499 8.92587C83.4421 9.22269 83.3293 9.60263 83.3293 10.0597C83.3293 10.5169 83.4302 10.8612 83.632 11.1342C83.8458 11.4311 84.1367 11.5736 84.5047 11.5736C84.8312 11.5736 85.0924 11.4489 85.2883 11.2055C85.4783 10.9799 85.5733 10.7009 85.5733 10.3862L85.5852 10.3922Z" fill="white"/>
<path d="M95.1194 10.0049C95.1194 10.6936 94.9235 11.2576 94.5317 11.6969C94.1221 12.154 93.5759 12.3796 92.8932 12.3796C92.2105 12.3796 91.7119 12.1599 91.3201 11.7265C90.9283 11.2872 90.7383 10.7411 90.7383 10.0762C90.7383 9.4113 90.9401 8.81171 91.3379 8.37241C91.7416 7.93311 92.2818 7.70752 92.9645 7.70752C93.6472 7.70752 94.1518 7.92717 94.5495 8.36054C94.9295 8.78203 95.1194 9.32819 95.1194 9.99901V10.0049ZM94.0924 10.0346C94.0924 9.61908 94.0034 9.26882 93.8253 8.972C93.6175 8.61581 93.3207 8.43771 92.9348 8.43771C92.5489 8.43771 92.2343 8.61581 92.0206 8.972C91.8425 9.26882 91.7534 9.62501 91.7534 10.0524C91.7534 10.4799 91.8425 10.8183 92.0206 11.1151C92.2343 11.4713 92.537 11.6494 92.9229 11.6494C93.3088 11.6494 93.5997 11.4653 93.8134 11.1032C93.9974 10.8004 94.0924 10.4443 94.0924 10.0287V10.0346Z" fill="white"/>
<path d="M100.475 12.2786H99.4775V9.71406C99.4775 8.9245 99.1806 8.52676 98.5751 8.52676C98.2783 8.52676 98.0408 8.63361 97.8568 8.85327C97.6728 9.07292 97.5837 9.32819 97.5837 9.61908V12.2786H96.5864V9.07885C96.5864 8.68704 96.5745 8.25961 96.5508 7.79657H97.4234L97.4709 8.49708H97.5006C97.6193 8.27742 97.7915 8.09933 98.0171 7.95685C98.2902 7.79063 98.587 7.70752 98.9194 7.70752C99.335 7.70752 99.6853 7.84406 99.9583 8.1112C100.303 8.44365 100.475 8.93638 100.475 9.59533V12.2786Z" fill="white"/>
<path d="M107.17 8.55115H106.072V10.7239C106.072 11.276 106.268 11.555 106.654 11.555C106.832 11.555 106.98 11.5432 107.099 11.5075L107.123 12.2615C106.927 12.3327 106.666 12.3683 106.351 12.3683C105.959 12.3683 105.65 12.2496 105.431 12.0062C105.211 11.7687 105.098 11.3651 105.098 10.8011V8.54522H104.445V7.79722H105.098V6.97798L106.072 6.68115V7.79722H107.17V8.54522V8.55115Z" fill="white"/>
<path d="M112.437 12.28H111.44V9.73323C111.44 8.9318 111.143 8.52812 110.538 8.52812C110.075 8.52812 109.76 8.75965 109.588 9.22269C109.558 9.32361 109.54 9.44234 109.54 9.57888V12.2741H108.549V5.7439H109.54V8.44501H109.558C109.873 7.95228 110.324 7.70888 110.906 7.70888C111.315 7.70888 111.66 7.84542 111.927 8.11256C112.265 8.45095 112.437 8.94961 112.437 9.6145V12.2741V12.28Z" fill="white"/>
<path d="M117.874 9.83279C117.874 10.0109 117.862 10.1593 117.838 10.284H114.852C114.864 10.7233 115.007 11.0616 115.286 11.2991C115.535 11.5069 115.867 11.6137 116.265 11.6137C116.704 11.6137 117.108 11.5425 117.47 11.4L117.625 12.0946C117.197 12.2786 116.699 12.3677 116.123 12.3677C115.428 12.3677 114.882 12.1658 114.49 11.7562C114.092 11.3466 113.896 10.8004 113.896 10.1118C113.896 9.42317 114.081 8.87701 114.449 8.42584C114.834 7.94498 115.357 7.70752 116.016 7.70752C116.675 7.70752 117.15 7.94498 117.476 8.42584C117.743 8.80577 117.874 9.27476 117.874 9.83279ZM116.924 9.57752C116.93 9.2807 116.865 9.02542 116.728 8.81171C116.556 8.53863 116.289 8.39615 115.939 8.39615C115.618 8.39615 115.351 8.53269 115.149 8.79984C114.983 9.01355 114.882 9.27476 114.852 9.57158H116.924V9.57752Z" fill="white"/>
</svg>
