<svg width="133" height="38" viewBox="0 0 133 38" fill="none" xmlns="http://www.w3.org/2000/svg">
<path d="M128.073 38.0005H4.92729C2.21728 38.0005 0 35.8623 0 33.249V4.75197C0 2.13866 2.21728 0.000488281 4.92729 0.000488281H128.073C130.783 0.000488281 133 2.13866 133 4.75197V33.249C133 35.8623 130.783 38.0005 128.073 38.0005Z" fill="black"/>
<path d="M46.3923 8.85913C46.3923 9.68445 46.146 10.3435 45.6594 10.83C45.1051 11.4152 44.3783 11.7046 43.4852 11.7046C42.5921 11.7046 41.9085 11.409 41.311 10.8177C40.7136 10.2265 40.418 9.49352 40.418 8.61892C40.418 7.74433 40.7136 7.01139 41.311 6.42012C41.9085 5.82884 42.6352 5.5332 43.4852 5.5332C43.9102 5.5332 44.3167 5.61943 44.6986 5.77957C45.0804 5.94586 45.3945 6.16759 45.6224 6.43859L45.1051 6.95596C44.7109 6.48787 44.175 6.25382 43.4852 6.25382C42.8631 6.25382 42.3273 6.46939 41.8715 6.91285C41.4157 7.35014 41.1879 7.91678 41.1879 8.61892C41.1879 9.32106 41.4157 9.8877 41.8715 10.325C42.3273 10.7623 42.8631 10.984 43.4852 10.984C44.1442 10.984 44.6986 10.7623 45.1359 10.325C45.4192 10.0355 45.5855 9.64134 45.6347 9.12397H43.4852V8.41567H46.3492C46.3738 8.56965 46.3923 8.71747 46.3923 8.85913Z" fill="white"/>
<path d="M46.3932 8.85985H46.2947C46.2947 9.66669 46.0606 10.2949 45.5864 10.763C45.0505 11.3235 44.3545 11.6068 43.4861 11.6068C42.6546 11.6068 41.9586 11.3235 41.3797 10.7507C40.8007 10.1779 40.5112 9.47576 40.5112 8.61964C40.5112 7.76353 40.7946 7.06139 41.3797 6.48859C41.9586 5.91579 42.6546 5.63247 43.4861 5.63247C43.8988 5.63247 44.2868 5.71254 44.6625 5.87268C45.0382 6.03281 45.3338 6.24222 45.5494 6.50707L45.6233 6.44548L45.5556 6.37773L45.0382 6.90125L45.106 6.969L45.1799 6.90741C44.7734 6.41468 44.1944 6.16832 43.4861 6.17447C42.8394 6.17447 42.2728 6.40236 41.8047 6.85814C41.3304 7.31391 41.0902 7.91135 41.0964 8.63196C41.0964 9.35258 41.3304 9.95001 41.8047 10.4058C42.2728 10.8616 42.8456 11.0895 43.4861 11.0895C44.1698 11.0895 44.7487 10.8616 45.2107 10.3996C45.5186 10.0917 45.6911 9.66669 45.7342 9.14317V9.03846H43.5846V8.52726H46.3501V8.42871L46.2515 8.44719C46.2762 8.59501 46.2947 8.73667 46.2947 8.87833H46.4918C46.4918 8.73051 46.4794 8.57653 46.4486 8.41639L46.4363 8.33632H43.3876V9.24171H45.6356V9.14317H45.5371C45.494 9.62974 45.3338 10.0054 45.069 10.2703C44.644 10.6891 44.1266 10.8985 43.4861 10.9047C42.8887 10.9047 42.3775 10.6953 41.9402 10.2764C41.509 9.85763 41.2873 9.32178 41.2873 8.64428C41.2873 7.96678 41.5029 7.43093 41.9402 7.01211C42.3775 6.59329 42.8887 6.38388 43.4861 6.38388C44.1574 6.38388 44.6563 6.60561 45.032 7.04907L45.0998 7.12914L45.6972 6.5317L45.7588 6.47011L45.6972 6.40236C45.457 6.11288 45.1306 5.885 44.7364 5.71254C44.3422 5.54009 43.9234 5.45386 43.4861 5.45386C42.6115 5.45386 41.8539 5.76181 41.2442 6.37157C40.6283 6.98132 40.3203 7.74505 40.3203 8.63812C40.3203 9.53119 40.6283 10.3011 41.2442 10.9108C41.8539 11.5206 42.6115 11.8285 43.4861 11.8285C44.3976 11.8285 45.1552 11.5267 45.7342 10.9232L45.6603 10.8554L45.728 10.9232C46.2392 10.4119 46.4918 9.72213 46.4918 8.87833H46.3932" fill="white"/>
<path d="M50.9315 6.39176H48.24V8.27029H50.6667V8.97859H48.24V10.851H50.9315V11.5777H47.4824V5.67114H50.9315V6.39176Z" fill="white"/>
<path d="M50.9324 6.39216V6.29361H48.1423V8.36924H50.569V8.88044H48.1423V10.9499H50.8339V11.4796H47.5819V5.77009H50.8339V6.39216H50.9324V6.29361V6.39216H51.031V5.573H47.3848V11.6767H51.031V10.7528H48.3394V9.07754H50.7661V8.17215H48.3394V6.49071H51.031V6.39216H50.9324Z" fill="white"/>
<path d="M54.1351 11.5777H53.3713V6.39176H51.7207V5.67114H55.7857V6.39176H54.1351V11.5777Z" fill="white"/>
<path d="M54.134 11.5781V11.4796H53.4688V6.29361H51.8182V5.77009H55.6861V6.29361H54.0355V11.5781H54.134V11.4796V11.5781H54.2326V6.49071H55.8832V5.573H51.6211V6.49071H53.2779V11.6767H54.2326V11.5781H54.134Z" fill="white"/>
<path d="M59.4802 5.67114H58.7227V11.5839H59.4802V5.67114Z" fill="white"/>
<path d="M58.7235 11.5781H58.8221V5.77009H59.3826V11.4796H58.7235V11.5781H58.8221H58.7235V11.6767H59.5858V5.573H58.625V11.6767H58.7235V11.5781Z" fill="white"/>
<path d="M62.8558 11.5777H62.092V6.39176H60.4414V5.67114H64.5003V6.39176H62.8558V11.5777Z" fill="white"/>
<path d="M62.8567 11.5781V11.4796H62.1915V6.29361H60.5408V5.77009H64.4026V6.29361H62.7581V11.5781H62.8567V11.4796V11.5781H62.9552V6.49071H64.5997V5.573H60.3438V6.49071H61.9944V11.6767H62.9552V11.5781H62.8567Z" fill="white"/>
<path d="M72.1927 10.8116C71.6138 11.409 70.887 11.7046 70.0247 11.7046C69.1625 11.7046 68.4418 11.409 67.8567 10.8116C67.2778 10.2141 66.9883 9.4812 66.9883 8.61892C66.9883 7.75664 67.2778 7.02371 67.8567 6.42628C68.4357 5.82884 69.1563 5.5332 70.0247 5.5332C70.8932 5.5332 71.6076 5.835 72.1866 6.43243C72.7717 7.02987 73.0612 7.7628 73.0612 8.61892C73.0612 9.47504 72.7717 10.2141 72.1927 10.8116ZM68.4172 10.3188C68.8545 10.7623 69.3903 10.984 70.0247 10.984C70.6591 10.984 71.195 10.7623 71.6323 10.3188C72.0696 9.87538 72.2913 9.30874 72.2913 8.62508C72.2913 7.94142 72.0696 7.37478 71.6323 6.93132C71.195 6.48787 70.6591 6.26614 70.0247 6.26614C69.3903 6.26614 68.8545 6.48787 68.4172 6.93132C67.9799 7.37478 67.7643 7.94142 67.7643 8.62508C67.7643 9.30874 67.9861 9.87538 68.4172 10.3188Z" fill="white"/>
<path d="M72.1933 10.813L72.1256 10.7453C71.5589 11.3242 70.8691 11.6075 70.0315 11.6137C69.1877 11.6137 68.4979 11.3304 67.9374 10.7453C67.3707 10.1663 67.0936 9.46415 67.0936 8.62035C67.0936 7.77656 67.3707 7.07442 67.9374 6.49546C68.4979 5.9165 69.1877 5.63318 70.0315 5.62702C70.8691 5.62702 71.5589 5.9165 72.1256 6.49546C72.6922 7.08058 72.9694 7.77656 72.9694 8.6142C72.9694 9.45184 72.6922 10.1601 72.1256 10.7391L72.2672 10.8746C72.8647 10.2648 73.1665 9.50111 73.1665 8.6142C73.1665 7.73344 72.8647 6.97587 72.2672 6.35996C71.6698 5.74405 70.9122 5.42993 70.0315 5.42993C69.1446 5.42993 68.3931 5.73789 67.7957 6.3538C67.1983 6.96971 66.8965 7.72728 66.8965 8.6142C66.8965 9.50111 67.1983 10.2587 67.7957 10.8746C68.3931 11.4905 69.1446 11.8046 70.0315 11.7985C70.9184 11.7985 71.6698 11.4905 72.2672 10.8746L72.1995 10.8068M68.4239 10.3141L68.3562 10.3819C68.812 10.8438 69.3725 11.0778 70.0315 11.0778C70.6843 11.0778 71.251 10.8438 71.7068 10.3819C72.1625 9.91993 72.3904 9.32249 72.3904 8.6142C72.3904 7.9059 72.1564 7.30846 71.7068 6.84653C71.251 6.3846 70.6843 6.15055 70.0315 6.15055C69.3725 6.15055 68.812 6.3846 68.3562 6.84653C67.9004 7.30846 67.6725 7.9059 67.6725 8.6142C67.6725 9.32249 67.9004 9.91993 68.3562 10.3819L68.4979 10.2464C68.079 9.82138 67.8696 9.28554 67.8696 8.62035C67.8696 7.95517 68.079 7.41933 68.4979 6.99435C68.9228 6.56937 69.4217 6.35996 70.0315 6.35996C70.6412 6.35996 71.1463 6.56937 71.5651 6.99435C71.9839 7.41933 72.1872 7.95517 72.1933 8.62035C72.1933 9.28554 71.9839 9.82138 71.5651 10.2464C71.1463 10.6713 70.6412 10.8808 70.0315 10.8808C69.4217 10.8808 68.9167 10.6713 68.4979 10.2464L68.4301 10.3141H68.4239Z" fill="white"/>
<path d="M74.127 11.5777V5.67114H75.057L77.9271 10.2658H77.9579L77.9271 9.12641V5.67114H78.6847V11.5777H77.8902L74.8907 6.75515H74.8537L74.8907 7.90074V11.5777H74.127Z" fill="white"/>
<path d="M74.1278 11.5781H74.2264V5.77009H74.9963L77.8726 10.3648H78.0574L78.0266 9.12681V5.77009H78.587V11.4796H77.9527L74.9408 6.657H74.7561L74.793 7.90114V11.4796H74.1278V11.5781H74.2264H74.1278V11.6767H74.9901V7.89499L74.9532 6.75555H74.8546V6.85409H74.8916V6.75555L74.8053 6.81098L77.8418 11.6767H78.7841V5.573H77.8295V9.12681L77.8603 10.2662H77.9588V10.1677H77.928V10.2662L78.0081 10.217L75.1071 5.573H74.0293V11.6767H74.1278V11.5781Z" fill="white"/>
<path d="M66.8046 20.1994C64.4888 20.1994 62.598 21.9609 62.598 24.3876C62.598 26.8143 64.4888 28.5758 66.8046 28.5758C69.1205 28.5758 71.0113 26.7958 71.0113 24.3876C71.0113 21.9794 69.1266 20.1994 66.8046 20.1994ZM66.8046 26.9252C65.5359 26.9252 64.4395 25.8781 64.4395 24.3876C64.4395 22.8971 65.5359 21.85 66.8046 21.85C68.0734 21.85 69.1697 22.8786 69.1697 24.3876C69.1697 25.8966 68.0796 26.9252 66.8046 26.9252ZM57.6276 20.1994C55.3117 20.1994 53.4209 21.9609 53.4209 24.3876C53.4209 26.8143 55.3117 28.5758 57.6276 28.5758C59.9434 28.5758 61.8342 26.7958 61.8342 24.3876C61.8342 21.9794 59.9434 20.1994 57.6276 20.1994ZM57.6276 26.9252C56.3588 26.9252 55.2625 25.8781 55.2625 24.3876C55.2625 22.8971 56.3588 21.85 57.6276 21.85C58.8963 21.85 59.9927 22.8786 59.9927 24.3876C59.9927 25.8966 58.8963 26.9252 57.6276 26.9252ZM46.7136 21.4805V23.2605H50.9696C50.8402 24.2583 50.5076 24.9912 50.0026 25.4962C49.3805 26.1121 48.4135 26.7958 46.7136 26.7958C44.096 26.7958 42.045 24.6832 42.045 22.0656C42.045 19.448 44.096 17.3354 46.7136 17.3354C48.124 17.3354 49.1588 17.8897 49.9225 18.6042L51.179 17.3477C50.1134 16.3315 48.703 15.5554 46.7198 15.5554C43.1352 15.5554 40.1172 18.4748 40.1172 22.0656C40.1172 25.6564 43.1352 28.5696 46.7198 28.5696C48.6537 28.5696 50.1196 27.9352 51.259 26.7465C52.4354 25.5701 52.7988 23.9195 52.7988 22.5891C52.7988 22.1765 52.768 21.7946 52.7064 21.4805H46.7198H46.7136ZM91.3487 22.8601C90.9977 21.9239 89.9383 20.1932 87.758 20.1932C85.5776 20.1932 83.8038 21.8932 83.8038 24.3814C83.8038 26.7281 85.5838 28.5696 87.9612 28.5696C89.8829 28.5696 90.9915 27.3932 91.4534 26.7157L90.0245 25.7611C89.5503 26.4632 88.8974 26.919 87.9612 26.919C87.025 26.919 86.3598 26.4879 85.9287 25.6502L91.5335 23.3344L91.3426 22.854L91.3487 22.8601ZM85.6331 24.2583C85.5838 22.6384 86.8895 21.8131 87.8257 21.8131C88.5586 21.8131 89.1746 22.1765 89.3778 22.7L85.6331 24.2583ZM81.0815 28.3233H82.9231V16.005H81.0815V28.3233ZM78.0635 21.1356H78.0019C77.5893 20.6429 76.7947 20.1994 75.797 20.1994C73.7029 20.1994 71.7812 22.041 71.7812 24.4061C71.7812 26.7712 73.7029 28.582 75.797 28.582C76.7947 28.582 77.5893 28.1385 78.0019 27.6273H78.0635V28.2309C78.0635 29.8323 77.2074 30.6945 75.8278 30.6945C74.7006 30.6945 73.9985 29.8877 73.7152 29.204L72.1138 29.8692C72.5696 30.9779 73.7952 32.3452 75.8278 32.3452C77.9896 32.3452 79.8127 31.0764 79.8127 27.9784V20.4519H78.0635V21.1356ZM75.9509 26.9252C74.6822 26.9252 73.6166 25.8596 73.6166 24.3999C73.6166 22.9402 74.6822 21.8439 75.9509 21.8439C77.2197 21.8439 78.1867 22.9217 78.1867 24.3999C78.1867 25.8781 77.2012 26.9252 75.9509 26.9252ZM99.9715 16.005H95.5677V28.3233H97.4031V23.6547H99.9715C102.01 23.6547 104.012 22.1765 104.012 19.8298C104.012 17.4832 102.01 16.005 99.9715 16.005ZM100.021 21.9424H97.4093V17.7234H100.021C101.394 17.7234 102.176 18.8629 102.176 19.836C102.176 20.8091 101.394 21.9486 100.021 21.9486V21.9424ZM111.384 20.1748C110.054 20.1748 108.674 20.7599 108.108 22.0594L109.74 22.7431C110.091 22.0595 110.738 21.8377 111.421 21.8377C112.37 21.8377 113.337 22.4105 113.355 23.4206V23.5438C113.023 23.3529 112.308 23.0695 111.44 23.0695C109.678 23.0695 107.892 24.0365 107.892 25.8411C107.892 27.4918 109.333 28.5512 110.947 28.5512C112.185 28.5512 112.863 27.9968 113.294 27.344H113.355V28.2925H115.129V23.5746C115.129 21.3881 113.497 20.1686 111.391 20.1686L111.384 20.1748ZM111.163 26.9252C110.559 26.9252 109.721 26.6234 109.721 25.8781C109.721 24.9296 110.768 24.5601 111.668 24.5601C112.475 24.5601 112.856 24.7325 113.349 24.9727C113.207 26.1121 112.222 26.919 111.163 26.919V26.9252ZM121.59 20.4458L119.484 25.7857H119.422L117.236 20.4458H115.252L118.535 27.9106L116.663 32.0619H118.584L123.641 20.4458H121.596H121.59ZM105.034 28.3233H106.87V16.005H105.034V28.3233Z" fill="white"/>
<path d="M9.95578 6.20623C9.6663 6.50803 9.5 6.97612 9.5 7.59203V29.3645C9.5 29.9743 9.6663 30.4424 9.95578 30.7503L10.0297 30.8242L22.2247 18.6292V18.3397L10.0297 6.13232L9.95578 6.20623Z" fill="#5BC9F4"/>
<mask id="mask0_470_8944" style="mask-type:luminance" maskUnits="userSpaceOnUse" x="22" y="14" width="11" height="9">
<path d="M26.2896 22.6832L22.2246 18.6182V18.3287L26.2896 14.2637L31.1984 17.0538C32.5719 17.836 32.5719 19.1109 31.1984 19.8931L26.382 22.6278L26.2896 22.6832Z" fill="white"/>
</mask>
<g mask="url(#mask0_470_8944)">
<path d="M32.5719 14.2588H22.2246V22.6783H32.5719V14.2588Z" fill="url(#paint0_linear_470_8944)"/>
</g>
<mask id="mask1_470_8944" style="mask-type:luminance" maskUnits="userSpaceOnUse" x="9" y="18" width="18" height="14">
<path d="M26.3814 22.6313L22.224 18.4739L9.95508 30.7428C10.4109 31.2233 11.1561 31.2787 11.9999 30.8044L26.3814 22.6313Z" fill="white"/>
</mask>
<g mask="url(#mask1_470_8944)">
<path d="M18.1725 10.2593L3.55664 24.8752L18.1725 39.4911L32.7884 24.8752L18.1725 10.2593Z" fill="url(#paint1_linear_470_8944)"/>
</g>
<mask id="mask2_470_8944" style="mask-type:luminance" maskUnits="userSpaceOnUse" x="9" y="5" width="18" height="14">
<path d="M26.3834 14.3193L12.0019 6.14617C11.1581 5.66576 10.4066 5.72735 9.95703 6.20777L22.226 18.4767L26.3834 14.3193Z" fill="white"/>
</mask>
<g mask="url(#mask2_470_8944)">
<path d="M18.1686 -2.54729L3.55273 12.0686L18.1686 26.6845L32.7845 12.0686L18.1686 -2.54729Z" fill="url(#paint2_linear_470_8944)"/>
</g>
<defs>
<linearGradient id="paint0_linear_470_8944" x1="30.2668" y1="18.7487" x2="6.43842" y2="18.7487" gradientUnits="userSpaceOnUse">
<stop stop-color="#FEE000"/>
<stop offset="0.4" stop-color="#FBBD0D"/>
<stop offset="0.77" stop-color="#F9A418"/>
<stop offset="1" stop-color="#F99B1C"/>
</linearGradient>
<linearGradient id="paint1_linear_470_8944" x1="23.2649" y1="19.8717" x2="0.855051" y2="42.2816" gradientUnits="userSpaceOnUse">
<stop stop-color="#EF4547"/>
<stop offset="1" stop-color="#C6196D"/>
</linearGradient>
<linearGradient id="paint2_linear_470_8944" x1="0.888513" y1="-5.423" x2="19.1871" y2="12.8756" gradientUnits="userSpaceOnUse">
<stop stop-color="#279E6F"/>
<stop offset="0.04" stop-color="#2B9F6E"/>
<stop offset="0.46" stop-color="#52B16B"/>
<stop offset="0.8" stop-color="#6BBC69"/>
<stop offset="1" stop-color="#74C169"/>
</linearGradient>
</defs>
</svg>
