<svg width="26" height="26" viewBox="0 0 26 26" fill="none" xmlns="http://www.w3.org/2000/svg">
<path d="M6.32691 3.60201L5.46838 4.16244C3.20952 5.63566 2.93248 6.16669 3.5085 8.4708C4.37101 11.9313 5.9113 14.8092 8.66398 17.5609C11.4142 20.3131 14.2911 21.8526 17.7552 22.7173C19.5348 23.1606 20.314 23.043 21.1407 22.0669L21.3178 21.8478C21.4365 21.693 21.564 21.5108 21.7452 21.2391L22.6226 19.8978C23.2962 18.8659 22.956 17.6828 22.0063 17.1126L18.1764 14.8168L18.0799 14.7693C17.8488 14.6784 17.5817 14.7266 17.3964 14.9013L16.1547 16.0702L15.925 15.9623C14.4604 15.264 13.6941 14.7343 12.5928 13.6322L12.3796 13.4157C11.4181 12.4234 10.9114 11.6619 10.2623 10.2984L10.1541 10.0697L11.3245 8.82827C11.5241 8.61643 11.5586 8.29771 11.4088 8.04811L9.11251 4.22019C8.54403 3.2703 7.35954 2.92936 6.32691 3.60201Z" fill="#1E1E1E"/>
</svg>
