<svg width="26" height="26" viewBox="0 0 26 26" fill="none" xmlns="http://www.w3.org/2000/svg">
<path d="M12.9998 2.88965C18.584 2.88965 23.1109 6.45471 23.1109 10.8536C23.1109 15.2516 18.584 18.8166 12.9998 18.8166C12.4437 18.8169 11.8883 18.7812 11.3367 18.7096L7.09201 21.5148C6.60956 21.7726 6.43912 21.7444 6.63749 21.1129L7.49645 17.5342C4.72312 16.1137 2.88867 13.652 2.88867 10.8536C2.88867 6.45568 7.41556 2.88965 12.9998 2.88965ZM18.688 10.732L20.1036 9.34646C20.1852 9.26074 20.2308 9.14634 20.2307 9.02736C20.2305 8.90837 20.1847 8.79408 20.1028 8.70857C20.0209 8.62306 19.9094 8.57299 19.7917 8.56892C19.674 8.56486 19.5593 8.6071 19.4719 8.68676L17.6153 10.5024V9.00202C17.6153 8.88021 17.5674 8.7634 17.4821 8.67727C17.3969 8.59115 17.2813 8.54276 17.1607 8.54276C17.0402 8.54276 16.9246 8.59115 16.8394 8.67727C16.7541 8.7634 16.7062 8.88021 16.7062 9.00202V11.49C16.6892 11.5609 16.6892 11.635 16.7062 11.706V13.1061C16.7062 13.2279 16.7541 13.3447 16.8394 13.4309C16.9246 13.517 17.0402 13.5654 17.1607 13.5654C17.2813 13.5654 17.3969 13.517 17.4821 13.4309C17.5674 13.3447 17.6153 13.2279 17.6153 13.1061V11.7799L18.0264 11.3781L19.4016 13.3562C19.4359 13.4056 19.4795 13.4476 19.5299 13.48C19.5804 13.5123 19.6366 13.5343 19.6954 13.5447C19.7543 13.5551 19.8146 13.5537 19.8729 13.5405C19.9312 13.5274 19.9863 13.5028 20.0352 13.4681C20.0841 13.4334 20.1257 13.3893 20.1577 13.3384C20.1897 13.2874 20.2115 13.2306 20.2218 13.1711C20.2321 13.1117 20.2307 13.0508 20.2177 12.9919C20.2046 12.933 20.1803 12.8772 20.1459 12.8278L18.688 10.731V10.732ZM15.8396 12.6041H14.4336V9.01661C14.4283 8.89859 14.3781 8.78721 14.2935 8.70561C14.209 8.62402 14.0965 8.57849 13.9796 8.57849C13.8627 8.57849 13.7502 8.62402 13.6657 8.70561C13.5811 8.78721 13.5309 8.89859 13.5256 9.01661V13.0633C13.5256 13.3163 13.7278 13.5226 13.9791 13.5226H15.8396C15.9601 13.5226 16.0757 13.4742 16.161 13.388C16.2462 13.3019 16.2941 13.1851 16.2941 13.0633C16.2941 12.9415 16.2462 12.8247 16.161 12.7386C16.0757 12.6524 15.9601 12.6041 15.8396 12.6041ZM10.1995 11.5415L10.8697 9.88063L11.4841 11.5415H10.1995ZM12.629 12.0164L12.631 12.0008C12.6307 11.8851 12.587 11.7738 12.5087 11.6894L11.5014 8.96504C11.4592 8.83521 11.3788 8.72149 11.2709 8.63908C11.163 8.55667 11.0328 8.50949 10.8976 8.50384C10.7615 8.50324 10.6284 8.54453 10.5161 8.62222C10.4038 8.69991 10.3175 8.81033 10.2688 8.93877L8.66934 12.9037C8.64677 12.9596 8.6353 13.0194 8.63559 13.0797C8.63589 13.14 8.64793 13.1997 8.67105 13.2553C8.69416 13.3109 8.72789 13.3613 8.77031 13.4038C8.81273 13.4462 8.863 13.4798 8.91826 13.5026C8.97353 13.5254 9.03269 13.537 9.09239 13.5367C9.15208 13.5364 9.21113 13.5242 9.26617 13.5009C9.32121 13.4775 9.37115 13.4434 9.41316 13.4006C9.45516 13.3577 9.4884 13.3069 9.51097 13.2511L9.82875 12.46H11.8221L12.11 13.2384C12.1296 13.2966 12.1605 13.3503 12.201 13.3961C12.2414 13.442 12.2906 13.4792 12.3455 13.5056C12.4005 13.5319 12.4601 13.5468 12.5209 13.5495C12.5816 13.5521 12.6423 13.5424 12.6993 13.5209C12.7563 13.4994 12.8084 13.4666 12.8526 13.4243C12.8968 13.3821 12.9322 13.3314 12.9566 13.2751C12.981 13.2188 12.994 13.1582 12.9948 13.0967C12.9956 13.0353 12.9842 12.9743 12.9613 12.9174L12.629 12.0164ZM9.43008 9.02148C9.43008 8.89984 9.38233 8.78318 9.2973 8.69708C9.21226 8.61098 9.0969 8.56248 8.97652 8.56222H5.85171C5.73116 8.56222 5.61555 8.61061 5.53032 8.69673C5.44508 8.78286 5.39719 8.89967 5.39719 9.02148C5.39719 9.14328 5.44508 9.26009 5.53032 9.34622C5.61555 9.43234 5.73116 9.48073 5.85171 9.48073H6.96875V13.1158C6.96875 13.2376 7.01663 13.3545 7.10187 13.4406C7.18711 13.5267 7.30272 13.5751 7.42326 13.5751C7.54381 13.5751 7.65942 13.5267 7.74466 13.4406C7.8299 13.3545 7.87778 13.2376 7.87778 13.1158V9.48073H8.97556C9.09611 9.48073 9.21172 9.43234 9.29695 9.34622C9.38219 9.26009 9.43008 9.14328 9.43008 9.02148Z" fill="#1E1E1E"/>
</svg>
