<svg width="122" height="22" viewBox="0 0 122 22" fill="none" xmlns="http://www.w3.org/2000/svg">
<path d="M27.4569 10.4226H20.0605V12.954H27.4569V10.4226Z" fill="white"/>
<path d="M33.2826 2.13867H32.6441C32.0796 2.13867 31.5382 2.36759 31.139 2.77508C30.7399 3.18257 30.5156 3.73524 30.5156 4.31151V20.5209H39.801V17.8048H33.2826V2.13867Z" fill="white"/>
<path d="M44.5281 6.7124H41.8516V20.6023H44.5281V6.7124Z" fill="white"/>
<path d="M43.181 1.44884C42.6879 1.44884 42.215 1.64841 41.8659 2.00378C41.5168 2.35916 41.32 2.84135 41.3186 3.34464C41.315 3.59404 41.3602 3.84167 41.4516 4.073C41.5429 4.30432 41.6786 4.5147 41.8507 4.69181C42.1116 4.9599 42.4447 5.1428 42.8076 5.21727C43.1705 5.29174 43.547 5.25442 43.8891 5.11006C44.2312 4.9657 44.5236 4.72081 44.7291 4.40648C44.9346 4.09215 45.044 3.72256 45.0433 3.34464C45.049 3.09578 45.0047 2.84837 44.9132 2.61763C44.8217 2.38689 44.6849 2.1777 44.5112 2.00292C44.3381 1.82298 44.1308 1.68102 43.9021 1.58575C43.6734 1.49047 43.428 1.44388 43.181 1.44884Z" fill="white"/>
<path d="M54.0138 2.49172L53.6254 2.25271C52.8709 1.72599 51.9461 1.5177 51.0446 1.67148C50.3361 1.68182 49.6457 1.90187 49.0573 2.30492C48.4688 2.70797 48.0076 3.2767 47.7296 3.9421C47.2546 4.81167 47.0106 5.79294 47.0219 6.78851V20.6241H49.709V10.3031H52.6942V7.80431H49.725V7.09814C49.9432 5.26209 50.4114 4.64284 50.7413 4.46358C51.0337 4.31921 51.357 4.25203 51.6814 4.26816C52.0058 4.28429 52.3211 4.38323 52.5984 4.55592L53.1305 4.85469L53.338 4.25716C53.5402 3.71395 53.7052 3.23592 53.8329 2.91543L54.0138 2.49172Z" fill="white"/>
<path d="M63.7889 16.914C63.3821 17.265 62.9172 17.5391 62.4161 17.7233C61.88 17.928 61.3123 18.0328 60.7399 18.033C60.1887 18.0473 59.6409 17.9419 59.1326 17.7237C58.6244 17.5055 58.1674 17.1795 57.792 16.7673C57.09 16.0213 56.6631 15.0499 56.5841 14.0187H67.8117V13.4754C67.856 11.7813 67.3302 10.1229 66.3218 8.77668C65.6779 7.90814 64.8405 7.20872 63.8791 6.73639C62.9176 6.26406 61.8597 6.03241 60.7931 6.06063C59.7539 6.02868 58.7223 6.25118 57.7845 6.70952C56.8467 7.16786 56.0301 7.84873 55.4028 8.6952C54.3367 10.0846 53.7807 11.8112 53.8313 13.5754C53.8818 15.3395 54.5357 17.03 55.6795 18.3535C56.3266 19.0986 57.129 19.6863 58.0277 20.0736C58.9263 20.4609 59.8985 20.6378 60.8729 20.5915C61.7798 20.6022 62.6811 20.4458 63.5335 20.1298C64.319 19.82 65.0409 19.3631 65.6619 18.7826C66.3467 18.1194 66.9059 17.3331 67.3115 16.4631C67.4982 16.0774 67.6341 15.6683 67.7159 15.2463H65.0021C64.6819 15.8611 64.2729 16.4233 63.7889 16.914ZM57.9942 9.81964C58.761 9.10181 59.7689 8.71278 60.8091 8.73323C61.4693 8.73349 62.1215 8.88184 62.7194 9.16779C63.2794 9.42011 63.7734 9.80345 64.1614 10.2868C64.4402 10.6554 64.6577 11.0683 64.8052 11.509H56.9247C57.1507 10.8702 57.5165 10.2924 57.9942 9.81964Z" fill="white"/>
<path d="M17.9428 12.1065C17.6138 11.3834 17.1344 10.742 16.5381 10.227C16.1087 9.86775 15.6345 9.56818 15.128 9.33617C15.5504 8.97887 15.9102 8.55088 16.1922 8.07049C16.6626 7.26027 16.9073 6.33428 16.8999 5.39247C16.9071 4.38587 16.632 3.39819 16.1071 2.54605C15.5886 1.68985 14.8253 1.01674 13.9201 0.617658C12.7317 0.159201 11.4644 -0.0477925 10.1953 0.00926204H5.93838C5.30283 0.0107006 4.69379 0.269446 4.24488 0.728731C3.79598 1.18802 3.54387 1.81033 3.54387 2.45914V11.3243C4.05039 10.853 4.58341 10.4123 5.14021 10.0043C5.61778 9.64467 6.11719 9.31628 6.63545 9.02111V3.13815H11.0307C11.7538 3.12033 12.465 3.32884 13.0687 3.73568C13.3018 3.9326 13.4863 4.18267 13.6074 4.46573C13.7285 4.74879 13.7827 5.05692 13.7658 5.36531C13.7732 5.88606 13.6185 6.39578 13.3241 6.82111C13.2302 6.96156 13.1214 7.09091 12.9995 7.20679C12.7448 7.46112 12.4426 7.66062 12.1109 7.79346C11.7675 7.92079 11.4101 8.0047 11.0467 8.04333V8.07592C10.2949 8.2261 9.55764 8.44425 8.84371 8.72777C8.18221 8.97685 7.53703 9.26898 6.91214 9.60234L6.65141 9.75988C6.13315 10.055 5.63374 10.3834 5.15617 10.7431C4.5981 11.1493 4.06498 11.5901 3.55984 12.0631C3.06407 12.5337 2.59839 13.0363 2.1657 13.5678C1.45308 14.44 0.82741 15.3826 0.297982 16.3816C0.19688 16.5772 0.0904592 16.7727 0 16.9791L0.532113 17.2725C1.28698 16.2615 2.1609 15.3493 3.13414 14.5564L3.57048 14.2251V20.6838H11.7012C13.504 20.7649 15.2664 20.1236 16.6126 18.8967C17.2141 18.3374 17.6922 17.6539 18.0151 16.8915C18.3381 16.1292 18.4984 15.3054 18.4856 14.4749C18.4746 13.6547 18.2894 12.8466 17.9428 12.1065ZM14.7821 16.1317C14.4635 16.6186 14.0094 16.9969 13.4784 17.2181C12.6774 17.4876 11.8365 17.6126 10.9935 17.5875H6.5982V12.4596C7.00793 12.2858 7.43894 12.15 7.84866 11.9979C8.40778 11.8344 8.97651 11.7074 9.55142 11.6177C10.0279 11.5345 10.5101 11.4891 10.9935 11.4818C11.4404 11.4818 11.8874 11.4818 12.3291 11.4818L12.6164 11.5416C13.3756 11.693 14.0663 12.0913 14.5852 12.6769C15.0352 13.203 15.2795 13.8798 15.2716 14.5781C15.2683 15.135 15.0974 15.6773 14.7821 16.1317Z" fill="url(#paint0_linear_470_9684)"/>
<path d="M117.98 16.914C117.572 17.2662 117.105 17.5404 116.602 17.7234C116.066 17.929 115.498 18.0339 114.926 18.033C114.375 18.0476 113.828 17.9423 113.321 17.7241C112.813 17.5058 112.357 17.1797 111.983 16.7673C111.282 16.0204 110.853 15.0499 110.77 14.0187H121.998V13.4755C122.041 11.7823 121.518 10.1247 120.513 8.77672C119.869 7.9085 119.031 7.20933 118.07 6.73703C117.109 6.26474 116.051 6.03289 114.984 6.06067C113.349 6.01413 111.756 6.59566 110.52 7.6903L110.376 7.59795C109.931 7.28206 109.457 7.011 108.961 6.78857C108.432 6.57285 107.87 6.45512 107.301 6.44092C107.045 6.4319 106.788 6.44462 106.534 6.47894C105.738 6.59197 104.978 6.89329 104.315 7.35894C104.246 7.40239 104.188 7.46215 104.124 7.51104V6.0498H101.426V13.3125C101.426 13.4918 101.426 13.6656 101.426 13.8557C101.426 14.5782 101.426 15.3007 101.426 16.0286C101.458 16.9792 101.575 18.1634 100.793 18.8478C100.62 19.0035 100.414 19.1148 100.191 19.1725C99.968 19.2301 99.7346 19.2324 99.5104 19.1792C99.5104 18.2883 99.5104 16.6044 99.5104 13.3777C99.5362 11.5234 98.855 9.73141 97.6108 8.38017C96.9606 7.63396 96.1596 7.04062 95.2629 6.64111C94.3663 6.24159 93.3955 6.04541 92.4174 6.0661C90.8211 6.07229 89.2774 6.64885 88.0541 7.69573C86.966 8.70401 86.022 9.86331 85.2498 11.1397C84.3776 12.4168 83.4267 13.636 82.403 14.79C80.9504 16.4523 79.4604 18.0493 77.1298 18.0493C76.2715 18.0615 75.4241 17.8522 74.6661 17.4409C73.9512 17.0443 73.3608 16.4492 72.9633 15.7244C72.5523 15.0036 72.3357 14.1845 72.3355 13.3505C72.3241 12.7409 72.4386 12.1356 72.6715 11.5741C72.9043 11.0126 73.2503 10.5073 73.687 10.0913C74.1424 9.64162 74.6821 9.2905 75.2737 9.05901C75.8653 8.82751 76.4966 8.72041 77.1298 8.74413C77.9179 8.70884 78.7024 8.87285 79.4134 9.22159C80.1245 9.57033 80.7402 10.093 81.2058 10.7431L81.4505 11.0745L83.1054 8.90165C82.7623 8.39176 82.342 7.94072 81.8603 7.56536C81.2148 7.08503 80.4955 6.71786 79.7318 6.47894C78.9057 6.2029 78.0416 6.06353 77.1724 6.0661C75.834 6.04622 74.513 6.37727 73.3358 7.02758C72.206 7.65123 71.2655 8.57942 70.6167 9.71104C69.9598 10.8419 69.6159 12.1336 69.6217 13.4483C69.6094 14.3989 69.7925 15.3415 70.1591 16.2154C70.5257 17.0893 71.0677 17.875 71.7501 18.5219C72.4542 19.2067 73.284 19.7425 74.1917 20.0987C75.0995 20.4548 76.0672 20.6241 77.0393 20.597C78.2118 20.6171 79.3703 20.335 80.4076 19.7767C81.2699 19.3317 82.0567 18.7485 82.7383 18.0493C83.4635 17.2918 84.1491 16.4958 84.7922 15.6646L85.4627 14.7846C85.7184 16.153 86.3559 17.4168 87.2985 18.4241C88.5037 19.7395 90.167 20.5188 91.9297 20.594C93.6925 20.6692 95.4137 20.0343 96.7222 18.8261C96.7038 19.1908 96.7342 19.5563 96.8126 19.9125C96.9062 20.3986 97.1596 20.8375 97.531 21.1565C98.0954 21.6226 98.7823 21.9079 99.5051 21.9767C100.254 22.0562 101.01 21.9317 101.696 21.6159C102.382 21.3 102.974 20.8041 103.411 20.1787C103.896 19.3372 104.142 18.3738 104.119 17.3975C104.145 16.4468 104.119 15.4745 104.119 14.5239C104.064 13.5995 104.161 12.6724 104.406 11.7807C104.515 11.4512 104.662 11.1358 104.842 10.8409C105.22 10.2977 106.524 8.74412 108.785 10.0261C108.14 11.3694 107.9 12.8781 108.096 14.3607C108.292 15.8433 108.916 17.233 109.887 18.3535C110.533 19.0995 111.335 19.6879 112.234 20.0753C113.133 20.4626 114.106 20.639 115.08 20.5915C115.987 20.6017 116.888 20.4453 117.741 20.1298C118.526 19.8205 119.248 19.3636 119.869 18.7826C120.554 18.1195 121.113 17.3332 121.519 16.4631C121.626 16.2405 121.717 16.0098 121.79 15.7733H118.879C118.63 16.1923 118.328 16.5758 117.98 16.914ZM96.4082 14.0296C95.6314 17.6745 90.7891 19.4345 88.7086 15.8167C88.2794 15.092 88.0497 14.2625 88.0434 13.4157C88.0353 12.8119 88.1455 12.2125 88.3675 11.6528C88.5896 11.0931 88.919 10.5843 89.3365 10.1565C89.7245 9.72385 90.1976 9.37975 90.7248 9.14666C91.2521 8.91358 91.8216 8.79677 92.3961 8.80387C92.964 8.79565 93.5271 8.91163 94.0475 9.14399C94.5679 9.37635 95.0336 9.71973 95.4132 10.151C95.8794 10.6637 96.2142 11.286 96.3878 11.9627C96.5615 12.6394 96.5685 13.3494 96.4082 14.0296ZM112.185 9.81968C112.95 9.10122 113.956 8.71197 114.995 8.73326C115.655 8.73228 116.308 8.88069 116.905 9.16783C117.467 9.42012 117.963 9.8034 118.353 10.2868C118.63 10.6558 118.845 11.0687 118.991 11.5091H111.116C111.338 10.8683 111.704 10.2897 112.185 9.81968Z" fill="#8FF8FF"/>
<defs>
<linearGradient id="paint0_linear_470_9684" x1="-0.026553" y1="0.00924989" x2="8.29003" y2="24.1955" gradientUnits="userSpaceOnUse">
<stop stop-color="#4BFFE9"/>
<stop offset="1" stop-color="#03C8E8"/>
</linearGradient>
</defs>
</svg>
