<svg width="80" height="81" viewBox="0 0 80 81" fill="none" xmlns="http://www.w3.org/2000/svg">
<path d="M52.7545 48.0002H55.8034L58.2883 71.7344H50.2305L52.7545 48.0002Z" fill="url(#paint0_linear_470_8595)"/>
<path d="M63.4164 58.6068C66.4558 58.9132 64.4421 55.2579 62.9728 52.0076C61.5036 48.7572 58.3249 42.6428 53.4457 42.6428C49.4476 42.6428 41.8714 56.9897 43.6456 58.3395C45.065 59.4194 48.3968 58.5721 50.6146 56.8723C51.2799 58.3721 52.2845 59.0741 53.8813 59.1941C55.4781 59.3141 56.4094 58.2221 57.6662 56.8723C58.1097 57.3722 60.7647 58.3395 63.4164 58.6068Z" fill="url(#paint1_linear_470_8595)"/>
<path d="M63.4164 50.3475C66.3253 51.2805 64.4421 46.9987 62.9728 43.7483C61.5036 40.4979 58.3249 34.3835 53.4457 34.3835C49.4476 34.3835 41.8714 48.7304 43.6456 50.0803C45.065 51.1601 48.3968 48.5134 50.6146 46.8136C51.2799 48.3134 52.2845 50.8148 53.8813 50.9348C55.4781 51.0548 56.4094 48.1634 57.6662 46.8136C58.1097 47.3135 60.7647 49.4971 63.4164 50.3475Z" fill="url(#paint2_linear_470_8595)"/>
<path d="M62.4765 40.6252C64.5836 41.3495 63.0112 37.6133 61.818 34.9623C60.6248 32.3113 58.2637 27.3415 54.3114 27.0605C50.6153 26.7978 43.9152 39.1292 45.356 40.2301C46.5087 41.1109 49.5612 39.3745 51.3623 37.9881C51.9026 39.2114 52.7184 41.2516 54.0152 41.3495C55.312 41.4473 56.0683 39.0891 57.0889 37.9881C57.4491 38.3959 60.5976 39.9794 62.4765 40.6252Z" fill="url(#paint3_linear_470_8595)"/>
<path d="M24.3737 48.0002H27.4226L29.9075 71.7344H21.8496L24.3737 48.0002Z" fill="url(#paint4_linear_470_8595)"/>
<path d="M35.0355 58.6068C38.075 58.9132 36.0612 55.2579 34.592 52.0076C33.1227 48.7572 29.944 42.6428 25.0649 42.6428C21.0667 42.6428 13.4906 56.9897 15.2648 58.3395C16.6842 59.4194 20.016 58.5721 22.2337 56.8723C22.8991 58.3721 23.9036 59.0741 25.5004 59.1941C27.0972 59.3141 28.0286 58.2221 29.2853 56.8723C29.7289 57.3722 32.3838 58.3395 35.0355 58.6068Z" fill="url(#paint5_linear_470_8595)"/>
<path d="M35.0355 50.3475C37.9444 51.2805 36.0612 46.9987 34.592 43.7483C33.1227 40.4979 29.944 34.3835 25.0649 34.3835C21.0667 34.3835 13.4906 48.7304 15.2648 50.0803C16.6842 51.1601 20.016 48.5134 22.2337 46.8136C22.8991 48.3134 23.9036 50.8148 25.5004 50.9348C27.0972 51.0548 28.0286 48.1634 29.2853 46.8136C29.7289 47.3135 32.3838 49.4971 35.0355 50.3475Z" fill="url(#paint6_linear_470_8595)"/>
<path d="M34.0956 40.6252C36.2027 41.3495 34.6303 37.6133 33.4371 34.9623C32.244 32.3113 29.8829 27.3415 25.9305 27.0605C22.2344 26.7978 15.5343 39.1292 16.9752 40.2301C18.1279 41.1109 21.1804 39.3745 22.9814 37.9881C23.5218 39.2114 24.3376 41.2516 25.6343 41.3495C26.9311 41.4473 27.6874 39.0891 28.708 37.9881C29.0683 38.3959 32.2167 39.9794 34.0956 40.6252Z" fill="url(#paint7_linear_470_8595)"/>
<path d="M39.9303 42.0807H43.7791L46.9158 72.0409H36.7441L39.9303 42.0807Z" fill="url(#paint8_linear_470_8595)"/>
<path d="M53.391 55.4693C57.2278 55.856 54.6858 51.2419 52.8311 47.1389C50.9764 43.0359 46.9638 35.3175 40.8048 35.3175C35.7578 35.3175 26.1942 53.4279 28.4339 55.1319C30.2256 56.495 34.4314 55.4254 37.231 53.2797C38.0708 55.173 39.3389 56.0592 41.3546 56.2106C43.3703 56.3621 44.5459 54.9837 46.1323 53.2797C46.6922 53.9108 50.0437 55.1319 53.391 55.4693Z" fill="#66A865"/>
<path d="M53.391 45.0437C57.063 46.2214 54.6858 40.8164 52.8311 36.7134C50.9764 32.6103 46.9638 24.892 40.8048 24.892C35.7578 24.892 26.1942 43.0024 28.4339 44.7064C30.2256 46.0695 34.4314 42.7284 37.231 40.5827C38.0708 42.476 39.3389 45.6336 41.3546 45.7851C43.3703 45.9365 44.5459 42.2867 46.1323 40.5827C46.6922 41.2138 50.0437 43.9702 53.391 45.0437Z" fill="url(#paint9_linear_470_8595)"/>
<path d="M52.2046 32.7711C54.8645 33.6854 52.8796 28.9691 51.3734 25.6227C49.8672 22.2762 46.0664 16.9994 41.0772 16.6447C36.4115 16.3131 28.7742 30.8826 30.593 32.2724C32.0481 33.3842 35.9013 31.1924 38.1749 29.4423C38.8569 30.9865 39.8868 33.5619 41.5237 33.6854C43.1606 33.8089 44.1154 30.832 45.4037 29.4423C45.8584 29.957 49.8328 31.9559 52.2046 32.7711Z" fill="url(#paint10_linear_470_8595)"/>
<path d="M49.6988 22.2846C51.9496 23.5797 50.5663 19.3928 49.3237 16.5861C48.0811 13.7794 45.3927 8.49951 41.2662 8.49951C37.8848 8.49951 31.4773 20.8882 32.9778 22.0538C34.1783 22.9862 36.9961 20.7007 38.8718 19.2329C39.4345 20.5281 40.2841 22.6881 41.6346 22.7917C42.9851 22.8953 43.7727 20.3985 44.8356 19.2329C45.2107 19.6646 47.8981 21.2485 49.6988 22.2846Z" fill="url(#paint11_linear_470_8595)"/>
<defs>
<linearGradient id="paint0_linear_470_8595" x1="54.2594" y1="48.0002" x2="54.2594" y2="71.7344" gradientUnits="userSpaceOnUse">
<stop stop-color="#383838"/>
<stop offset="1" stop-color="#885D2A"/>
</linearGradient>
<linearGradient id="paint1_linear_470_8595" x1="53.8769" y1="49.7566" x2="54.1902" y2="59.2031" gradientUnits="userSpaceOnUse">
<stop stop-color="#5C8B5B"/>
<stop offset="1" stop-color="#2E4E2D"/>
</linearGradient>
<linearGradient id="paint2_linear_470_8595" x1="53.8769" y1="39.831" x2="54.1616" y2="50.9384" gradientUnits="userSpaceOnUse">
<stop stop-color="#5C8B5B"/>
<stop offset="1" stop-color="#2E4E2D"/>
</linearGradient>
<linearGradient id="paint3_linear_470_8595" x1="54.3336" y1="27.0564" x2="54.3336" y2="41.3524" gradientUnits="userSpaceOnUse">
<stop stop-color="#5C8B5B"/>
<stop offset="1" stop-color="#2E4E2D"/>
</linearGradient>
<linearGradient id="paint4_linear_470_8595" x1="25.8785" y1="48.0002" x2="25.8785" y2="71.7344" gradientUnits="userSpaceOnUse">
<stop stop-color="#383838"/>
<stop offset="1" stop-color="#885D2A"/>
</linearGradient>
<linearGradient id="paint5_linear_470_8595" x1="25.496" y1="49.7566" x2="25.8093" y2="59.2031" gradientUnits="userSpaceOnUse">
<stop stop-color="#5C8B5B"/>
<stop offset="1" stop-color="#2E4E2D"/>
</linearGradient>
<linearGradient id="paint6_linear_470_8595" x1="25.496" y1="39.831" x2="25.7807" y2="50.9384" gradientUnits="userSpaceOnUse">
<stop stop-color="#5C8B5B"/>
<stop offset="1" stop-color="#2E4E2D"/>
</linearGradient>
<linearGradient id="paint7_linear_470_8595" x1="25.9528" y1="27.0564" x2="25.9528" y2="41.3524" gradientUnits="userSpaceOnUse">
<stop stop-color="#5C8B5B"/>
<stop offset="1" stop-color="#2E4E2D"/>
</linearGradient>
<linearGradient id="paint8_linear_470_8595" x1="41.83" y1="42.0807" x2="41.83" y2="72.0409" gradientUnits="userSpaceOnUse">
<stop stop-color="#100C08"/>
<stop offset="1" stop-color="#93642D"/>
</linearGradient>
<linearGradient id="paint9_linear_470_8595" x1="41.7084" y1="24.892" x2="41.7084" y2="45.7896" gradientUnits="userSpaceOnUse">
<stop offset="0.453125" stop-color="#83C082"/>
<stop offset="1" stop-color="#458244"/>
</linearGradient>
<linearGradient id="paint10_linear_470_8595" x1="41.9144" y1="16.6392" x2="41.9144" y2="33.6891" gradientUnits="userSpaceOnUse">
<stop stop-color="#66A865"/>
<stop offset="1" stop-color="#458244"/>
</linearGradient>
<linearGradient id="paint11_linear_470_8595" x1="41.8259" y1="8.49951" x2="41.8259" y2="22.7948" gradientUnits="userSpaceOnUse">
<stop stop-color="#83C082"/>
<stop offset="1" stop-color="#66A865"/>
</linearGradient>
</defs>
</svg>
