<svg width="80" height="81" viewBox="0 0 80 81" fill="none" xmlns="http://www.w3.org/2000/svg">
<g clip-path="url(#clip0_470_8434)">
<path d="M54.5248 9.8949L52.4199 13.5086L59.8918 19.8811V12.7221L54.5248 9.8949Z" fill="#50CCE0"/>
<path d="M65.9307 24.5778H64.8287V60.9091C64.8212 61.0547 64.8028 61.1996 64.7736 61.3423C64.7736 61.4905 64.7075 61.6273 64.6854 61.7755C64.6634 61.9237 64.5863 62.0491 64.5312 62.1859C64.1835 63.0189 63.5673 63.7015 62.7876 64.1173C62.0079 64.533 61.1129 64.6562 60.2553 64.4658C59.6815 64.3441 59.1428 64.0861 58.6819 63.7122C58.221 63.3383 57.8504 62.8587 57.5993 62.3112C57.4712 62.043 57.375 61.7598 57.3128 61.4677L57.2467 61.0117V60.7837C57.2411 60.7002 57.2411 60.6164 57.2467 60.5329V27.0288C57.2349 26.2343 56.9803 25.4641 56.5193 24.8286C56.0714 24.2286 55.4434 23.7995 54.734 23.6088C54.5678 23.5464 54.3929 23.5117 54.216 23.5062H53.9626H44.1875V25.7064H53.9847C54.047 25.7 54.1097 25.7 54.172 25.7064C54.4371 25.7738 54.6711 25.9351 54.8332 26.1624C55.0119 26.4047 55.1087 26.7012 55.1087 27.006V60.5101C55.1087 60.6013 55.1087 60.7153 55.1087 60.8407V61.1941C55.1087 61.4335 55.1749 61.6615 55.2189 61.9009C55.3108 62.3629 55.4589 62.8111 55.6597 63.2346C56.0465 64.1024 56.625 64.864 57.3486 65.4581C58.0722 66.0521 58.9206 66.4619 59.8255 66.6546C60.0569 66.6546 60.2773 66.7344 60.5087 66.7458C60.7401 66.7572 60.9605 66.7458 61.1699 66.7458C61.64 66.7555 62.1096 66.7096 62.5695 66.609C63.4528 66.3842 64.2721 65.9467 64.9609 65.3322C65.6481 64.7071 66.1873 63.9271 66.5368 63.0522C66.6272 62.8409 66.7045 62.6239 66.7683 62.4025C66.8314 62.1813 66.8829 61.9567 66.9226 61.7298C66.9644 61.5079 66.9902 61.2831 66.9998 61.0573V60.7039C67.0052 60.609 67.0052 60.5138 66.9998 60.4189V24.5778H65.9307Z" fill="#D7FAFF"/>
<path d="M65.1821 14.3863L59.8923 11.297L59.716 11.2058L58.9776 10.7726L55.1976 8.76624L54.5254 9.90622L58.9336 12.2432V20.8843C58.9345 21.5402 59.1032 22.1841 59.4226 22.7508C59.7419 23.3174 60.2005 23.7865 60.7519 24.1104L66.9784 27.7355V17.5897C66.9781 16.9394 66.8119 16.3008 66.4964 15.7383C66.181 15.1758 65.7276 14.7095 65.1821 14.3863Z" fill="#7CE3F3"/>
<path d="M61.7088 22.3518C61.4597 22.1979 61.2538 21.9793 61.1117 21.7177C60.9695 21.4561 60.896 21.1606 60.8983 20.8605L60.9707 14.1464L64.2558 16.1105C64.5093 16.2603 64.7192 16.4777 64.8637 16.7401C65.0082 17.0024 65.082 17.3001 65.0774 17.602L65.0053 24.2819L61.7088 22.3518Z" fill="#524C69"/>
<path fill-rule="evenodd" clip-rule="evenodd" d="M25.1012 29.7324H33.675H34.7772H42.2159C43.2136 29.7476 44.1765 29.353 44.8933 28.6349C45.6102 27.9169 46.0225 26.9341 46.0399 25.902V17.3066C46.0225 16.2745 45.6102 15.2917 44.8933 14.5737C44.1765 13.8556 43.2136 13.461 42.2159 13.4762H34.7441H33.675H25.1012C24.1054 13.464 23.1454 13.86 22.4309 14.5777C21.7164 15.2955 21.3056 16.2765 21.2882 17.3066V25.902C21.2953 26.4126 21.3997 26.9166 21.5952 27.3854C21.7907 27.8542 22.0737 28.2785 22.4277 28.6342C22.7818 28.9899 23.2001 29.27 23.6589 29.4584C24.1176 29.6468 24.6077 29.7399 25.1012 29.7324ZM33.675 6.49951H21.6298C18.8967 6.49951 16.6816 9.30387 16.6816 12.7694V68.4918H33.675H34.7772H50.6795V12.7694C50.6795 9.34947 48.4754 6.49951 45.7313 6.49951H34.7441H33.675Z" fill="url(#paint0_linear_470_8434)"/>
<path fill-rule="evenodd" clip-rule="evenodd" d="M13 69.4803C13 68.9281 13.4477 68.4803 14 68.4803H16.6808H33.6853H34.7873H50.0286H53.5249C54.0772 68.4803 54.5249 68.9281 54.5249 69.4803V73.4995C54.5249 74.0518 54.0772 74.4995 53.5249 74.4995H34.7873H33.6853H14C13.4477 74.4995 13 74.0518 13 73.4995V69.4803Z" fill="#D4F4F9"/>
<mask id="path-7-outside-1_470_8434" maskUnits="userSpaceOnUse" x="20.2871" y="12.4757" width="27" height="19" fill="black">
<rect fill="white" x="20.2871" y="12.4757" width="27" height="19"/>
<path fill-rule="evenodd" clip-rule="evenodd" d="M33.6741 13.4761H42.2149C43.2126 13.4609 44.1755 13.8555 44.8924 14.5736C45.6092 15.2916 46.0215 16.2744 46.0389 17.3065V25.9019C46.0215 26.934 45.6092 27.9168 44.8924 28.6348C44.1755 29.3529 43.2126 29.7475 42.2149 29.7323L35.8451 29.7323H25.1002C24.6067 29.7398 24.1165 29.6467 23.6578 29.4583C23.1991 29.2699 22.7808 28.9898 22.4267 28.6341C22.0726 28.2785 21.7897 27.8541 21.5942 27.3853C21.3986 26.9165 21.2943 26.4125 21.2871 25.9019V17.3065C21.3045 16.2764 21.7154 15.2954 22.4298 14.5776C23.1443 13.8599 24.1043 13.4639 25.1002 13.4761H33.6741V13.4761ZM35.8451 15.0835H25.1002C24.8098 15.0744 24.5205 15.1247 24.249 15.2317C23.9776 15.3386 23.7292 15.5 23.5182 15.7066C23.3073 15.9132 23.1378 16.1609 23.0197 16.4355C22.9016 16.71 22.8371 17.006 22.83 17.3065V25.9019C22.8371 26.2024 22.9016 26.4984 23.0197 26.7729C23.1378 27.0475 23.3073 27.2952 23.5182 27.5018C23.7292 27.7084 23.9776 27.8698 24.249 27.9767C24.5205 28.0837 24.8098 28.134 25.1002 28.1249H33.6741V28.1249H42.2149C42.5053 28.134 42.7945 28.0837 43.066 27.9767C43.3375 27.8698 43.5859 27.7084 43.7969 27.5018C44.0078 27.2952 44.1772 27.0475 44.2953 26.7729C44.4135 26.4984 44.478 26.2024 44.4851 25.9019V17.3065C44.478 17.006 44.4135 16.71 44.2953 16.4355C44.1772 16.1609 44.0078 15.9132 43.7969 15.7066C43.5859 15.5 43.3375 15.3386 43.066 15.2317C42.7945 15.1247 42.5053 15.0744 42.2149 15.0835L35.8451 15.0835Z"/>
</mask>
<path fill-rule="evenodd" clip-rule="evenodd" d="M33.6741 13.4761H42.2149C43.2126 13.4609 44.1755 13.8555 44.8924 14.5736C45.6092 15.2916 46.0215 16.2744 46.0389 17.3065V25.9019C46.0215 26.934 45.6092 27.9168 44.8924 28.6348C44.1755 29.3529 43.2126 29.7475 42.2149 29.7323L35.8451 29.7323H25.1002C24.6067 29.7398 24.1165 29.6467 23.6578 29.4583C23.1991 29.2699 22.7808 28.9898 22.4267 28.6341C22.0726 28.2785 21.7897 27.8541 21.5942 27.3853C21.3986 26.9165 21.2943 26.4125 21.2871 25.9019V17.3065C21.3045 16.2764 21.7154 15.2954 22.4298 14.5776C23.1443 13.8599 24.1043 13.4639 25.1002 13.4761H33.6741V13.4761ZM35.8451 15.0835H25.1002C24.8098 15.0744 24.5205 15.1247 24.249 15.2317C23.9776 15.3386 23.7292 15.5 23.5182 15.7066C23.3073 15.9132 23.1378 16.1609 23.0197 16.4355C22.9016 16.71 22.8371 17.006 22.83 17.3065V25.9019C22.8371 26.2024 22.9016 26.4984 23.0197 26.7729C23.1378 27.0475 23.3073 27.2952 23.5182 27.5018C23.7292 27.7084 23.9776 27.8698 24.249 27.9767C24.5205 28.0837 24.8098 28.134 25.1002 28.1249H33.6741V28.1249H42.2149C42.5053 28.134 42.7945 28.0837 43.066 27.9767C43.3375 27.8698 43.5859 27.7084 43.7969 27.5018C44.0078 27.2952 44.1772 27.0475 44.2953 26.7729C44.4135 26.4984 44.478 26.2024 44.4851 25.9019V17.3065C44.478 17.006 44.4135 16.71 44.2953 16.4355C44.1772 16.1609 44.0078 15.9132 43.7969 15.7066C43.5859 15.5 43.3375 15.3386 43.066 15.2317C42.7945 15.1247 42.5053 15.0744 42.2149 15.0835L35.8451 15.0835Z" fill="#F4FFF7"/>
<path d="M42.2149 13.4761V14.4761H42.2225L42.2302 14.476L42.2149 13.4761ZM33.6741 13.4761V12.4761H32.6741V13.4761H33.6741ZM44.8924 14.5736L44.1847 15.2801L44.1847 15.2801L44.8924 14.5736ZM46.0389 17.3065H47.0389V17.298L47.0388 17.2896L46.0389 17.3065ZM46.0389 25.9019L47.0388 25.9188L47.0389 25.9104V25.9019H46.0389ZM44.8924 28.6348L44.1847 27.9283L44.1847 27.9283L44.8924 28.6348ZM42.2149 29.7323L42.2302 28.7324L42.2225 28.7323H42.2149L42.2149 29.7323ZM35.8451 29.7323V30.7323H35.8451L35.8451 29.7323ZM25.1002 29.7323V28.7323H25.0926L25.0849 28.7324L25.1002 29.7323ZM23.6578 29.4583L23.2779 30.3833H23.2779L23.6578 29.4583ZM22.4267 28.6341L21.718 29.3396L21.718 29.3397L22.4267 28.6341ZM21.5942 27.3853L22.5171 27.0004L21.5942 27.3853ZM21.2871 25.9019H20.287L20.2872 25.916L21.2871 25.9019ZM21.2871 17.3065L20.2873 17.2896L20.2871 17.298V17.3065H21.2871ZM22.4298 14.5776L21.7211 13.8721L22.4298 14.5776ZM25.1002 13.4761L25.0879 14.4761H25.1002V13.4761ZM33.6741 13.4761V14.4761H34.6741V13.4761H33.6741ZM25.1002 15.0835L25.0689 16.083L25.0845 16.0835H25.1002V15.0835ZM35.8451 15.0835V16.0835V15.0835ZM24.249 15.2317L23.8826 14.3013L23.8826 14.3013L24.249 15.2317ZM23.5182 15.7066L22.8186 14.9921L22.8186 14.9921L23.5182 15.7066ZM23.0197 16.4355L23.9383 16.8306L23.0197 16.4355ZM22.83 17.3065L21.8303 17.2827L21.83 17.2946V17.3065H22.83ZM22.83 25.9019H21.83V25.9138L21.8303 25.9257L22.83 25.9019ZM23.0197 26.7729L23.9383 26.3778L23.9383 26.3778L23.0197 26.7729ZM23.5182 27.5018L22.8186 28.2163H22.8186L23.5182 27.5018ZM24.249 27.9767L23.8826 28.9071H23.8826L24.249 27.9767ZM25.1002 28.1249V27.1249H25.0845L25.0689 27.1254L25.1002 28.1249ZM33.6741 28.1249V29.1249H34.6741V28.1249H33.6741ZM33.6741 28.1249V27.1249H32.6741V28.1249H33.6741ZM42.2149 28.1249L42.2462 27.1254L42.2306 27.1249H42.2149V28.1249ZM43.7969 27.5018L44.4965 28.2163L44.4965 28.2163L43.7969 27.5018ZM44.2953 26.7729L45.2139 27.1681V27.1681L44.2953 26.7729ZM44.4851 25.9019L45.4848 25.9257L45.4851 25.9138V25.9019H44.4851ZM44.4851 17.3065H45.4851V17.2946L45.4848 17.2827L44.4851 17.3065ZM44.2953 16.4355L45.2139 16.0403V16.0403L44.2953 16.4355ZM43.7969 15.7066L44.4965 14.9921V14.9921L43.7969 15.7066ZM43.066 15.2317L42.6995 16.1621V16.1621L43.066 15.2317ZM42.2149 15.0835V16.0835H42.2306L42.2462 16.083L42.2149 15.0835ZM42.2149 12.4761H33.6741V14.4761H42.2149V12.4761ZM45.6001 13.867C44.6955 12.961 43.4732 12.4568 42.1996 12.4763L42.2302 14.476C42.9521 14.465 43.6555 14.7501 44.1847 15.2801L45.6001 13.867ZM47.0388 17.2896C47.0171 16.0035 46.5035 14.772 45.6001 13.867L44.1847 15.2801C44.715 15.8112 45.026 16.5453 45.0391 17.3233L47.0388 17.2896ZM47.0389 25.9019V17.3065H45.0389V25.9019H47.0389ZM45.6001 29.3414C46.5035 28.4364 47.0171 27.2049 47.0388 25.9188L45.0391 25.8851C45.026 26.6631 44.715 27.3972 44.1847 27.9283L45.6001 29.3414ZM42.1996 30.7321C43.4732 30.7516 44.6955 30.2474 45.6001 29.3414L44.1847 27.9283C43.6555 28.4583 42.9521 28.7434 42.2302 28.7324L42.1996 30.7321ZM35.8451 30.7323L42.2149 30.7323L42.2149 28.7323L35.8451 28.7323L35.8451 30.7323ZM25.1002 30.7323H35.8451V28.7323H25.1002V30.7323ZM23.2779 30.3833C23.8613 30.623 24.4859 30.7418 25.1155 30.7322L25.0849 28.7324C24.7275 28.7379 24.3718 28.6705 24.0377 28.5333L23.2779 30.3833ZM21.718 29.3397C22.1648 29.7885 22.6945 30.1437 23.2779 30.3833L24.0377 28.5333C23.7037 28.3961 23.3968 28.1912 23.1354 27.9286L21.718 29.3397ZM20.6712 27.7702C20.9161 28.3573 21.2713 28.8909 21.718 29.3396L23.1354 27.9286C22.8739 27.666 22.6633 27.3509 22.5171 27.0004L20.6712 27.7702ZM20.2872 25.916C20.2962 26.5533 20.4264 27.1833 20.6712 27.7702L22.5171 27.0004C22.3709 26.6498 22.2924 26.2716 22.287 25.8879L20.2872 25.916ZM20.2871 17.3065V25.9019H22.2871V17.3065H20.2871ZM21.7211 13.8721C20.8208 14.7766 20.3089 16.0059 20.2873 17.2896L22.287 17.3234C22.3001 16.5469 22.61 15.8141 23.1385 15.2831L21.7211 13.8721ZM25.1125 12.4762C23.8413 12.4606 22.6227 12.9665 21.7211 13.8721L23.1385 15.2831C23.666 14.7533 24.3674 14.4672 25.0879 14.4761L25.1125 12.4762ZM33.6741 12.4761H25.1002V14.4761H33.6741V12.4761ZM32.6741 13.4761V13.4761H34.6741V13.4761H32.6741ZM25.1002 16.0835H35.8451V14.0835H25.1002V16.0835ZM24.6155 16.1621C24.761 16.1048 24.9149 16.0782 25.0689 16.083L25.1315 14.084C24.7047 14.0706 24.2801 14.1447 23.8826 14.3013L24.6155 16.1621ZM24.2179 16.4211C24.3346 16.3069 24.47 16.2194 24.6155 16.1621L23.8826 14.3013C23.4851 14.4578 23.1239 14.6932 22.8186 14.9921L24.2179 16.4211ZM23.9383 16.8306C24.0055 16.6744 24.1011 16.5355 24.2179 16.4211L22.8186 14.9921C22.5134 15.2909 22.2701 15.6475 22.1011 16.0403L23.9383 16.8306ZM23.8297 17.3302C23.8338 17.1568 23.871 16.987 23.9383 16.8306L22.1011 16.0403C21.9321 16.4331 21.8404 16.8552 21.8303 17.2827L23.8297 17.3302ZM23.83 25.9019V17.3065H21.83V25.9019H23.83ZM23.9383 26.3778C23.871 26.2214 23.8338 26.0516 23.8297 25.8782L21.8303 25.9257C21.8404 26.3532 21.9321 26.7753 22.1011 27.1681L23.9383 26.3778ZM24.2179 26.7873C24.1011 26.6729 24.0055 26.534 23.9383 26.3778L22.1011 27.1681C22.2701 27.561 22.5134 27.9175 22.8186 28.2163L24.2179 26.7873ZM24.6155 27.0463C24.47 26.989 24.3346 26.9015 24.2179 26.7873L22.8186 28.2163C23.1239 28.5152 23.4851 28.7506 23.8826 28.9071L24.6155 27.0463ZM25.0689 27.1254C24.9149 27.1302 24.761 27.1036 24.6155 27.0463L23.8826 28.9071C24.2801 29.0637 24.7047 29.1378 25.1315 29.1244L25.0689 27.1254ZM33.6741 27.1249H25.1002V29.1249H33.6741V27.1249ZM32.6741 28.1249V28.1249H34.6741V28.1249H32.6741ZM42.2149 27.1249H33.6741V29.1249H42.2149V27.1249ZM42.6995 27.0463C42.554 27.1036 42.4001 27.1302 42.2462 27.1254L42.1835 29.1244C42.6104 29.1378 43.035 29.0637 43.4325 28.9071L42.6995 27.0463ZM43.0972 26.7873C42.9806 26.9015 42.8451 26.9889 42.6995 27.0463L43.4325 28.9071C43.8298 28.7506 44.1912 28.5152 44.4965 28.2163L43.0972 26.7873ZM43.3767 26.3778C43.3095 26.5342 43.2139 26.673 43.0972 26.7873L44.4965 28.2163C44.8017 27.9174 45.045 27.5608 45.2139 27.1681L43.3767 26.3778ZM43.4854 25.8782C43.4813 26.0514 43.4441 26.2213 43.3767 26.3778L45.2139 27.1681C45.3829 26.7755 45.4747 26.3533 45.4848 25.9257L43.4854 25.8782ZM43.4851 17.3065V25.9019H45.4851V17.3065H43.4851ZM43.3767 16.8306C43.4441 16.9871 43.4813 17.157 43.4854 17.3302L45.4848 17.2827C45.4747 16.8551 45.3829 16.4329 45.2139 16.0403L43.3767 16.8306ZM43.0972 16.4211C43.2139 16.5354 43.3095 16.6742 43.3767 16.8306L45.2139 16.0403C45.045 15.6476 44.8017 15.291 44.4965 14.9921L43.0972 16.4211ZM42.6995 16.1621C42.8451 16.2195 42.9806 16.3069 43.0972 16.4211L44.4965 14.9921C44.1912 14.6932 43.8298 14.4578 43.4325 14.3013L42.6995 16.1621ZM42.2462 16.083C42.4001 16.0782 42.554 16.1048 42.6995 16.1621L43.4325 14.3013C43.035 14.1447 42.6104 14.0706 42.1835 14.084L42.2462 16.083ZM35.8451 16.0835L42.2149 16.0835V14.0835L35.8451 14.0835V16.0835Z" fill="#21B7CC" mask="url(#path-7-outside-1_470_8434)"/>
<path d="M27.3708 15.0836H25.1667C24.8763 15.0745 24.587 15.1248 24.3155 15.2317C24.044 15.3387 23.7957 15.5001 23.5847 15.7067C23.3737 15.9133 23.2043 16.161 23.0862 16.4355C22.9681 16.7101 22.9036 17.0061 22.8965 17.3065V25.902C22.9036 26.2024 22.9681 26.4984 23.0862 26.773C23.2043 27.0475 23.3737 27.2952 23.5847 27.5018C23.7957 27.7084 24.044 27.8698 24.3155 27.9768C24.587 28.0837 24.8763 28.134 25.1667 28.1249H39.9781L27.3708 15.0836Z" fill="#524C69"/>
<path d="M42.2156 28.1249C42.506 28.134 42.7952 28.0837 43.0667 27.9768C43.3382 27.8698 43.5866 27.7084 43.7976 27.5018C44.0086 27.2952 44.178 27.0475 44.2961 26.773C44.4142 26.4984 44.4787 26.2024 44.4858 25.902V17.3065C44.4787 17.0061 44.4142 16.7101 44.2961 16.4355C44.178 16.161 44.0086 15.9133 43.7976 15.7067C43.5866 15.5001 43.3382 15.3387 43.0667 15.2317C42.7952 15.1248 42.506 15.0745 42.2156 15.0836H27.3711L39.9784 28.1249H42.2156Z" fill="#3F3952"/>
<g filter="url(#filter0_d_470_8434)">
<path fill-rule="evenodd" clip-rule="evenodd" d="M34.0447 46.3394L37.9465 34.6709L26.2637 50.2024H31.9254H32.637L28.7352 61.8709L40.429 46.3394H34.7563H34.0447Z" fill="white"/>
</g>
</g>
<defs>
<filter id="filter0_d_470_8434" x="24.2637" y="32.6709" width="20.166" height="33.2" filterUnits="userSpaceOnUse" color-interpolation-filters="sRGB">
<feFlood flood-opacity="0" result="BackgroundImageFix"/>
<feColorMatrix in="SourceAlpha" type="matrix" values="0 0 0 0 0 0 0 0 0 0 0 0 0 0 0 0 0 0 127 0" result="hardAlpha"/>
<feOffset dx="1" dy="1"/>
<feGaussianBlur stdDeviation="1.5"/>
<feComposite in2="hardAlpha" operator="out"/>
<feColorMatrix type="matrix" values="0 0 0 0 0.545211 0 0 0 0 0.526626 0 0 0 0 0.604066 0 0 0 1 0"/>
<feBlend mode="multiply" in2="BackgroundImageFix" result="effect1_dropShadow_470_8434"/>
<feBlend mode="normal" in="SourceGraphic" in2="effect1_dropShadow_470_8434" result="shape"/>
</filter>
<linearGradient id="paint0_linear_470_8434" x1="18.5109" y1="6.49951" x2="51.8926" y2="68.0615" gradientUnits="userSpaceOnUse">
<stop stop-color="#7CE3F3"/>
<stop offset="1" stop-color="#00B4CB"/>
</linearGradient>
<clipPath id="clip0_470_8434">
<rect width="54" height="68" fill="white" transform="translate(13 6.49951)"/>
</clipPath>
</defs>
</svg>
