<svg width="80" height="81" viewBox="0 0 80 81" fill="none" xmlns="http://www.w3.org/2000/svg">
<path d="M67.1875 40.4994C67.1875 55.5146 55.0152 67.6869 40 67.6869C24.9848 67.6869 12.8125 55.5146 12.8125 40.4994C12.8125 25.4841 24.9848 13.3119 40 13.3119C55.0152 13.3119 67.1875 25.4841 67.1875 40.4994Z" fill="#272D36"/>
<path fill-rule="evenodd" clip-rule="evenodd" d="M40 16.1243C26.5381 16.1243 15.625 27.0373 15.625 40.4993C15.625 53.9612 26.5381 64.8743 40 64.8743C53.4619 64.8743 64.375 53.9612 64.375 40.4993C64.375 27.0373 53.4619 16.1243 40 16.1243ZM10 40.4993C10 23.9307 23.4315 10.4993 40 10.4993C56.5685 10.4993 70 23.9307 70 40.4993C70 57.0678 56.5685 70.4993 40 70.4993C23.4315 70.4993 10 57.0678 10 40.4993Z" fill="#56606B"/>
<path fill-rule="evenodd" clip-rule="evenodd" d="M37.187 13.3118C37.187 11.7585 38.4462 10.4993 39.9995 10.4993C56.5681 10.4993 69.9995 23.9307 69.9995 40.4993C69.9995 57.0678 56.5681 70.4993 39.9995 70.4993C26.2289 70.4993 14.632 61.2235 11.1024 48.5845C10.6846 47.0885 11.5587 45.537 13.0548 45.1192C14.5508 44.7014 16.1023 45.5755 16.5201 47.0716C19.3886 57.3432 28.8182 64.8743 39.9995 64.8743C53.4615 64.8743 64.3745 53.9612 64.3745 40.4993C64.3745 27.0373 53.4615 16.1243 39.9995 16.1243C38.4462 16.1243 37.187 14.8651 37.187 13.3118Z" fill="url(#paint0_linear_470_8461)"/>
<path opacity="0.9" d="M15.8594 47.7119C15.8594 48.8769 14.915 49.8213 13.75 49.8213C12.585 49.8213 11.6406 48.8769 11.6406 47.7119C11.6406 46.5469 12.585 45.6025 13.75 45.6025C14.915 45.6025 15.8594 46.5469 15.8594 47.7119Z" fill="url(#paint1_linear_470_8461)"/>
<path d="M36.2491 33.3124V35.1177L30.6675 46.9993H27.8491C28.635 45.3659 29.4394 43.7142 30.2622 42.044C31.0973 40.3615 31.9078 38.7098 32.6938 37.0887C32.7306 37.0273 32.7798 36.9291 32.8412 36.794C32.9148 36.6589 32.9762 36.5484 33.0254 36.4624C33.0499 36.4256 33.0745 36.3826 33.0991 36.3335C33.1236 36.2844 33.1482 36.2414 33.1727 36.2045C33.2833 35.9589 33.4061 35.7501 33.5412 35.5782H26.9648V33.3124H36.2491Z" fill="white"/>
<path d="M42.3178 32.9993C42.9564 32.9993 43.5398 33.0975 44.0678 33.294C44.6082 33.4905 45.0687 33.7668 45.4494 34.123C45.8301 34.4668 46.1248 34.8844 46.3336 35.3756C46.5547 35.8668 46.6652 36.4072 46.6652 36.9966C46.6529 37.4756 46.5608 37.9423 46.3889 38.3966C46.2292 38.8387 46.0205 39.2624 45.7626 39.6677C45.5047 40.073 45.2099 40.4659 44.8783 40.8466C44.559 41.2273 44.2275 41.5958 43.8836 41.9519L41.0283 44.8256C41.274 44.7642 41.5073 44.7273 41.7283 44.7151C41.9617 44.6905 42.1827 44.6782 42.3915 44.6782H46.8126V46.9993H37.2152V45.5256L41.8389 40.9756C42.5389 40.2756 43.0915 39.6247 43.4968 39.023C43.902 38.4212 44.1047 37.7642 44.1047 37.0519C44.1047 36.4133 43.9266 35.9344 43.5705 35.6151C43.2266 35.2835 42.7538 35.1177 42.152 35.1177C41.6362 35.1177 41.2003 35.2712 40.8441 35.5782C40.488 35.873 40.2362 36.223 40.0889 36.6282C40.0398 36.7633 40.0029 36.9045 39.9783 37.0519C39.9661 37.1993 39.9538 37.3651 39.9415 37.5493L37.5283 37.144C37.7371 35.7317 38.2713 34.6879 39.131 34.0124C39.9906 33.337 41.0529 32.9993 42.3178 32.9993Z" fill="white"/>
<path d="M55.0039 45.7005V43.4938H50.9183V45.7005H55.0039ZM49.9424 40.3841H51.4135C51.4135 40.5079 51.4135 40.6827 51.4062 40.7701C51.3771 41.6731 50.5687 42.4815 49.7676 42.7874L50.0662 43.2316C50.7507 42.9331 51.5154 42.1684 51.6902 41.5712C51.9524 42.1465 52.637 42.7728 53.2414 43.0204L53.5546 42.5835C52.8263 42.3431 52.0325 41.6367 51.9815 40.7701C51.9742 40.69 51.9742 40.5152 51.9742 40.3841H53.4162V39.9253H49.9424V40.3841ZM54.4504 45.2417H51.4717V43.9454H54.4504V45.2417ZM54.9966 43.1443V39.4301H54.4431V41.0978H53.1832V41.5566H54.4431V43.1443H54.9966Z" fill="white"/>
<defs>
<linearGradient id="paint0_linear_470_8461" x1="67.1862" y1="13.311" x2="12.8114" y2="67.6861" gradientUnits="userSpaceOnUse">
<stop stop-color="#FF8D86"/>
<stop offset="0.0001" stop-color="#FFD7D5"/>
<stop offset="1" stop-color="#FF8D86"/>
</linearGradient>
<linearGradient id="paint1_linear_470_8461" x1="11.6406" y1="45.6025" x2="15.8594" y2="49.8213" gradientUnits="userSpaceOnUse">
<stop stop-color="#1F252F"/>
<stop offset="1" stop-color="#484E58"/>
</linearGradient>
</defs>
</svg>
