<svg width="80" height="81" viewBox="0 0 80 81" fill="none" xmlns="http://www.w3.org/2000/svg">
<path d="M4.82438 52.3895V35.4695L1.37438 36.1595V33.9995L6.59438 31.6595H8.54438V52.3895H4.82438ZM21.0844 52.6295C18.6844 52.6295 16.7544 51.8195 15.2944 50.1995C13.8344 48.5595 13.1044 46.0795 13.1044 42.7595V41.4695C13.1044 39.6895 13.3144 38.1395 13.7344 36.8195C14.1744 35.4995 14.7744 34.4595 15.5344 33.6995C16.2944 32.9395 17.1344 32.3795 18.0544 32.0195C18.9944 31.6595 20.0144 31.4795 21.1144 31.4795C23.4544 31.4795 25.3544 32.2795 26.8144 33.8795C28.2944 35.4795 29.0344 37.9795 29.0344 41.3795V42.6695C29.0344 46.0695 28.2944 48.5795 26.8144 50.1995C25.3344 51.8195 23.4244 52.6295 21.0844 52.6295ZM21.0844 49.8095C22.4844 49.8095 23.5244 49.2695 24.2044 48.1895C24.8844 47.0895 25.2244 45.3295 25.2244 42.9095V41.3795C25.2244 36.6795 23.8544 34.3295 21.1144 34.3295C19.6944 34.3295 18.6444 34.8795 17.9644 35.9795C17.2844 37.0595 16.9444 38.7895 16.9444 41.1695V42.7595C16.9444 47.4595 18.3244 49.8095 21.0844 49.8095ZM40.4789 52.6295C38.0789 52.6295 36.1489 51.8195 34.6889 50.1995C33.2289 48.5595 32.4989 46.0795 32.4989 42.7595V41.4695C32.4989 39.6895 32.7089 38.1395 33.1289 36.8195C33.5689 35.4995 34.1689 34.4595 34.9289 33.6995C35.6889 32.9395 36.5289 32.3795 37.4489 32.0195C38.3889 31.6595 39.4089 31.4795 40.5089 31.4795C42.8489 31.4795 44.7489 32.2795 46.2089 33.8795C47.6889 35.4795 48.4289 37.9795 48.4289 41.3795V42.6695C48.4289 46.0695 47.6889 48.5795 46.2089 50.1995C44.7289 51.8195 42.8189 52.6295 40.4789 52.6295ZM40.4789 49.8095C41.8789 49.8095 42.9189 49.2695 43.5989 48.1895C44.2789 47.0895 44.6189 45.3295 44.6189 42.9095V41.3795C44.6189 36.6795 43.2489 34.3295 40.5089 34.3295C39.0889 34.3295 38.0389 34.8795 37.3589 35.9795C36.6789 37.0595 36.3389 38.7895 36.3389 41.1695V42.7595C36.3389 47.4595 37.7189 49.8095 40.4789 49.8095ZM59.6534 52.6795L54.5934 45.7195C56.1934 43.5595 57.8868 41.3062 59.6734 38.9595H62.2134L57.2934 45.4595C59.6134 48.6595 61.3468 51.0662 62.4934 52.6795H59.6534ZM51.8934 52.6795V38.9595H54.3534V52.6795H51.8934ZM64.5302 52.6795V38.9595H67.9902L71.3302 49.2995H71.3902L74.7302 38.9595H78.1702V52.6795H75.7102V42.0195H75.6302L72.1902 52.6795H70.1702L66.7502 42.0195H66.6902V52.6795H64.5302Z" fill="url(#paint0_linear_470_8635)"/>
<defs>
<linearGradient id="paint0_linear_470_8635" x1="-5.47836e-05" y1="40.4996" x2="48.0812" y2="79.6747" gradientUnits="userSpaceOnUse">
<stop stop-color="#6CFFED"/>
<stop offset="1" stop-color="#06B5D1"/>
</linearGradient>
</defs>
</svg>
