<svg width="80" height="80" viewBox="0 0 80 80" fill="none" xmlns="http://www.w3.org/2000/svg">
<path d="M59.9368 40C59.9368 51.0112 51.0104 59.9375 39.9993 59.9375C28.9881 59.9375 20.0618 51.0112 20.0618 40C20.0618 28.9888 28.9881 20.0625 39.9993 20.0625C51.0104 20.0625 59.9368 28.9888 59.9368 40Z" fill="#272D36"/>
<path fill-rule="evenodd" clip-rule="evenodd" d="M39.9993 22.125C30.1272 22.125 22.1243 30.1279 22.1243 40C22.1243 49.8721 30.1272 57.875 39.9993 57.875C49.8714 57.875 57.8743 49.8721 57.8743 40C57.8743 30.1279 49.8714 22.125 39.9993 22.125ZM17.9993 40C17.9993 27.8497 27.849 18 39.9993 18C52.1495 18 61.9993 27.8497 61.9993 40C61.9993 52.1503 52.1495 62 39.9993 62C27.849 62 17.9993 52.1503 17.9993 40Z" fill="#56606B"/>
<path fill-rule="evenodd" clip-rule="evenodd" d="M37.9369 20.0625C37.9369 18.9234 38.8603 18 39.9994 18C52.1496 18 61.9994 27.8497 61.9994 40C61.9994 52.1503 52.1496 62 39.9994 62C29.9009 62 21.3965 55.1978 18.8082 45.9292C18.5018 44.8321 19.1428 43.6943 20.2399 43.388C21.337 43.0816 22.4748 43.7226 22.7811 44.8197C24.8847 52.3522 31.7998 57.875 39.9994 57.875C49.8715 57.875 57.8744 49.8721 57.8744 40C57.8744 30.1279 49.8715 22.125 39.9994 22.125C38.8603 22.125 37.9369 21.2016 37.9369 20.0625Z" fill="url(#paint0_linear_469_5114)"/>
<path opacity="0.9" d="M22.2958 45.2876C22.2958 46.1419 21.6033 46.8345 20.749 46.8345C19.8946 46.8345 19.2021 46.1419 19.2021 45.2876C19.2021 44.4333 19.8946 43.7407 20.749 43.7407C21.6033 43.7407 22.2958 44.4333 22.2958 45.2876Z" fill="url(#paint1_linear_469_5114)"/>
<path d="M36.6008 35.2237V36.5132L32.614 45H30.6008C31.1622 43.8333 31.7368 42.6535 32.3245 41.4605C32.921 40.2588 33.4999 39.0789 34.0613 37.9211C34.0877 37.8772 34.1227 37.807 34.1666 37.7105C34.2192 37.614 34.2631 37.5351 34.2982 37.4737C34.3157 37.4474 34.3333 37.4167 34.3508 37.3816C34.3684 37.3465 34.3859 37.3158 34.4034 37.2895C34.4824 37.114 34.5701 36.9649 34.6666 36.8421H29.9692V35.2237H36.6008Z" fill="white"/>
<path d="M40.9356 35C41.3918 35 41.8085 35.0702 42.1856 35.2105C42.5716 35.3509 42.9006 35.5482 43.1725 35.8026C43.4444 36.0482 43.6549 36.3465 43.8041 36.6974C43.962 37.0482 44.0409 37.4342 44.0409 37.8553C44.0321 38.1974 43.9664 38.5307 43.8435 38.8553C43.7295 39.1711 43.5804 39.4737 43.3962 39.7632C43.212 40.0526 43.0014 40.3333 42.7646 40.6053C42.5365 40.8772 42.2997 41.1404 42.0541 41.3947L40.0146 43.4474C40.19 43.4035 40.3567 43.3772 40.5146 43.3684C40.6813 43.3509 40.8392 43.3421 40.9883 43.3421H44.1462V45H37.2909V43.9474L40.5935 40.6974C41.0935 40.1974 41.4883 39.7325 41.7778 39.3026C42.0672 38.8728 42.212 38.4035 42.212 37.8947C42.212 37.4386 42.0848 37.0965 41.8304 36.8684C41.5848 36.6316 41.2471 36.5132 40.8172 36.5132C40.4488 36.5132 40.1374 36.6228 39.883 36.8421C39.6286 37.0526 39.4488 37.3026 39.3435 37.5921C39.3085 37.6886 39.2821 37.7895 39.2646 37.8947C39.2558 38 39.2471 38.1184 39.2383 38.25L37.5146 37.9605C37.6637 36.9518 38.0453 36.2061 38.6593 35.7237C39.2734 35.2412 40.0321 35 40.9356 35Z" fill="white"/>
<path d="M49.9964 44.0729V42.4967H47.0781V44.0729H49.9964ZM46.3811 40.2755H47.4319C47.4319 40.3639 47.4319 40.4887 47.4267 40.5512C47.4058 41.1962 46.8284 41.7736 46.2562 41.9921L46.4695 42.3094C46.9585 42.0961 47.5047 41.5499 47.6295 41.1234C47.8168 41.5343 48.3058 41.9817 48.7375 42.1586L48.9612 41.8464C48.441 41.6748 47.874 41.1702 47.8376 40.5512C47.8324 40.4939 47.8324 40.3691 47.8324 40.2755H48.8624V39.9477H46.3811V40.2755ZM49.6011 43.7452H47.4735V42.8192H49.6011V43.7452ZM49.9912 42.247V39.594H49.5959V40.7852H48.6959V41.113H49.5959V42.247H49.9912Z" fill="white"/>
<defs>
<linearGradient id="paint0_linear_469_5114" x1="59.9363" y1="20.0619" x2="20.0614" y2="59.937" gradientUnits="userSpaceOnUse">
<stop stop-color="#FF8D86"/>
<stop offset="0.0001" stop-color="#FFD7D5"/>
<stop offset="1" stop-color="#FF8D86"/>
</linearGradient>
<linearGradient id="paint1_linear_469_5114" x1="19.2021" y1="43.7407" x2="22.2958" y2="46.8345" gradientUnits="userSpaceOnUse">
<stop stop-color="#1F252F"/>
<stop offset="1" stop-color="#484E58"/>
</linearGradient>
</defs>
</svg>
