<svg width="80" height="80" viewBox="0 0 80 80" fill="none" xmlns="http://www.w3.org/2000/svg">
<path d="M52.7542 47.5007H55.8031L58.288 71.2349H50.2301L52.7542 47.5007Z" fill="url(#paint0_linear_469_5239)"/>
<path d="M63.4169 58.1073C66.4564 58.4137 64.4426 54.7584 62.9733 51.5081C61.5041 48.2577 58.3254 42.1433 53.4463 42.1433C49.4481 42.1433 41.8719 56.4902 43.6462 57.84C45.0655 58.9199 48.3973 58.0726 50.6151 56.3727C51.2805 57.8726 52.285 58.5746 53.8818 58.6946C55.4786 58.8146 56.4099 57.7226 57.6667 56.3727C58.1102 56.8727 60.7652 57.84 63.4169 58.1073Z" fill="url(#paint1_linear_469_5239)"/>
<path d="M63.4169 49.848C66.3258 50.781 64.4426 46.4991 62.9733 43.2488C61.5041 39.9984 58.3254 33.884 53.4463 33.884C49.4481 33.884 41.8719 48.2309 43.6462 49.5807C45.0655 50.6606 48.3973 48.0139 50.6151 46.3141C51.2805 47.8139 52.285 50.3153 53.8818 50.4353C55.4786 50.5553 56.4099 47.6639 57.6667 46.3141C58.1102 46.814 60.7652 48.9976 63.4169 49.848Z" fill="url(#paint2_linear_469_5239)"/>
<path d="M62.4767 40.1257C64.5839 40.8499 63.0114 37.1138 61.8183 34.4628C60.6251 31.8117 58.264 26.842 54.3116 26.561C50.6155 26.2983 43.9154 38.6296 45.3563 39.7306C46.509 40.6114 49.5615 38.875 51.3626 37.4886C51.9029 38.7119 52.7187 40.7521 54.0155 40.8499C55.3122 40.9478 56.0686 38.5896 57.0892 37.4886C57.4494 37.8964 60.5979 39.4799 62.4767 40.1257Z" fill="url(#paint3_linear_469_5239)"/>
<path d="M24.3728 47.5007H27.4217L29.9066 71.2349H21.8487L24.3728 47.5007Z" fill="url(#paint4_linear_469_5239)"/>
<path d="M35.0355 58.1073C38.075 58.4137 36.0612 54.7584 34.592 51.5081C33.1227 48.2577 29.944 42.1433 25.0649 42.1433C21.0667 42.1433 13.4906 56.4902 15.2648 57.84C16.6842 58.9199 20.016 58.0726 22.2337 56.3727C22.8991 57.8726 23.9036 58.5746 25.5004 58.6946C27.0972 58.8146 28.0286 57.7226 29.2853 56.3727C29.7289 56.8727 32.3838 57.84 35.0355 58.1073Z" fill="url(#paint5_linear_469_5239)"/>
<path d="M35.0355 49.848C37.9444 50.781 36.0612 46.4991 34.592 43.2488C33.1227 39.9984 29.944 33.884 25.0649 33.884C21.0667 33.884 13.4906 48.2309 15.2648 49.5807C16.6842 50.6606 20.016 48.0139 22.2337 46.3141C22.8991 47.8139 23.9036 50.3153 25.5004 50.4353C27.0972 50.5553 28.0286 47.6639 29.2853 46.3141C29.7289 46.814 32.3838 48.9976 35.0355 49.848Z" fill="url(#paint6_linear_469_5239)"/>
<path d="M34.0954 40.1257C36.2025 40.8499 34.6301 37.1138 33.4369 34.4628C32.2437 31.8117 29.8826 26.842 25.9302 26.561C22.2342 26.2983 15.5341 38.6296 16.9749 39.7306C18.1276 40.6114 21.1801 38.875 22.9812 37.4886C23.5215 38.7119 24.3373 40.7521 25.6341 40.8499C26.9309 40.9478 27.6872 38.5896 28.7078 37.4886C29.068 37.8964 32.2165 39.4799 34.0954 40.1257Z" fill="url(#paint7_linear_469_5239)"/>
<path d="M39.9306 41.5812H43.7793L46.9161 71.5414H36.7444L39.9306 41.5812Z" fill="url(#paint8_linear_469_5239)"/>
<path d="M53.3905 54.9698C57.2273 55.3565 54.6852 50.7424 52.8306 46.6394C50.9759 42.5364 46.9633 34.818 40.8043 34.818C35.7573 34.818 26.1937 52.9284 28.4333 54.6324C30.225 55.9955 34.4309 54.9259 37.2304 52.7802C38.0703 54.6735 39.3384 55.5596 41.3541 55.7111C43.3698 55.8626 44.5454 54.4841 46.1318 52.7802C46.6917 53.4113 50.0432 54.6324 53.3905 54.9698Z" fill="#66A865"/>
<path d="M53.3905 44.5442C57.0625 45.7219 54.6852 40.3169 52.8306 36.2138C50.9759 32.1108 46.9633 24.3925 40.8043 24.3925C35.7573 24.3925 26.1937 42.5029 28.4333 44.2068C30.225 45.57 34.4309 42.2289 37.2304 40.0832C38.0703 41.9765 39.3384 45.1341 41.3541 45.2856C43.3698 45.437 44.5454 41.7872 46.1318 40.0832C46.6917 40.7143 50.0432 43.4707 53.3905 44.5442Z" fill="url(#paint9_linear_469_5239)"/>
<path d="M52.2035 32.2716C54.8634 33.1859 52.8784 28.4696 51.3723 25.1232C49.8661 21.7767 46.0653 16.4999 41.0761 16.1452C36.4104 15.8135 28.7731 30.3831 30.5919 31.7729C32.0469 32.8847 35.9002 30.6928 38.1738 28.9428C38.8558 30.487 39.8856 33.0623 41.5226 33.1859C43.1595 33.3094 44.1143 30.3325 45.4026 28.9428C45.8573 29.4575 49.8317 31.4564 52.2035 32.2716Z" fill="url(#paint10_linear_469_5239)"/>
<path d="M49.6987 21.785C51.9495 23.0802 50.5662 18.8933 49.3236 16.0865C48.081 13.2798 45.3926 8 41.2661 8C37.8847 8 31.4773 20.3886 32.9778 21.5542C34.1782 22.4867 36.9961 20.2012 38.8717 18.7334C39.4344 20.0285 40.284 22.1885 41.6345 22.2922C42.985 22.3958 43.7726 19.899 44.8355 18.7334C45.2107 19.1651 47.8981 20.749 49.6987 21.785Z" fill="url(#paint11_linear_469_5239)"/>
<defs>
<linearGradient id="paint0_linear_469_5239" x1="54.259" y1="47.5007" x2="54.259" y2="71.2349" gradientUnits="userSpaceOnUse">
<stop stop-color="#383838"/>
<stop offset="1" stop-color="#885D2A"/>
</linearGradient>
<linearGradient id="paint1_linear_469_5239" x1="53.8774" y1="49.257" x2="54.1907" y2="58.7036" gradientUnits="userSpaceOnUse">
<stop stop-color="#5C8B5B"/>
<stop offset="1" stop-color="#2E4E2D"/>
</linearGradient>
<linearGradient id="paint2_linear_469_5239" x1="53.8774" y1="39.3315" x2="54.1621" y2="50.4389" gradientUnits="userSpaceOnUse">
<stop stop-color="#5C8B5B"/>
<stop offset="1" stop-color="#2E4E2D"/>
</linearGradient>
<linearGradient id="paint3_linear_469_5239" x1="54.3339" y1="26.5569" x2="54.3339" y2="40.8529" gradientUnits="userSpaceOnUse">
<stop stop-color="#5C8B5B"/>
<stop offset="1" stop-color="#2E4E2D"/>
</linearGradient>
<linearGradient id="paint4_linear_469_5239" x1="25.8777" y1="47.5007" x2="25.8777" y2="71.2349" gradientUnits="userSpaceOnUse">
<stop stop-color="#383838"/>
<stop offset="1" stop-color="#885D2A"/>
</linearGradient>
<linearGradient id="paint5_linear_469_5239" x1="25.496" y1="49.257" x2="25.8093" y2="58.7036" gradientUnits="userSpaceOnUse">
<stop stop-color="#5C8B5B"/>
<stop offset="1" stop-color="#2E4E2D"/>
</linearGradient>
<linearGradient id="paint6_linear_469_5239" x1="25.496" y1="39.3315" x2="25.7807" y2="50.4389" gradientUnits="userSpaceOnUse">
<stop stop-color="#5C8B5B"/>
<stop offset="1" stop-color="#2E4E2D"/>
</linearGradient>
<linearGradient id="paint7_linear_469_5239" x1="25.9525" y1="26.5569" x2="25.9525" y2="40.8529" gradientUnits="userSpaceOnUse">
<stop stop-color="#5C8B5B"/>
<stop offset="1" stop-color="#2E4E2D"/>
</linearGradient>
<linearGradient id="paint8_linear_469_5239" x1="41.8302" y1="41.5812" x2="41.8302" y2="71.5414" gradientUnits="userSpaceOnUse">
<stop stop-color="#100C08"/>
<stop offset="1" stop-color="#93642D"/>
</linearGradient>
<linearGradient id="paint9_linear_469_5239" x1="41.7079" y1="24.3925" x2="41.7079" y2="45.2901" gradientUnits="userSpaceOnUse">
<stop offset="0.453125" stop-color="#83C082"/>
<stop offset="1" stop-color="#458244"/>
</linearGradient>
<linearGradient id="paint10_linear_469_5239" x1="41.9133" y1="16.1396" x2="41.9133" y2="33.1896" gradientUnits="userSpaceOnUse">
<stop stop-color="#66A865"/>
<stop offset="1" stop-color="#458244"/>
</linearGradient>
<linearGradient id="paint11_linear_469_5239" x1="41.8259" y1="8" x2="41.8259" y2="22.2953" gradientUnits="userSpaceOnUse">
<stop stop-color="#83C082"/>
<stop offset="1" stop-color="#66A865"/>
</linearGradient>
</defs>
</svg>
