<svg width="80" height="81" viewBox="0 0 80 81" fill="none" xmlns="http://www.w3.org/2000/svg">
<path d="M59.8906 29.8479C59.8906 27.4553 61.8302 25.5157 64.2228 25.5157C66.6153 25.5157 68.5549 27.4553 68.5549 29.8479V61.1355H59.8906V29.8479Z" fill="#79DDEC"/>
<path d="M59.8906 29.8479C59.8906 27.4553 61.8302 25.5157 64.2228 25.5157C66.6153 25.5157 68.5549 27.4553 68.5549 29.8479V61.1355H59.8906V29.8479Z" fill="url(#paint0_linear_470_8622)"/>
<path d="M59.8906 29.8479C59.8906 27.4553 61.8302 25.5157 64.2228 25.5157C66.6153 25.5157 68.5549 27.4553 68.5549 29.8479V61.1355H59.8906V29.8479Z" fill="black" fill-opacity="0.1"/>
<circle cx="64.2223" cy="21.4249" r="1.42539" fill="#00D0E3" stroke="white"/>
<path d="M44.0059 38.3292C44.0059 35.9366 45.9454 33.9971 48.338 33.9971C50.7306 33.9971 52.6701 35.9366 52.6701 38.3292V61.1359H44.0059V38.3292Z" fill="#6A6A6A"/>
<path d="M28.1211 33.5802C28.1211 31.1876 30.0607 29.248 32.4532 29.248C34.8458 29.248 36.7853 31.1876 36.7853 33.5802V61.1362H28.1211V33.5802Z" fill="#6A6A6A"/>
<path d="M12.2363 35.6161C12.2363 33.2235 14.1759 31.2839 16.5685 31.2839C18.961 31.2839 20.9006 33.2235 20.9006 35.6161V61.1367H12.2363V35.6161Z" fill="#6A6A6A"/>
<defs>
<linearGradient id="paint0_linear_470_8622" x1="64.2228" y1="25.5157" x2="64.2228" y2="61.1355" gradientUnits="userSpaceOnUse">
<stop stop-color="#03EBFF"/>
<stop offset="1" stop-color="white" stop-opacity="0"/>
</linearGradient>
</defs>
</svg>
