<svg width="80" height="81" viewBox="0 0 80 81" fill="none" xmlns="http://www.w3.org/2000/svg">
<path d="M16.6309 30.9303C16.6309 16.9983 27.2211 5.73035 40.315 5.73035C53.409 5.73035 63.9992 16.9983 63.9992 30.9303C63.9992 49.8303 40.315 74.961 40.315 74.961C40.315 74.961 16.6309 49.8303 16.6309 30.9303Z" fill="url(#paint0_linear_470_8643)"/>
<path d="M40.3151 74.9611L33.8634 67.364L27.5622 58.5643L63.0843 23.949C67.6406 39.4348 53.9796 59.4752 40.3151 74.9611Z" fill="url(#paint1_linear_470_8643)" fill-opacity="0.5"/>
<circle cx="40.3135" cy="29.9615" r="17.3077" fill="#1E1E1E"/>
<path d="M37.0347 32.6745C38.3501 34.0094 40.5452 33.9793 41.9376 32.6072L48.2 21.6725L37.1743 27.7732C35.7818 29.1452 35.7194 31.3396 37.0347 32.6745Z" fill="#5AA0FA"/>
<defs>
<linearGradient id="paint0_linear_470_8643" x1="16.6309" y1="5.73035" x2="71.2867" y2="86.8031" gradientUnits="userSpaceOnUse">
<stop stop-color="#5790FF"/>
<stop offset="1" stop-color="#5FBEF0"/>
</linearGradient>
<linearGradient id="paint1_linear_470_8643" x1="45.7741" y1="55.8315" x2="45.7741" y2="41.2566" gradientUnits="userSpaceOnUse">
<stop stop-color="#6A42D0"/>
<stop offset="1" stop-color="#337ACA"/>
</linearGradient>
</defs>
</svg>
