<svg width="80" height="80" viewBox="0 0 80 80" fill="none" xmlns="http://www.w3.org/2000/svg">
<path d="M55.2083 31.8634C55.2083 30.0455 56.6821 28.5718 58.5 28.5718C60.3179 28.5718 61.7917 30.0455 61.7917 31.8634V55.6366H55.2083V31.8634Z" fill="#79DDEC"/>
<path d="M55.2083 31.8634C55.2083 30.0455 56.6821 28.5718 58.5 28.5718C60.3179 28.5718 61.7917 30.0455 61.7917 31.8634V55.6366H55.2083V31.8634Z" fill="url(#paint0_linear_469_5266)"/>
<path d="M55.2083 31.8634C55.2083 30.0455 56.6821 28.5718 58.5 28.5718C60.3179 28.5718 61.7917 30.0455 61.7917 31.8634V55.6366H55.2083V31.8634Z" fill="black" fill-opacity="0.1"/>
<circle cx="58.5" cy="25.463" r="0.962963" fill="#00D0E3" stroke="white"/>
<path d="M43.1389 38.3074C43.1389 36.4895 44.6126 35.0157 46.4306 35.0157C48.2485 35.0157 49.7222 36.4895 49.7222 38.3074V55.6366H43.1389V38.3074Z" fill="#6A6A6A"/>
<path d="M31.0695 34.6988C31.0695 32.8808 32.5432 31.4071 34.3611 31.4071C36.1791 31.4071 37.6528 32.8808 37.6528 34.6988V55.6366H31.0695V34.6988Z" fill="#6A6A6A"/>
<path d="M19 36.2454C19 34.4275 20.4737 32.9537 22.2917 32.9537C24.1096 32.9537 25.5833 34.4275 25.5833 36.2454V55.6366H19V36.2454Z" fill="#6A6A6A"/>
<defs>
<linearGradient id="paint0_linear_469_5266" x1="58.5" y1="28.5718" x2="58.5" y2="55.6366" gradientUnits="userSpaceOnUse">
<stop stop-color="#03EBFF"/>
<stop offset="1" stop-color="white" stop-opacity="0"/>
</linearGradient>
</defs>
</svg>
