<svg width="80" height="80" viewBox="0 0 80 80" fill="none" xmlns="http://www.w3.org/2000/svg">
<g clip-path="url(#clip0_469_5087)">
<path d="M49.9143 20.197L48.55 22.5353L53.3928 26.6587V22.0264L49.9143 20.197Z" fill="#50CCE0"/>
<path d="M57.3071 29.6977H56.5928V53.2061C56.588 53.3004 56.5761 53.3941 56.5571 53.4864C56.5571 53.5823 56.5143 53.6708 56.5 53.7667C56.4857 53.8626 56.4357 53.9437 56.4 54.0323C56.1747 54.5713 55.7753 55.013 55.2699 55.282C54.7645 55.551 54.1845 55.6307 53.6286 55.5075C53.2567 55.4288 52.9076 55.2619 52.6088 55.0199C52.3101 54.778 52.0699 54.4676 51.9071 54.1134C51.8241 53.9399 51.7618 53.7566 51.7214 53.5676L51.6786 53.2725V53.125C51.675 53.071 51.675 53.0167 51.6786 52.9627V31.2836C51.6709 30.7695 51.5059 30.2712 51.2072 29.8599C50.9168 29.4717 50.5098 29.194 50.05 29.0707C49.9422 29.0302 49.8289 29.0078 49.7143 29.0043H49.55H43.2143V30.4279H49.5643C49.6047 30.4238 49.6453 30.4238 49.6857 30.4279C49.8576 30.4715 50.0092 30.5759 50.1143 30.723C50.2301 30.8798 50.2929 31.0716 50.2928 31.2688V52.948C50.2928 53.007 50.2928 53.0807 50.2928 53.1619V53.3905C50.2928 53.5454 50.3357 53.693 50.3643 53.8479C50.4239 54.1468 50.5198 54.4368 50.65 54.7109C50.9007 55.2724 51.2757 55.7652 51.7447 56.1496C52.2136 56.534 52.7636 56.7992 53.35 56.9238C53.5 56.9238 53.6429 56.9754 53.7929 56.9828C53.9429 56.9902 54.0857 56.9828 54.2214 56.9828C54.5261 56.9891 54.8304 56.9594 55.1286 56.8943C55.701 56.7488 56.2321 56.4658 56.6786 56.0681C57.124 55.6637 57.4734 55.1589 57.7 54.5929C57.7585 54.4561 57.8087 54.3157 57.85 54.1724C57.8909 54.0293 57.9243 53.884 57.95 53.7372C57.9771 53.5936 57.9938 53.4482 58 53.302V53.0733C58.0036 53.0119 58.0036 52.9504 58 52.8889V29.6977H57.3071Z" fill="#D7FAFF"/>
<path d="M56.8213 23.1032L53.3928 21.1042L53.2784 21.0452L52.7999 20.7649L50.3499 19.4667L49.9142 20.2043L52.7713 21.7165V27.3077C52.7719 27.7322 52.8813 28.1488 53.0883 28.5155C53.2953 28.8821 53.5925 29.1856 53.9499 29.3952L57.9856 31.7409V25.176C57.9854 24.7552 57.8776 24.342 57.6732 23.978C57.4688 23.6141 57.1749 23.3123 56.8213 23.1032Z" fill="#7CE3F3"/>
<path d="M54.5709 28.2574C54.4094 28.1578 54.276 28.0163 54.1839 27.8471C54.0917 27.6778 54.044 27.4866 54.0455 27.2924L54.0925 22.948L56.2218 24.2189C56.386 24.3159 56.5221 24.4565 56.6157 24.6263C56.7094 24.796 56.7572 24.9886 56.7542 25.184L56.7075 29.5063L54.5709 28.2574Z" fill="#524C69"/>
<path fill-rule="evenodd" clip-rule="evenodd" d="M30.843 33.033H36.4H37.1144H41.9358C42.5824 33.0429 43.2065 32.7875 43.6712 32.3229C44.1358 31.8583 44.403 31.2224 44.4143 30.5546V24.9928C44.403 24.325 44.1358 23.6891 43.6712 23.2245C43.2065 22.7598 42.5824 22.5045 41.9358 22.5144H37.093H36.4H30.843C30.1975 22.5065 29.5753 22.7627 29.1122 23.2271C28.6491 23.6915 28.3828 24.3263 28.3715 24.9928V30.5546C28.3762 30.8849 28.4438 31.2111 28.5705 31.5144C28.6973 31.8177 28.8806 32.0923 29.1101 32.3225C29.3396 32.5526 29.6107 32.7338 29.9081 32.8558C30.2054 32.9777 30.5231 33.0379 30.843 33.033ZM36.4 18H28.5929C26.8215 18 25.3858 19.8146 25.3858 22.057V58.1127H36.4H37.1144H47.4215V22.057C47.4215 19.8441 45.9929 18 44.2143 18H37.093H36.4Z" fill="url(#paint0_linear_469_5087)"/>
<path fill-rule="evenodd" clip-rule="evenodd" d="M23 59.1052C23 58.5529 23.4477 58.1052 24 58.1052H25.3857H36.4072H37.1214H47H48.9143C49.4666 58.1052 49.9143 58.5529 49.9143 59.1052V61C49.9143 61.5522 49.4666 62 48.9143 62L37.1214 62L36.4072 62L24 62C23.4477 62 23 61.5522 23 61V59.1052Z" fill="#D4F4F9"/>
<mask id="path-7-outside-1_469_5087" maskUnits="userSpaceOnUse" x="27.3715" y="21.514" width="19" height="13" fill="black">
<rect fill="white" x="27.3715" y="21.514" width="19" height="13"/>
<path fill-rule="evenodd" clip-rule="evenodd" d="M36.4 22.5143H41.9358C42.5825 22.5044 43.2065 22.7598 43.6712 23.2244C44.1358 23.689 44.403 24.325 44.4143 24.9928V30.5545C44.403 31.2223 44.1358 31.8583 43.6712 32.3229C43.2065 32.7875 42.5825 33.0429 41.9358 33.033H37.8072V33.033H30.8429C30.523 33.0379 30.2053 32.9777 29.908 32.8558C29.6107 32.7338 29.3396 32.5526 29.1101 32.3225C28.8806 32.0923 28.6972 31.8177 28.5705 31.5144C28.4438 31.2111 28.3761 30.8849 28.3715 30.5546V24.9928C28.3827 24.3263 28.649 23.6915 29.1121 23.2271C29.5752 22.7627 30.1974 22.5065 30.8429 22.5143H36.4V22.5143ZM37.8072 23.5544V23.5544H30.8429C30.6547 23.5485 30.4672 23.5811 30.2912 23.6503C30.1153 23.7195 29.9543 23.8239 29.8176 23.9576C29.6808 24.0913 29.571 24.2516 29.4944 24.4292C29.4179 24.6069 29.3761 24.7984 29.3715 24.9928V30.5546C29.3761 30.749 29.4179 30.9405 29.4944 31.1182C29.571 31.2958 29.6808 31.4561 29.8176 31.5898C29.9543 31.7234 30.1153 31.8279 30.2912 31.8971C30.4672 31.9663 30.6547 31.9989 30.8429 31.993H36.4V31.9929H41.9358C42.124 31.9988 42.3114 31.9662 42.4874 31.897C42.6634 31.8278 42.8244 31.7234 42.9611 31.5897C43.0979 31.456 43.2077 31.2958 43.2842 31.1181C43.3608 30.9405 43.4026 30.7489 43.4072 30.5545V24.9928C43.4026 24.7984 43.3608 24.6068 43.2842 24.4292C43.2077 24.2515 43.0979 24.0913 42.9611 23.9576C42.8244 23.8239 42.6634 23.7195 42.4874 23.6503C42.3114 23.5811 42.124 23.5485 41.9358 23.5544H37.8072Z"/>
</mask>
<path fill-rule="evenodd" clip-rule="evenodd" d="M36.4 22.5143H41.9358C42.5825 22.5044 43.2065 22.7598 43.6712 23.2244C44.1358 23.689 44.403 24.325 44.4143 24.9928V30.5545C44.403 31.2223 44.1358 31.8583 43.6712 32.3229C43.2065 32.7875 42.5825 33.0429 41.9358 33.033H37.8072V33.033H30.8429C30.523 33.0379 30.2053 32.9777 29.908 32.8558C29.6107 32.7338 29.3396 32.5526 29.1101 32.3225C28.8806 32.0923 28.6972 31.8177 28.5705 31.5144C28.4438 31.2111 28.3761 30.8849 28.3715 30.5546V24.9928C28.3827 24.3263 28.649 23.6915 29.1121 23.2271C29.5752 22.7627 30.1974 22.5065 30.8429 22.5143H36.4V22.5143ZM37.8072 23.5544V23.5544H30.8429C30.6547 23.5485 30.4672 23.5811 30.2912 23.6503C30.1153 23.7195 29.9543 23.8239 29.8176 23.9576C29.6808 24.0913 29.571 24.2516 29.4944 24.4292C29.4179 24.6069 29.3761 24.7984 29.3715 24.9928V30.5546C29.3761 30.749 29.4179 30.9405 29.4944 31.1182C29.571 31.2958 29.6808 31.4561 29.8176 31.5898C29.9543 31.7234 30.1153 31.8279 30.2912 31.8971C30.4672 31.9663 30.6547 31.9989 30.8429 31.993H36.4V31.9929H41.9358C42.124 31.9988 42.3114 31.9662 42.4874 31.897C42.6634 31.8278 42.8244 31.7234 42.9611 31.5897C43.0979 31.456 43.2077 31.2958 43.2842 31.1181C43.3608 30.9405 43.4026 30.7489 43.4072 30.5545V24.9928C43.4026 24.7984 43.3608 24.6068 43.2842 24.4292C43.2077 24.2515 43.0979 24.0913 42.9611 23.9576C42.8244 23.8239 42.6634 23.7195 42.4874 23.6503C42.3114 23.5811 42.124 23.5485 41.9358 23.5544H37.8072Z" fill="#F4FFF7"/>
<path d="M41.9358 22.5143V23.5143H41.9434L41.951 23.5142L41.9358 22.5143ZM36.4 22.5143V21.5143H35.4V22.5143H36.4ZM44.4143 24.9928H45.4143V24.9843L45.4142 24.9759L44.4143 24.9928ZM44.4143 30.5545L45.4142 30.5714L45.4143 30.563V30.5545H44.4143ZM43.6712 32.3229L42.9641 31.6158V31.6158L43.6712 32.3229ZM41.9358 33.033L41.951 32.0331L41.9434 32.033H41.9358V33.033ZM37.8072 33.033V32.033H36.8072V33.033H37.8072ZM37.8072 33.033V34.033H38.8072V33.033H37.8072ZM30.8429 33.033V32.033H30.8353L30.8277 32.0331L30.8429 33.033ZM29.908 32.8558L30.2874 31.9305L30.2874 31.9305L29.908 32.8558ZM29.1101 32.3225L28.402 33.0286L28.402 33.0286L29.1101 32.3225ZM28.5705 31.5144L29.4932 31.1289L28.5705 31.5144ZM28.3715 30.5546H27.3714L27.3716 30.5687L28.3715 30.5546ZM28.3715 24.9928L27.3716 24.9759L27.3715 24.9843V24.9928H28.3715ZM29.1121 23.2271L29.8202 23.9332L29.1121 23.2271ZM30.8429 22.5143L30.8307 23.5143H30.8429V22.5143ZM36.4 22.5143V23.5143H37.4V22.5143H36.4ZM37.8072 23.5544V24.5544H38.8072V23.5544H37.8072ZM37.8072 23.5544V22.5544H36.8072V23.5544H37.8072ZM30.8429 23.5544L30.8116 24.5539L30.8273 24.5544H30.8429V23.5544ZM30.2912 23.6503L29.9253 22.7197L29.9253 22.7197L30.2912 23.6503ZM29.8176 23.9576L29.1185 23.2425L29.1185 23.2425L29.8176 23.9576ZM29.4944 24.4292L30.4128 24.8249L30.4128 24.8249L29.4944 24.4292ZM29.3715 24.9928L28.3718 24.969L28.3715 24.9809V24.9928H29.3715ZM29.3715 30.5546H28.3715V30.5665L28.3718 30.5783L29.3715 30.5546ZM29.4944 31.1182L30.4128 30.7224H30.4128L29.4944 31.1182ZM29.8176 31.5898L29.1185 32.3049H29.1185L29.8176 31.5898ZM30.2912 31.8971L30.6572 30.9665L30.6572 30.9665L30.2912 31.8971ZM30.8429 31.993V30.993H30.8273L30.8116 30.9934L30.8429 31.993ZM36.4 31.993V32.993H37.4V31.993H36.4ZM36.4 31.9929V30.9929H35.4V31.9929H36.4ZM41.9358 31.9929L41.9671 30.9934L41.9514 30.9929H41.9358V31.9929ZM42.4874 31.897L42.8533 32.8277L42.8533 32.8277L42.4874 31.897ZM42.9611 31.5897L42.2621 30.8746L42.9611 31.5897ZM43.2842 31.1181L42.3658 30.7224L42.3658 30.7224L43.2842 31.1181ZM43.4072 30.5545L44.4069 30.5783L44.4072 30.5664V30.5545H43.4072ZM43.4072 24.9928H44.4072V24.9809L44.4069 24.969L43.4072 24.9928ZM43.2842 24.4292L42.3658 24.8249L42.3658 24.8249L43.2842 24.4292ZM42.9611 23.9576L43.6601 23.2425L43.6601 23.2425L42.9611 23.9576ZM42.4874 23.6503L42.8533 22.7196L42.8533 22.7196L42.4874 23.6503ZM41.9358 23.5544V24.5544H41.9514L41.9671 24.5539L41.9358 23.5544ZM41.9358 21.5143H36.4V23.5143H41.9358V21.5143ZM44.3783 22.5173C43.7258 21.8648 42.8425 21.5004 41.9205 21.5144L41.951 23.5142C42.3224 23.5085 42.6873 23.6548 42.9641 23.9315L44.3783 22.5173ZM45.4142 24.9759C45.3986 24.0535 45.0297 23.1687 44.3783 22.5173L42.9641 23.9315C43.2419 24.2094 43.4075 24.5964 43.4145 25.0096L45.4142 24.9759ZM45.4143 30.5545V24.9928H43.4143V30.5545H45.4143ZM44.3783 33.03C45.0297 32.3786 45.3986 31.4938 45.4142 30.5714L43.4145 30.5377C43.4075 30.9509 43.2419 31.3379 42.9641 31.6158L44.3783 33.03ZM41.9205 34.0329C42.8425 34.0469 43.7258 33.6825 44.3783 33.03L42.9641 31.6158C42.6873 31.8925 42.3224 32.0388 41.951 32.0331L41.9205 34.0329ZM37.8072 34.033H41.9358V32.033H37.8072V34.033ZM38.8072 33.033V33.033H36.8072V33.033H38.8072ZM30.8429 34.033H37.8072V32.033H30.8429V34.033ZM29.5286 33.781C29.9505 33.954 30.4024 34.0399 30.8582 34.0329L30.8277 32.0331C30.6436 32.036 30.4602 32.0014 30.2874 31.9305L29.5286 33.781ZM28.402 33.0286C28.7242 33.3518 29.1068 33.608 29.5286 33.781L30.2874 31.9305C30.1146 31.8597 29.9549 31.7535 29.8182 31.6164L28.402 33.0286ZM27.6478 31.8999C27.824 32.3216 28.0797 32.7054 28.402 33.0286L29.8182 31.6164C29.6814 31.4792 29.5704 31.3138 29.4932 31.1289L27.6478 31.8999ZM27.3716 30.5687C27.378 31.026 27.4716 31.4782 27.6478 31.8999L29.4932 31.1289C29.4159 30.9439 29.3742 30.7438 29.3714 30.5405L27.3716 30.5687ZM27.3715 24.9928V30.5546H29.3715V24.9928H27.3715ZM28.404 22.521C27.7548 23.172 27.3872 24.0553 27.3716 24.9759L29.3713 25.0097C29.3783 24.5973 29.5432 24.211 29.8202 23.9332L28.404 22.521ZM30.8551 21.5144C29.9349 21.5032 29.0543 21.8689 28.404 22.521L29.8202 23.9332C30.0961 23.6565 30.46 23.5097 30.8307 23.5143L30.8551 21.5144ZM36.4 21.5143H30.8429V23.5143H36.4V21.5143ZM35.4 22.5143V22.5143H37.4V22.5143H35.4ZM38.8072 23.5544V23.5544H36.8072V23.5544H38.8072ZM30.8429 24.5544H37.8072V22.5544H30.8429V24.5544ZM30.6572 24.5809C30.7073 24.5612 30.7596 24.5523 30.8116 24.5539L30.8742 22.5549C30.5498 22.5448 30.2271 22.601 29.9253 22.7197L30.6572 24.5809ZM30.5166 24.6727C30.559 24.6313 30.607 24.6006 30.6572 24.5809L29.9253 22.7197C29.6235 22.8383 29.3496 23.0166 29.1185 23.2425L30.5166 24.6727ZM30.4128 24.8249C30.4383 24.7657 30.4741 24.7142 30.5166 24.6727L29.1185 23.2425C28.8875 23.4683 28.7036 23.7374 28.5761 24.0335L30.4128 24.8249ZM30.3712 25.0166C30.3728 24.9495 30.3872 24.8843 30.4128 24.8249L28.5761 24.0335C28.4485 24.3295 28.3794 24.6473 28.3718 24.969L30.3712 25.0166ZM30.3715 30.5546V24.9928H28.3715V30.5546H30.3715ZM30.4128 30.7224C30.3872 30.6631 30.3728 30.5979 30.3712 30.5308L28.3718 30.5783C28.3794 30.9 28.4485 31.2179 28.5761 31.5139L30.4128 30.7224ZM30.5166 30.8747C30.4741 30.8331 30.4383 30.7817 30.4128 30.7224L28.5761 31.5139C28.7036 31.8099 28.8875 32.079 29.1185 32.3049L30.5166 30.8747ZM30.6572 30.9665C30.607 30.9467 30.559 30.9161 30.5166 30.8747L29.1185 32.3049C29.3496 32.5308 29.6235 32.709 29.9253 32.8277L30.6572 30.9665ZM30.8116 30.9934C30.7596 30.9951 30.7073 30.9861 30.6572 30.9665L29.9253 32.8277C30.2271 32.9464 30.5498 33.0026 30.8742 32.9925L30.8116 30.9934ZM36.4 30.993H30.8429V32.993H36.4V30.993ZM35.4 31.9929V31.993H37.4V31.9929H35.4ZM41.9358 30.9929H36.4V32.9929H41.9358V30.9929ZM42.1214 30.9664C42.0713 30.9861 42.019 30.995 41.9671 30.9934L41.9045 32.9924C42.2289 33.0026 42.5515 32.9464 42.8533 32.8277L42.1214 30.9664ZM42.2621 30.8746C42.2197 30.916 42.1717 30.9467 42.1214 30.9664L42.8533 32.8277C43.155 32.709 43.429 32.5308 43.6601 32.3048L42.2621 30.8746ZM42.3658 30.7224C42.3403 30.7818 42.3045 30.8332 42.2621 30.8746L43.6601 32.3048C43.8912 32.0789 44.0751 31.8098 44.2026 31.5139L42.3658 30.7224ZM42.4075 30.5308C42.4059 30.5977 42.3915 30.6629 42.3658 30.7224L44.2026 31.5139C44.3301 31.218 44.3993 30.9001 44.4069 30.5783L42.4075 30.5308ZM42.4072 24.9928V30.5545H44.4072V24.9928H42.4072ZM42.3658 24.8249C42.3915 24.8844 42.4059 24.9496 42.4075 25.0165L44.4069 24.969C44.3993 24.6472 44.3301 24.3293 44.2026 24.0334L42.3658 24.8249ZM42.2621 24.6727C42.3045 24.7141 42.3403 24.7655 42.3658 24.8249L44.2026 24.0334C44.0751 23.7375 43.8912 23.4684 43.6601 23.2425L42.2621 24.6727ZM42.1214 24.5809C42.1717 24.6006 42.2197 24.6313 42.2621 24.6727L43.6601 23.2425C43.429 23.0165 43.155 22.8383 42.8533 22.7196L42.1214 24.5809ZM41.9671 24.5539C42.019 24.5523 42.0713 24.5612 42.1214 24.5809L42.8533 22.7196C42.5515 22.6009 42.2289 22.5447 41.9045 22.5549L41.9671 24.5539ZM37.8072 24.5544H41.9358V22.5544H37.8072V24.5544Z" fill="#21B7CC" mask="url(#path-7-outside-1_469_5087)"/>
<path d="M32.3143 23.5544H30.8857C30.6975 23.5485 30.51 23.5811 30.334 23.6503C30.1581 23.7195 29.9971 23.8239 29.8604 23.9576C29.7236 24.0913 29.6138 24.2515 29.5372 24.4292C29.4607 24.6068 29.4189 24.7984 29.4143 24.9928V30.5545C29.4189 30.7489 29.4607 30.9405 29.5372 31.1181C29.6138 31.2958 29.7236 31.4561 29.8604 31.5897C29.9971 31.7234 30.1581 31.8279 30.334 31.8971C30.51 31.9662 30.6975 31.9988 30.8857 31.9929H40.4857L32.3143 23.5544Z" fill="#524C69"/>
<path d="M41.9357 31.9929C42.1239 31.9988 42.3114 31.9662 42.4873 31.8971C42.6633 31.8279 42.8243 31.7234 42.9611 31.5897C43.0978 31.4561 43.2076 31.2958 43.2842 31.1181C43.3607 30.9405 43.4025 30.7489 43.4071 30.5545V24.9928C43.4025 24.7984 43.3607 24.6068 43.2842 24.4292C43.2076 24.2515 43.0978 24.0913 42.9611 23.9576C42.8243 23.8239 42.6633 23.7195 42.4873 23.6503C42.3114 23.5811 42.1239 23.5485 41.9357 23.5544H32.3143L40.4857 31.9929H41.9357Z" fill="#3F3952"/>
<g filter="url(#filter0_d_469_5087)">
<path fill-rule="evenodd" clip-rule="evenodd" d="M36.6398 43.7787L39.1687 36.2285L31.5965 46.2783H35.2662H35.7274L33.1984 53.8285L40.7777 43.7787H37.101H36.6398Z" fill="white"/>
</g>
</g>
<defs>
<filter id="filter0_d_469_5087" x="29.5965" y="34.2285" width="15.1812" height="23.6" filterUnits="userSpaceOnUse" color-interpolation-filters="sRGB">
<feFlood flood-opacity="0" result="BackgroundImageFix"/>
<feColorMatrix in="SourceAlpha" type="matrix" values="0 0 0 0 0 0 0 0 0 0 0 0 0 0 0 0 0 0 127 0" result="hardAlpha"/>
<feOffset dx="1" dy="1"/>
<feGaussianBlur stdDeviation="1.5"/>
<feComposite in2="hardAlpha" operator="out"/>
<feColorMatrix type="matrix" values="0 0 0 0 0.545211 0 0 0 0 0.526626 0 0 0 0 0.604066 0 0 0 1 0"/>
<feBlend mode="multiply" in2="BackgroundImageFix" result="effect1_dropShadow_469_5087"/>
<feBlend mode="normal" in="SourceGraphic" in2="effect1_dropShadow_469_5087" result="shape"/>
</filter>
<linearGradient id="paint0_linear_469_5087" x1="26.5715" y1="18" x2="48.1515" y2="57.8647" gradientUnits="userSpaceOnUse">
<stop stop-color="#7CE3F3"/>
<stop offset="1" stop-color="#00B4CB"/>
</linearGradient>
<clipPath id="clip0_469_5087">
<rect width="35" height="44" fill="white" transform="translate(23 18)"/>
</clipPath>
</defs>
</svg>
