<svg width="80" height="80" viewBox="0 0 80 80" fill="none" xmlns="http://www.w3.org/2000/svg">
<path d="M12.047 49.112V35.576L9.287 36.128V34.4L13.463 32.528H15.023V49.112H12.047ZM25.055 49.304C23.135 49.304 21.591 48.656 20.423 47.36C19.255 46.048 18.671 44.064 18.671 41.408V40.376C18.671 38.952 18.839 37.712 19.175 36.656C19.527 35.6 20.007 34.768 20.615 34.16C21.223 33.552 21.895 33.104 22.631 32.816C23.383 32.528 24.199 32.384 25.079 32.384C26.951 32.384 28.471 33.024 29.639 34.304C30.823 35.584 31.415 37.584 31.415 40.304V41.336C31.415 44.056 30.823 46.064 29.639 47.36C28.455 48.656 26.927 49.304 25.055 49.304ZM25.055 47.048C26.175 47.048 27.007 46.616 27.551 45.752C28.095 44.872 28.367 43.464 28.367 41.528V40.304C28.367 36.544 27.271 34.664 25.079 34.664C23.943 34.664 23.103 35.104 22.559 35.984C22.015 36.848 21.743 38.232 21.743 40.136V41.408C21.743 45.168 22.847 47.048 25.055 47.048ZM40.5706 49.304C38.6506 49.304 37.1066 48.656 35.9386 47.36C34.7706 46.048 34.1866 44.064 34.1866 41.408V40.376C34.1866 38.952 34.3546 37.712 34.6906 36.656C35.0426 35.6 35.5226 34.768 36.1306 34.16C36.7386 33.552 37.4106 33.104 38.1466 32.816C38.8986 32.528 39.7146 32.384 40.5946 32.384C42.4666 32.384 43.9866 33.024 45.1546 34.304C46.3386 35.584 46.9306 37.584 46.9306 40.304V41.336C46.9306 44.056 46.3386 46.064 45.1546 47.36C43.9706 48.656 42.4426 49.304 40.5706 49.304ZM40.5706 47.048C41.6906 47.048 42.5226 46.616 43.0666 45.752C43.6106 44.872 43.8826 43.464 43.8826 41.528V40.304C43.8826 36.544 42.7866 34.664 40.5946 34.664C39.4586 34.664 38.6186 35.104 38.0746 35.984C37.5306 36.848 37.2586 38.232 37.2586 40.136V41.408C37.2586 45.168 38.3626 47.048 40.5706 47.048ZM55.9103 49.344L51.8623 43.776C53.1423 42.048 54.4969 40.2453 55.9263 38.368H57.9583L54.0223 43.568C55.8783 46.128 57.2649 48.0533 58.1823 49.344H55.9103ZM49.7023 49.344V38.368H51.6703V49.344H49.7023ZM59.8116 49.344V38.368H62.5796L65.2516 46.64H65.2996L67.9716 38.368H70.7236V49.344H68.7556V40.816H68.6916L65.9396 49.344H64.3236L61.5876 40.816H61.5396V49.344H59.8116Z" fill="url(#paint0_linear_469_5279)"/>
<defs>
<linearGradient id="paint0_linear_469_5279" x1="7.99996" y1="40.0001" x2="52.9166" y2="69.2774" gradientUnits="userSpaceOnUse">
<stop stop-color="#6CFFED"/>
<stop offset="1" stop-color="#06B5D1"/>
</linearGradient>
</defs>
</svg>
